<svg width="72" height="72" viewBox="0 0 72 72" fill="none" xmlns="http://www.w3.org/2000/svg">
<g filter="url(#filter0_ddd_1_425)">
<path d="M20 31C20 22.1634 27.1634 15 36 15V15C44.8366 15 52 22.1634 52 31V31C52 39.8366 44.8366 47 36 47V47C27.1634 47 20 39.8366 20 31V31Z" fill="white"/>
<path d="M38.5 27C38.5 25.6193 37.3807 24.5 36 24.5C34.6193 24.5 33.5 25.6193 33.5 27V31C33.5 32.3807 34.6193 33.5 36 33.5C37.3807 33.5 38.5 32.3807 38.5 31V27Z" stroke="#5F5B57" stroke-linecap="round" stroke-linejoin="round"/>
<path d="M36 35.5V38" stroke="#5F5B57" stroke-linecap="round" stroke-linejoin="round"/>
<path d="M40.5 31C40.5 32.1935 40.0259 33.3381 39.182 34.182C38.3381 35.0259 37.1935 35.5 36 35.5C34.8065 35.5 33.6619 35.0259 32.818 34.182C31.9741 33.3381 31.5 32.1935 31.5 31" stroke="#5F5B57" stroke-linecap="round" stroke-linejoin="round"/>
</g>
<defs>
<filter id="filter0_ddd_1_425" x="0" y="0" width="72" height="72" filterUnits="userSpaceOnUse" color-interpolation-filters="sRGB">
<feFlood flood-opacity="0" result="BackgroundImageFix"/>
<feColorMatrix in="SourceAlpha" type="matrix" values="0 0 0 0 0 0 0 0 0 0 0 0 0 0 0 0 0 0 127 0" result="hardAlpha"/>
<feOffset dy="2"/>
<feGaussianBlur stdDeviation="1"/>
<feComposite in2="hardAlpha" operator="out"/>
<feColorMatrix type="matrix" values="0 0 0 0 0.372549 0 0 0 0 0.356863 0 0 0 0 0.341176 0 0 0 0.1 0"/>
<feBlend mode="normal" in2="BackgroundImageFix" result="effect1_dropShadow_1_425"/>
<feColorMatrix in="SourceAlpha" type="matrix" values="0 0 0 0 0 0 0 0 0 0 0 0 0 0 0 0 0 0 127 0" result="hardAlpha"/>
<feOffset dy="4"/>
<feGaussianBlur stdDeviation="4"/>
<feComposite in2="hardAlpha" operator="out"/>
<feColorMatrix type="matrix" values="0 0 0 0 0.372549 0 0 0 0 0.356863 0 0 0 0 0.341176 0 0 0 0.1 0"/>
<feBlend mode="normal" in2="effect1_dropShadow_1_425" result="effect2_dropShadow_1_425"/>
<feColorMatrix in="SourceAlpha" type="matrix" values="0 0 0 0 0 0 0 0 0 0 0 0 0 0 0 0 0 0 127 0" result="hardAlpha"/>
<feOffset dy="5"/>
<feGaussianBlur stdDeviation="10"/>
<feComposite in2="hardAlpha" operator="out"/>
<feColorMatrix type="matrix" values="0 0 0 0 0.372549 0 0 0 0 0.356863 0 0 0 0 0.341176 0 0 0 0.08 0"/>
<feBlend mode="normal" in2="effect2_dropShadow_1_425" result="effect3_dropShadow_1_425"/>
<feBlend mode="normal" in="SourceGraphic" in2="effect3_dropShadow_1_425" result="shape"/>
</filter>
</defs>
</svg>
