<svg width="28" height="28" viewBox="0 0 28 28" fill="none" xmlns="http://www.w3.org/2000/svg">
<path d="M12.5511 3.44597C12.6237 3.42955 12.7062 3.43437 12.7367 3.50907C12.7289 3.6078 12.6057 3.71916 12.5427 3.80547C12.6057 3.78592 12.677 3.7513 12.7383 3.72522C12.8186 3.69108 12.8996 3.66563 12.9799 3.63646C13.4891 3.45132 14.0069 3.56074 14.4928 3.76361C14.666 3.83587 14.8362 3.96414 15.0272 3.98435C15.4225 4.02082 15.63 3.83777 16.0322 4.00601C16.3924 4.15668 16.3929 4.47707 16.7193 4.59962C16.9678 4.6867 17.2353 4.68144 17.4929 4.72449C17.6755 4.75499 18.2216 4.92702 17.822 5.12097C17.971 5.22849 18.1849 5.33269 18.353 5.41453C18.4147 5.44452 18.4752 5.41447 18.5581 5.48706C18.6329 5.55258 18.6908 5.62225 18.7584 5.69376C18.9902 5.93967 19.2673 6.1947 19.3501 6.53428C19.3868 6.68488 19.3949 6.90355 19.478 7.02446C19.5619 7.14654 19.7328 7.22455 19.8443 7.32916C20.0665 7.53793 20.0157 7.75993 20.1035 8.01826C20.1661 8.20287 20.3827 8.36349 20.4437 8.56082C20.6107 9.10114 20.6838 9.71702 20.724 10.2807C20.7374 10.4691 20.7138 10.6811 20.7271 10.8723C20.7423 11.0906 20.8398 11.2842 20.8482 11.4973C20.8515 11.5813 20.8133 11.6194 20.7583 11.6749C20.7574 11.8814 20.7899 12.1489 20.7788 12.3482C20.739 13.0624 20.654 13.9403 20.5115 14.6431C20.5569 14.6271 20.603 14.6087 20.6499 14.5978C20.8305 14.5559 21.0382 14.5763 21.1974 14.6754C21.3912 14.7961 21.4957 15.0179 21.5415 15.2343C21.7418 16.1801 21.2031 18.0887 20.6827 18.874C20.5104 19.1336 20.2867 19.2943 19.9802 19.3553C19.8326 20.0476 19.6746 20.6782 19.3443 21.3146C19.264 21.4664 19.1772 21.6147 19.0844 21.759C18.8363 22.1432 18.5447 22.5011 18.2266 22.8297C18.0102 23.0502 17.7809 23.2576 17.5399 23.4506C16.3417 24.4136 15.1052 24.8917 13.5572 24.7215C12.4493 24.5912 11.5036 24.0393 10.6218 23.3905C8.26126 21.6534 8.48503 20.9306 7.87977 19.3263C7.76733 19.3076 7.6579 19.2738 7.55444 19.2261C6.96813 18.9485 6.96734 18.396 6.79972 17.8617C6.59512 17.2097 6.32137 16.6217 6.23322 15.9275C6.16754 15.41 6.08559 14.6371 6.71385 14.4154C6.93064 14.3389 7.16745 14.4124 7.36172 14.511C7.26695 13.8233 7.23053 13.1078 7.20985 12.4138C7.19663 11.9699 7.17412 11.56 7.23083 11.1152C7.25022 10.9632 7.27002 10.7368 7.2779 10.579C7.27905 10.5562 7.20007 10.4804 7.19224 10.4503C7.116 10.1572 7.28776 9.72363 7.38997 9.4711C7.30215 9.52871 7.22582 9.60352 7.12188 9.56198C6.91945 9.33135 7.48331 8.75155 7.58503 8.56353L7.57333 8.5432C7.50225 8.50458 7.43326 8.53592 7.37489 8.51854C6.94959 8.39203 7.63144 7.92829 7.7623 7.85443C7.68508 7.76919 7.54039 7.58438 7.53663 7.47093C7.52993 7.26812 7.8525 7.29995 7.97966 7.30182C7.89041 7.11615 7.6618 6.48568 7.96774 6.39619C8.06161 6.424 8.1395 6.59414 8.20634 6.69359C8.2166 6.39729 8.30724 6.03335 8.43531 5.76504C8.49768 5.63437 8.76561 5.12724 8.9499 5.23637C9.03647 5.3893 8.8624 5.81628 9.01183 5.91433C9.05113 5.84639 9.07887 5.66591 9.10819 5.57254C9.37098 4.73545 10.2427 4.00309 11.1141 3.89904C11.1601 3.89356 11.1949 3.91687 11.2241 3.94754C11.2296 4.04203 11.1619 4.05042 11.1094 4.17139C11.1552 4.19198 11.2733 4.05954 11.315 4.0229C11.6638 3.71704 12.0926 3.51692 12.5511 3.44597Z" fill="#242320"/>
<path d="M14.147 6.86409C14.5431 6.83671 14.7539 6.99705 15.1266 7.02748C15.2037 7.03376 15.2528 6.99394 15.3044 6.94299C15.5163 6.99522 15.7204 7.08938 15.9254 7.15938C17.5245 7.70503 18.5997 8.38573 19.2112 10.0496C19.1705 10.0937 19.1703 10.0294 19.0977 10.0829C19.0465 10.2688 19.2654 10.4065 19.3166 10.607C19.2535 10.6146 19.2228 10.5928 19.164 10.6254C19.0429 10.8378 19.7239 11.3506 19.7071 11.564C19.6965 11.6997 19.8457 12.0259 19.8875 12.1779C19.9917 12.5578 20.0377 12.9449 20.0782 13.3357C20.0483 13.2837 20.0025 13.1988 19.9603 13.1589C19.7615 12.9704 19.1787 12.9333 18.9898 12.7583C18.969 12.5403 18.5801 12.1483 18.4209 11.9778C18.3366 11.8875 18.257 11.8128 18.1449 11.7565C17.7892 11.5779 16.8385 11.4317 16.4184 11.4192C16.1206 11.4104 15.8407 11.4216 15.6162 11.636C15.5222 11.7258 15.3496 11.9427 15.3645 12.0776C15.3683 12.1112 15.3789 12.1403 15.4093 12.1589C15.478 12.2011 15.8068 12.0742 15.9064 12.0568L15.8908 12.0682C15.8329 12.111 15.796 12.126 15.7863 12.1908L15.8094 12.2222C15.9005 12.2589 16.2025 12.1846 16.3371 12.1736C16.3542 12.2205 16.3657 12.2532 16.4203 12.2568C16.9266 12.2905 17.4318 12.3373 17.9257 12.4599C18.0756 12.4971 18.1962 12.5251 18.3391 12.5882C17.6743 12.4762 17.3214 12.432 16.6301 12.4894C15.959 12.5168 15.4815 12.7094 14.9344 13.0685C14.8354 13.0511 14.7185 13.0076 14.617 12.9828C14.2876 12.902 13.9586 12.9081 13.6246 12.9542C13.5594 12.9633 13.2869 13.0718 13.2406 13.0534C13.0803 12.9896 12.9165 12.8431 12.7514 12.773C12.1811 12.4973 11.5114 12.452 10.8867 12.4497C10.7943 12.4504 10.6971 12.4607 10.6054 12.4637C9.93912 12.4853 9.31672 12.6897 8.6981 12.9192C8.57661 12.9643 8.35582 12.9972 8.25175 13.064C8.12794 13.1435 7.95515 13.3449 7.84863 13.4564C7.88349 12.8067 8.05911 12.0278 8.40891 11.4807C8.49597 11.3446 8.79788 11.0226 8.79529 10.8983C8.73726 10.8075 8.6152 10.8974 8.53984 10.937C8.63826 10.8039 8.81184 10.6206 8.83352 10.4626C8.81554 10.411 8.83188 10.4294 8.78338 10.4054C8.71366 10.4009 8.68255 10.4251 8.61993 10.4572C8.69142 10.3402 8.91276 10.0992 8.87888 9.9756C8.83909 9.95196 8.81797 9.9451 8.79764 9.9038C8.79562 9.80327 8.93192 9.55775 8.97329 9.46024C9.39407 8.46844 10.1368 7.78308 11.1556 7.43457C11.2537 7.40102 11.5312 7.33676 11.5861 7.2603L11.5811 7.23464L11.5286 7.20425C11.631 7.06499 12.2234 7.2499 12.2969 7.10725C12.2805 6.99426 12.1142 6.98524 12.0307 6.96434C12.3446 6.92541 12.6668 6.96719 12.9975 6.98327C13.3478 6.99612 13.7125 7.121 14.0599 7.0751C14.1493 7.06331 14.1122 6.92176 14.147 6.86409Z" fill="white"/>
<path d="M11.5152 11.4224C11.5826 11.4144 11.6478 11.4203 11.7128 11.414C11.9391 11.3917 12.6858 11.4912 12.5978 11.8361C12.6386 11.9084 12.7129 12.0503 12.6757 12.1315C12.6008 12.2951 12.3328 12.0353 12.1753 12.0819C12.2075 12.122 12.2292 12.142 12.242 12.192L12.2235 12.2183C12.0786 12.2673 12.0074 12.1976 11.8471 12.1916C11.8372 12.2052 11.8044 12.2479 11.7849 12.2482C11.2995 12.2549 10.782 12.313 10.307 12.405C10.0768 12.4568 9.83978 12.5046 9.61174 12.5616C9.46076 12.5994 9.32165 12.6578 9.16401 12.6897C9.11673 12.6721 9.13849 12.6854 9.10278 12.6395C9.10489 12.5785 9.17221 12.4728 9.21507 12.4311C9.49125 12.1627 9.74867 11.7483 10.1384 11.6469C10.5884 11.5298 11.0551 11.4612 11.5152 11.4224Z" fill="black"/>
<path d="M13.9786 13.309C14.1678 13.2871 14.5118 13.3186 14.6763 13.4308C14.8219 13.53 14.7663 13.7231 14.7828 13.8901C14.8182 14.2482 14.9395 14.6614 15.0668 14.9988C15.1135 15.1223 15.25 15.2951 15.2773 15.4301C15.235 15.4668 15.225 15.4719 15.1987 15.5231C15.1921 15.5892 15.2653 15.8328 15.3286 15.9357C15.4326 16.1049 15.4667 16.6869 15.1376 16.6005C15.0511 16.5778 14.9974 16.527 14.8633 16.5126C14.7 16.4949 14.4223 16.5961 14.6102 16.7705C14.6822 16.7955 14.7769 16.7521 14.8598 16.7706C15.0015 16.7986 15.1407 16.9528 15.2953 16.891C15.8083 16.6859 15.6785 16.1519 15.5489 15.7694C15.6519 15.8603 15.73 15.9341 15.8491 16.0097C16.4104 16.3658 17.1965 16.4168 17.8335 16.2821C18.8355 16.0701 19.2212 15.2644 19.4008 14.3349C19.4323 14.1717 19.4569 13.8647 19.5347 13.7225C19.5841 13.6323 19.7434 13.599 19.8395 13.5778C19.9243 13.6825 20.0201 13.8147 20.1026 13.9235C20.1057 15.2708 20.1225 16.6057 19.8326 17.9333C19.801 18.0775 19.5953 18.8486 19.4846 18.9061C19.3324 18.8915 19.354 18.938 19.2942 19.0646C19.2293 19.2018 19.0941 19.5087 18.948 19.5777C18.9013 19.5052 18.9225 19.4184 18.8308 19.4108C18.6861 19.4749 18.549 19.936 18.3797 19.9536C18.2855 19.8985 18.3063 19.7096 18.2404 19.6157C18.2224 19.5679 18.125 19.5472 18.1011 19.5856C17.9635 19.806 17.9249 19.9859 17.7001 20.1408C17.6874 20.0705 17.6764 19.9681 17.6264 19.9183C17.5683 19.8604 17.552 19.9139 17.4709 19.9094C17.432 19.7314 17.4024 19.3479 17.4061 19.1578C17.4064 19.1399 17.4519 19.0869 17.4596 19.0649C17.4876 18.9836 17.4242 18.7678 17.3941 18.6879C17.1828 18.1293 16.7473 18.0122 16.2375 17.8359C16.0929 17.7859 15.9513 17.7083 15.8123 17.6565C15.7155 17.6206 15.6923 17.6251 15.5909 17.5756L15.5728 17.5666C15.327 17.4215 15.0527 17.2924 14.7771 17.2173C14.5127 17.1453 14.3436 17.2481 14.1054 17.3382C13.9097 17.2819 13.678 17.1388 13.4638 17.2051C13.2977 17.2564 13.0524 17.3361 12.8913 17.406C12.782 17.4576 12.6741 17.5382 12.5607 17.5789C12.1396 17.7302 11.7171 17.895 11.2936 18.0377C10.9483 18.1541 10.5182 18.7438 10.6055 19.1127C10.6342 19.1332 10.6412 19.1377 10.6656 19.1628C10.6538 19.3458 10.5807 19.7669 10.5468 19.9538C10.3264 19.7771 10.3993 20.0861 10.2968 20.1612C10.0604 20.147 9.96676 19.6298 9.81644 19.5749C9.61705 19.6344 9.71699 19.8985 9.57631 19.9974C9.38343 20.0038 9.253 19.5896 9.09626 19.4795C9.04439 19.4714 9.06867 19.467 9.0218 19.4971C8.98155 19.5553 8.98386 19.6052 8.97596 19.6769C8.83044 19.546 8.74057 19.435 8.65327 19.2604C8.61289 19.1796 8.54163 18.9954 8.46533 18.9572C8.43161 18.9709 8.41859 18.9761 8.38352 18.9848C8.3182 18.9382 8.17341 18.5414 8.14819 18.4515C7.75857 17.0616 7.72775 15.4342 7.81079 14.0035C7.9642 13.8518 8.12218 13.7047 8.28453 13.5625C8.69778 13.6366 8.65654 13.7839 8.7195 14.1701C8.80941 14.7216 8.97142 15.3478 9.36863 15.7618C10.1114 16.536 11.795 16.5367 12.5564 15.7849C13.08 15.2591 13.3838 14.279 13.3846 13.5409C13.515 13.3353 13.7579 13.3307 13.9786 13.309Z" fill="#FBFBFA"/>
<path d="M13.3254 16.5013C13.4497 16.4905 13.7023 16.534 13.7121 16.6892C13.6376 16.8006 13.4465 16.743 13.273 16.8008L13.2522 16.8079C13.1576 16.8572 12.9878 16.9616 12.9189 16.8245C12.9216 16.6261 13.168 16.5461 13.3254 16.5013Z" fill="black"/>
<path d="M13.474 18.3009C13.7395 18.2657 13.8736 18.3949 14.1054 18.3979C14.3131 18.4005 14.4801 18.2472 14.7405 18.3109C15.2997 18.4462 15.9701 18.6637 16.4807 18.9183C16.7896 19.0723 16.8566 20.1112 16.7617 20.4191C16.7468 20.4673 16.7386 20.5031 16.6879 20.5213C16.5984 20.5536 16.5946 20.6655 16.556 20.7399C16.4808 20.9365 16.4133 21.1154 16.2786 21.2811C16.2491 21.2675 16.2258 21.2596 16.195 21.2487C16.0457 21.2877 15.9656 21.6375 15.7306 21.6768C15.6748 21.6406 15.6808 21.6074 15.6276 21.5387C15.4594 21.473 15.3974 21.7742 15.258 21.8059C14.9255 21.8817 14.701 21.1741 14.6474 20.9661C14.8012 20.7442 14.9134 20.7704 15.0524 20.6034C15.1541 20.4814 15.3256 20.0771 15.1442 19.9606C15.0519 19.9436 14.9399 19.9771 14.844 19.9908C14.3214 20.0656 13.7663 20.0646 13.2453 19.9784C13.1937 19.9698 13.0568 19.9314 13.0192 19.9684C12.8727 20.096 13.0391 20.4727 13.1374 20.6012C13.3561 20.8687 13.6754 20.7797 13.4778 21.2507C13.3897 21.4609 13.1842 22.009 12.8787 21.7219C12.6985 21.4923 12.6483 21.477 12.5253 21.748C12.3152 21.6323 12.2902 21.5742 12.1414 21.3962C12.0922 21.3373 12.0644 21.3084 11.9915 21.3045C11.9418 21.3284 11.9339 21.3632 11.9099 21.4145C11.7565 21.2457 11.6544 21.1054 11.5784 20.8894C11.5515 20.813 11.4865 20.627 11.4345 20.5793C11.3887 20.5703 11.3678 20.5715 11.3366 20.5373C11.1899 20.1719 11.259 19.1918 11.5948 18.9511C11.6639 18.9725 11.7328 19.0067 11.7949 19.0427C12.271 19.3181 12.8415 19.1943 13.3639 19.2166C13.6288 19.2278 13.9109 19.2892 14.1766 19.2788C14.4639 19.2553 14.5667 19.2285 14.8767 19.2136C15.306 19.1931 15.9342 19.3295 16.2901 19.013C16.3146 18.9914 16.3078 18.9445 16.3026 18.9175C16.2347 18.8344 16.1682 18.863 16.0767 18.8842C15.9423 18.9156 15.7527 18.9682 15.6145 18.9697C15.3707 18.9722 15.1197 18.9489 14.8736 18.9485C14.6005 18.9479 14.343 19.0085 14.0724 19.0076C13.8173 19.0068 13.5467 18.9519 13.2919 18.9498C12.9792 18.9473 12.6617 18.985 12.3489 18.9529C12.1641 18.9339 12.0131 18.8801 11.8388 18.8219C11.9415 18.7706 12.0847 18.7234 12.1949 18.6814C12.6013 18.5264 13.0466 18.385 13.474 18.3009Z" fill="#FBFBFA"/>
<path d="M10.7992 12.7193C11.29 12.6712 12.3453 12.7945 12.7348 13.1131C13.3784 13.6396 12.8985 14.9258 12.4841 15.4644C12.1968 15.8379 11.7273 16.0155 11.2583 16.0622C11.2459 16.0638 11.2335 16.0653 11.221 16.0666C10.7261 16.1178 10.0648 16.0205 9.67584 15.6866C9.20816 15.2754 9.0669 14.6525 8.98933 14.0698C8.82756 12.8544 9.85588 12.7918 10.7992 12.7193Z" fill="#FBFBFA"/>
<path d="M11.1228 13.1616C11.4369 13.1338 11.8204 13.2128 12.0963 13.3734C12.1791 13.4217 12.3448 13.5312 12.3817 13.6192C12.374 13.6743 12.385 13.6507 12.347 13.6921C12.3126 13.7022 12.2942 13.7137 12.2589 13.6958C12.0124 13.5705 11.8282 13.4716 11.5507 13.4214C11.6371 13.6061 11.6771 13.76 11.576 13.9523C11.4314 14.2275 11.1108 14.2699 10.8506 14.1357C10.6054 13.9654 10.5974 13.7498 10.6759 13.4873C10.4741 13.5679 10.332 13.6512 10.1595 13.7853C10.0496 13.8708 9.8942 14.0752 9.75827 14.0317C9.71505 13.9903 9.72742 14.0144 9.71582 13.9592C9.73253 13.8991 9.75113 13.8708 9.79171 13.8228C10.1475 13.4017 10.5816 13.2081 11.1228 13.1616Z" fill="#242320"/>
<path d="M11.2899 13.4573C11.3518 13.4368 11.4189 13.4693 11.441 13.5307C11.4631 13.5921 11.4322 13.6599 11.3714 13.6836C11.3307 13.6994 11.2846 13.6919 11.251 13.664C11.2173 13.6361 11.2015 13.5922 11.2096 13.5492C11.2177 13.5063 11.2484 13.4711 11.2899 13.4573Z" fill="#FBFBFA"/>
<path d="M17.0928 12.7337C17.5805 12.7236 18.5912 12.8097 18.9246 13.1585C19.4545 13.713 19.0189 15.1443 18.5333 15.6247C18.1877 15.9668 17.6763 16.085 17.2144 16.0877C16.737 16.0943 16.1893 15.9973 15.8174 15.6523C15.3111 15.183 14.7802 13.7744 15.3351 13.1909C15.699 12.8084 16.574 12.7478 17.0928 12.7337Z" fill="#FBFBFA"/>
<path d="M16.7386 13.1749C16.8202 13.1657 16.995 13.1709 17.0771 13.1792C17.5645 13.2253 18.013 13.4655 18.3214 13.8456C18.3738 13.9109 18.3825 13.9173 18.3736 13.9939C18.3384 14.043 18.3602 14.0243 18.3042 14.0507C18.187 14.0405 17.9421 13.7667 17.7931 13.6804C17.6246 13.5829 17.6052 13.5615 17.4094 13.4839C17.4755 13.6623 17.4935 13.7562 17.4229 13.9359C17.2756 14.1922 16.9978 14.2958 16.726 14.1649C16.61 14.1097 16.5219 14.0092 16.4821 13.8871C16.426 13.7157 16.4684 13.582 16.5452 13.4318C16.4043 13.4594 16.2753 13.5058 16.1439 13.5616C16.056 13.5989 15.8997 13.6921 15.8162 13.7085C15.7635 13.6862 15.7831 13.7038 15.7554 13.6536C15.7566 13.6233 15.7588 13.5935 15.781 13.5704C16.042 13.3006 16.391 13.2119 16.7386 13.1749Z" fill="black"/>
<path d="M17.1171 13.4867C17.1737 13.4608 17.2406 13.4844 17.2684 13.5401C17.2963 13.5957 17.2749 13.6634 17.2204 13.6932C17.1833 13.7134 17.138 13.7118 17.1025 13.6889C17.067 13.6661 17.0468 13.6256 17.0499 13.5835C17.0528 13.5413 17.0786 13.5042 17.1171 13.4867Z" fill="#FBFBFA"/>
<path d="M20.7181 14.8522C21.0791 14.8214 21.248 15.0238 21.2897 15.3607C21.4102 16.3368 20.9385 18.0602 20.3908 18.823C20.2704 18.9616 20.1899 19.0079 20.0259 19.0717C20.2176 17.7233 20.3416 16.366 20.3976 15.0052C20.5199 14.9202 20.5768 14.8935 20.7181 14.8522Z" fill="#FBFBFA"/>
<path d="M6.85065 14.6611C7.12446 14.6334 7.27466 14.7548 7.49003 14.898C7.49625 15.1513 7.50421 15.4046 7.5139 15.6578C7.4054 15.5091 6.98423 15.0807 6.78592 15.194C6.75011 15.2398 6.75331 15.2412 6.74449 15.2965C6.76924 15.405 6.91179 15.4482 7.03268 15.524C7.16344 15.6061 7.52811 16.0762 7.53603 16.1884C7.58593 16.8958 7.62602 17.5903 7.72226 18.2955C7.74662 18.5422 7.78914 18.8027 7.8222 19.0506C7.13342 18.7617 7.23682 18.3083 7.02798 17.6939C6.7546 16.8898 6.41574 16.0846 6.46682 15.2156C6.48286 14.9428 6.57668 14.7417 6.85065 14.6611Z" fill="#FBFBFA"/>
</svg>
