<svg width="32" height="35" viewBox="0 0 32 35" fill="none" xmlns="http://www.w3.org/2000/svg">
<path d="M8.40332 0.505859C8.93585 0.479287 9.38653 0.544796 9.75488 0.728516C10.1361 0.918669 10.3838 1.21288 10.541 1.55273C10.6916 1.87832 10.7594 2.24588 10.8008 2.60059C10.8252 2.81049 10.8429 3.04085 10.8594 3.27051C14.2658 3.37215 17.6735 3.37263 21.0791 3.27051C21.095 3.00731 21.1204 2.70574 21.1689 2.41602C21.2097 2.17289 21.2689 1.91831 21.3613 1.68945C21.4513 1.46656 21.5904 1.22198 21.8174 1.05176C22.3784 0.63094 22.9274 0.423565 23.4463 0.530273C23.9731 0.638639 24.2994 1.03465 24.4961 1.41895C24.7828 1.97925 24.8984 2.71508 24.9473 3.26367C25.6292 3.25764 26.4737 3.25285 27.2842 3.33203C28.2702 3.4284 29.3446 3.65692 30.0283 4.26953C30.5167 4.70742 30.8178 5.3751 31.0137 6.08105C31.2126 6.79829 31.321 7.62248 31.3799 8.44043C31.4965 10.0625 31.4224 11.7767 31.4287 12.6719C31.4718 15.6591 31.4689 18.6474 31.418 21.6348C31.3853 24.2094 31.4829 26.8565 31.2949 29.4795C31.1777 31.1099 30.6945 32.1803 29.7607 32.835C28.8722 33.4578 27.6623 33.633 26.3018 33.7373H26.3008C26.1753 33.7467 26.0466 33.7558 25.916 33.7627L25.5186 33.7754C22.4012 33.8001 19.2663 33.7874 16.1357 33.7734C13.0044 33.7595 9.87671 33.7447 6.76758 33.7627C5.58187 33.7695 4.22174 33.7342 3.10352 33.2949C2.53394 33.0711 2.0105 32.7363 1.60254 32.2373C1.1933 31.7366 0.92333 31.0982 0.818359 30.3037C0.550331 28.2742 0.626352 26.1079 0.594727 24.1377L0.542969 20.9697C0.50112 17.8013 0.489946 14.6325 0.509766 11.4639V11.4619C0.515241 10.9036 0.53969 10.3237 0.564453 9.75684C0.589356 9.18679 0.614367 8.62968 0.621094 8.10254C0.636277 6.89164 0.809287 5.9479 1.15527 5.22363C1.50911 4.48303 2.03287 3.99607 2.68945 3.69238C3.32836 3.39689 4.07248 3.28478 4.86133 3.24316C5.50619 3.20916 6.21892 3.22102 6.96484 3.2334C6.97168 2.83612 6.99171 2.44687 7.08594 2.08691C7.23132 1.5318 7.54036 1.05897 8.12305 0.609375L8.24707 0.513672L8.40332 0.505859Z" fill="#05210B" stroke="#05210B"/>
<path d="M3.70181 11.3169C7.27232 11.1673 11.3162 11.382 14.9287 11.3678C19.8312 11.3485 24.9342 11.1875 29.823 11.3338C29.8856 15.4267 29.8924 19.5201 29.8425 23.6131C29.8298 25.6637 29.9491 28.4061 29.5267 30.3977C29.377 31.0994 28.7736 31.5267 28.1722 31.8539C27.3654 32.0343 26.4099 32.1352 25.5826 32.1539C21.5632 32.2447 17.5389 32.1571 13.5136 32.1476C10.6688 32.106 7.81117 32.273 4.97217 32.0744C3.5248 31.9733 2.50772 31.2581 2.36983 29.7471C2.19673 27.85 2.22215 25.8904 2.19184 23.9834C2.09893 19.7788 2.08036 15.5729 2.13708 11.3676L3.70181 11.3169Z" fill="#F7FCF8"/>
<path d="M22.5771 19.7939C23.8821 19.6426 25.123 19.8806 26.1045 20.5127C27.0899 21.1473 27.7956 22.1682 28.042 23.5439L28.043 23.5449C28.2922 24.9584 27.9983 26.4103 27.2266 27.6123L27.0654 27.8496C26.0952 29.2009 24.9272 29.8382 23.3496 30.1104L23.3379 30.1123L23.3252 30.1133C22.1696 30.1947 21.1059 30.0657 20.0498 29.4531H20.0488C18.9465 28.8049 18.1619 27.7268 17.8857 26.4775L17.8867 26.4766C17.1523 23.2084 19.4757 20.4501 22.5547 19.7979L22.5654 19.7959L22.5771 19.7939Z" fill="#05210B" stroke="#05210B" stroke-width="0.5"/>
<path d="M22.8877 20.7743C24.2284 20.6834 25.275 21.0885 25.9932 21.785C26.7077 22.4781 27.0779 23.4412 27.1064 24.4344C27.1634 26.4243 25.8512 28.5731 23.1299 29.0594L23.1123 29.0624L23.0947 29.0634C21.6926 29.1155 20.6201 28.6992 19.8965 28.0018C19.1752 27.3066 18.8227 26.3529 18.8184 25.371C18.8099 23.4063 20.1935 21.3031 22.8564 20.7782L22.8721 20.7753L22.8877 20.7743Z" fill="#D0F4D8" stroke="#05210B" stroke-width="0.5"/>
<path d="M24.625 22.9143L24.9868 22.9818C25.2782 23.2219 25.1912 23.0739 25.2645 23.4352C25.0279 24.4111 23.9306 25.5766 23.3272 26.3972C22.448 27.5933 21.9669 26.7855 21.2471 26.0095C20.9361 25.6678 20.3386 25.1039 20.6545 24.6175C21.427 24.401 22.0422 25.2523 22.4803 25.7496C23.0798 24.9062 23.9326 23.6434 24.625 22.9143Z" fill="#05210B"/>
<path d="M12.8677 19.702C13.2125 19.5504 13.6135 19.5972 13.9146 19.8241C14.2154 20.0509 14.371 20.4229 14.3208 20.7968C14.2768 21.1238 14.0817 21.4083 13.7983 21.5673L13.6714 21.6268C13.1758 21.8234 12.6176 21.6141 12.3696 21.1542L12.3247 21.0594C12.1049 20.5345 12.3471 19.9307 12.8677 19.702Z" fill="#05210B" stroke="#05210B" stroke-width="0.5"/>
<path d="M6.94922 19.7056C7.29407 19.5494 7.69719 19.5928 8.00098 19.8188C8.30399 20.0445 8.46219 20.417 8.41211 20.7925C8.36194 21.1677 8.11229 21.4862 7.75977 21.6245C7.23358 21.8307 6.63891 21.5806 6.41895 21.0601C6.19901 20.5394 6.43476 19.9386 6.94922 19.7056Z" fill="#05210B" stroke="#05210B" stroke-width="0.5"/>
<path d="M13.0728 25.0365C13.5763 24.9077 14.1073 25.1732 14.2993 25.6683C14.4911 26.1634 14.279 26.7174 13.8198 26.9623L13.7251 27.0072C13.3766 27.1503 12.9772 27.095 12.6821 26.8607C12.3874 26.6267 12.2423 26.2514 12.3013 25.8802V25.8793C12.3617 25.5078 12.6181 25.197 12.9722 25.0677L13.0728 25.0365Z" fill="#05210B" stroke="#05210B" stroke-width="0.5"/>
<path d="M7.30518 14.6849C7.62614 14.6642 7.94151 14.7937 8.15576 15.0404H8.15674C8.4027 15.3228 8.47703 15.7158 8.35205 16.0687C8.24285 16.3769 7.99666 16.6138 7.68994 16.7123L7.55518 16.7455C7.02996 16.8399 6.52372 16.5209 6.37549 16.0189L6.35107 15.9164C6.24437 15.3564 6.60886 14.8156 7.16748 14.7035L7.30518 14.6849Z" fill="#05210B" stroke="#05210B" stroke-width="0.5"/>
<path d="M7.03394 25.0782C7.56673 24.8743 8.16285 25.1368 8.3728 25.6661L8.37378 25.6671C8.58215 26.1969 8.32584 26.7973 7.79761 27.0118V27.0109C7.29543 27.2149 6.72817 26.9983 6.48413 26.5275L6.43921 26.4298C6.2283 25.8928 6.49426 25.2853 7.03394 25.0782Z" fill="#05210B" stroke="#05210B" stroke-width="0.5"/>
<path d="M24.6475 14.7059C25.1572 14.5621 25.6941 14.825 25.8926 15.3163C26.0908 15.8076 25.8877 16.3699 25.4219 16.621L25.4209 16.6219C25.07 16.8099 24.6425 16.7813 24.3203 16.5477C23.9967 16.3139 23.8368 15.916 23.9062 15.5243C23.9758 15.1323 24.2637 14.8142 24.6475 14.7059Z" fill="#05210B" stroke="#05210B" stroke-width="0.5"/>
<path d="M18.873 14.7004C19.2376 14.6206 19.6174 14.7425 19.8672 15.0198L19.8682 15.0208C20.1166 15.2984 20.1976 15.6891 20.0791 16.0432C19.9606 16.3969 19.662 16.6606 19.2959 16.7327C18.7375 16.8422 18.1941 16.4823 18.0791 15.925L18.0635 15.8206C18.009 15.3013 18.3526 14.8146 18.873 14.7004Z" fill="#05210B" stroke="#05210B" stroke-width="0.5"/>
<path d="M13.093 14.6941C13.654 14.6089 14.1785 14.9923 14.2688 15.5525C14.3588 16.1125 13.9816 16.6405 13.4221 16.7361C12.8557 16.8329 12.3194 16.4489 12.2278 15.8816C12.1362 15.3142 12.5242 14.7805 13.093 14.6941Z" fill="#05210B" stroke="#05210B" stroke-width="0.5"/>
<path d="M8.7696 2.01697C9.67812 2.42106 9.3241 5.38671 9.06983 6.1943C8.82045 6.14951 8.94075 6.18932 8.72462 5.98962C8.42732 5.12432 8.4283 2.84305 8.7696 2.01697Z" fill="#D0F4D8"/>
<path d="M22.9157 2.02319C23.7402 2.56606 23.4585 5.43763 23.1192 6.25539C22.3515 5.78588 22.5588 2.70121 22.9157 2.02319Z" fill="#D0F4D8"/>
</svg>
