<svg width="390" height="289" viewBox="0 0 390 289" fill="none" xmlns="http://www.w3.org/2000/svg">
<g clip-path="url(#clip0_1_1190)">
<path d="M220.058 114.057C222.493 111.836 224.753 111.683 227.226 114.169C227.519 114.464 227.84 115.012 228.108 115.36C229.203 114.815 230.045 114.292 231.267 114.041C233.561 113.569 235.477 114.839 236.662 116.711C236.752 116.853 236.649 117.167 236.613 117.321L236.745 117.664C237.126 117.548 237.196 117.516 237.556 117.349C239.108 116.651 240.87 116.583 242.472 117.16C244.859 118.001 244.356 119.634 245.094 120.346C247.486 119.54 249.39 118.894 251.836 120.002C253.99 120.977 254.653 123.388 253.618 125.442C253.144 126.383 252.528 126.895 251.767 127.57C252.592 128.692 252.898 129.811 252.707 131.195C252.44 133.127 251.085 133.943 249.654 134.994C250.745 135.948 251.932 136.856 252.02 138.425C252.169 141.11 249.533 142.655 247.301 143.265C250.114 145.961 248.135 149.464 244.826 150.615C246.323 152.81 246.492 155.758 244.122 157.54C243.783 157.795 242.617 158.284 242.21 158.325C244.301 160.284 245.444 162.857 243.406 165.546C242.929 166.176 242.113 166.427 241.382 166.679C243.211 169.169 242.723 173.344 239.519 174.362C246.67 179.027 247.817 187.677 243.028 194.478C240.113 198.62 235.774 200.797 231.233 202.669C230.619 205.713 230.429 208.884 229.787 211.958C228.029 220.392 224.513 229.659 217.156 234.75C213.372 237.369 210.306 237.658 206.02 236.32C203.278 239.746 200.648 242.579 195.999 243.144C192.848 243.529 190.046 241.955 187.372 240.545C186.578 241.097 185.58 241.939 184.76 242.357C182.064 243.729 176.848 243.753 174.335 242.042L174.342 241.696C173.897 241.398 173.779 241.679 173.449 241.374C172.835 240.807 173.078 240.347 172.206 240.182C171.669 239.42 171.294 237.725 170.235 237.693C167.194 237.602 164.945 237.072 162.974 234.578C161.882 233.197 161.887 233.04 161.163 231.511C159.995 229.043 160.486 227.739 160.34 225.172C160.281 224.506 157.442 223.618 157.242 222.872C154.379 219.1 153.68 216.049 154.62 211.288C154.702 210.875 154.787 210.463 154.875 210.053C154.414 209.373 153.606 208.505 153.238 207.842C151.673 205.028 152.163 202.197 152.563 199.254C152.99 196.119 154.215 193.353 154.748 190.412L154.475 190.158L153.063 190.053C145.998 184.953 142.876 174.844 149.47 167.837C150.575 166.664 151.761 166.101 153.359 165.879C154.396 165.734 155.443 165.675 156.49 165.703C156.984 165.717 157.94 166.102 158.438 166.284C158.078 165.729 158.072 165.261 157.924 164.639C157.585 163.216 158.278 162.02 158.916 160.82C158.063 160.276 157.776 159.906 157.087 159.408C156.379 156.408 156.252 155.969 158.766 153.814C157.83 152.842 157.382 152.397 156.71 151.256C156.705 149.872 156.605 148.751 157.309 147.498C157.445 147.501 157.564 147.503 157.701 147.502C157.625 147.276 157.639 147.309 157.532 147.109C157.853 146.763 159.1 145.914 159.608 145.805C159.116 145.374 158.721 145.251 158.219 144.91C157.413 144.365 156.966 142.959 156.891 142.03C156.803 140.948 157.246 140.18 157.908 139.372C158.314 138.876 159.131 138.304 159.112 137.724C158.568 136.932 157.609 136.047 157.43 135.302L157.38 135.102C157.203 134.382 157.123 132.989 157.428 132.329C157.839 132.01 157.955 132.034 158.098 131.63L157.941 131.218C158.087 130.907 158.969 130.464 159.298 130.344C157.547 128.783 156.493 127.868 156.315 125.248C156.222 123.87 156.58 122.148 157.418 120.999C157.707 120.603 158.154 120.412 158.342 119.876C158.187 119.233 157.859 118.581 157.653 117.955C156.512 114.491 158.196 109.913 162.067 109.147C165.111 108.545 166.764 109.093 169.032 111.024C170.201 109.394 171.585 108.337 173.596 108.045C176.57 107.614 178.447 108.795 179.703 111.385C181.081 109.692 182.469 108.619 184.693 108.392C187.47 108.108 188.598 109.004 190.072 111.067C190.749 110.856 191.187 110.322 191.763 110.102C194.472 109.068 198.061 109.269 199.419 112.26C201.855 111.197 204.546 109.131 207.404 110.194C209.149 110.843 209.719 112.31 210.601 113.618C212.367 112.17 213.61 111.388 216.021 111.591C217.24 111.693 217.398 112.288 218.161 112.182C218.815 112.879 219.355 113.41 220.058 114.057Z" fill="#05210B"/>
<path d="M154.475 190.158C154.619 189.689 154.837 189.157 154.79 188.689C154.494 188.183 154.156 188.137 153.758 187.791C148.896 183.553 146.841 176.513 150.661 170.87C152.024 168.856 155.626 167.868 157.798 169.237C158.27 169.535 158.559 170.235 158.506 170.774C158.037 173.521 157.813 175.864 157.785 178.667C157.698 178.757 157.611 178.849 157.524 178.941C157.524 180.108 157.576 181.787 157.361 182.887C157.035 184.556 156.309 186.015 155.733 187.57C155.375 188.535 155.112 189.458 154.749 190.412L154.475 190.158Z" fill="#F7FCF8"/>
<path d="M193.314 138.959C194.177 139.043 195.116 139.182 195.97 139.335C199.692 140.002 203.587 140.29 207.289 141.013L215.651 142.581C216.726 142.777 218.691 143.237 219.686 143.238C219.821 145.346 220.382 156.555 219.905 157.93C220.017 158.195 220.67 159.335 220.804 159.374C222.11 159.756 225.962 159.822 227.145 159.757C227.268 161.332 227.352 162.548 227.505 164.131L227.292 164.263C227.478 166.687 227.348 169.336 227.727 171.816C227.773 172.116 227.615 172.349 227.486 172.683L227.375 172.643C225.042 171.792 221.611 171.525 219.084 171.153C215.446 170.607 211.805 170.082 208.162 169.576C205.249 169.17 202.186 168.773 199.233 168.753C198.714 168.749 197.669 169.132 197.204 169.372C195.077 171.552 196.663 172.47 193.287 171.98C193.147 170.851 192.794 169.361 191.942 168.555C191.34 168.123 190.519 167.538 189.768 167.562C188.097 167.615 186.17 167.123 184.512 166.864C180.457 166.211 176.389 165.639 172.311 165.149C170.225 164.886 167.906 164.589 165.764 164.62C164.476 164.639 163.072 166.451 162.351 166.595L162.209 166.486C162.18 166.301 162.159 166.116 162.215 165.927C164.953 156.577 170.105 147.708 177.176 140.973C178.085 140.108 179.25 139.172 180.266 138.494C183.989 138.466 189.672 138.461 193.314 138.959Z" fill="#F7FCF8"/>
<path d="M175.455 158.311C175.492 158.326 178.076 158.793 178.558 158.923C181.426 159.697 184.373 161.28 186.804 162.976C187.406 163.396 188.806 164.886 188.884 165.508C187.841 166.053 187.394 166.447 186.144 166.311C183.255 164.836 180.748 162.952 177.629 161.856C176.94 161.614 173.349 160.916 173.225 160.663C171.926 158.022 174.16 158.471 175.455 158.311Z" fill="#05210B"/>
<path d="M215.137 163.894C215.844 163.879 217.166 164.521 217.585 165.078C217.596 165.895 216.134 166.901 215.597 166.887C211.488 166.782 208.15 167.416 204.217 168.465C202.631 168.983 202.383 168.357 201.789 167.037C201.975 166.795 202.148 166.5 202.312 166.24C206.488 164.247 210.544 163.636 215.137 163.894Z" fill="#05210B"/>
<path d="M160.924 171.054C161.33 171.153 161.77 171.21 162.073 171.48C162.087 171.517 162.082 175.163 162.105 175.71C162.231 178.7 161.536 182.688 164.927 184.234C167.526 185.091 172.208 185.632 174.987 186.007C178.188 186.44 181.98 187.189 185.1 187.449C183.575 189.452 181.364 192.572 181.698 195.225C182.138 198.707 185.391 199.086 188.295 198.733C189.494 198.588 191.36 198.981 190.869 196.581C190.795 196.215 190.407 195.858 190.026 195.767L189.684 195.986C189.568 195.911 189.452 195.833 189.338 195.755C188.71 195.84 187.596 196.021 187.029 196.08C178.626 196.963 189.586 185.236 191.22 183.415C191.742 182.833 193.107 181.341 192.447 180.52C191.514 180.33 190.306 182.005 189.645 182.666C190.272 181.193 191.826 175.098 194.096 176.463C195.307 177.191 195.872 181.963 196.072 183.549C196.823 189.499 198.152 188.884 203.359 189.663L211.177 190.8C213.521 191.12 215.912 191.496 218.263 191.774C222.654 192.293 223.498 192.806 225.662 188.498L225.908 188.408C225.746 189.308 225.62 190.266 225.448 191.142C221.917 192.286 220.176 196.29 219.138 199.576C215.763 200.148 213.994 201.255 211.874 203.972C207.296 202.94 206.786 204.197 203.653 206.72C202.439 205.995 201.371 205.065 200.159 204.377C196.786 202.461 193.425 200.736 189.776 202.994C186.45 199.635 179.122 202.208 175.731 204.318C174.351 201.895 173.814 201.235 171.099 200.384C169.866 197.055 168.317 195.72 164.996 194.711C164.885 191.903 164.251 189.553 162.154 187.632C162.066 187.552 161.978 187.472 161.889 187.392C161.615 185.461 161.282 183.019 159.696 181.718C159.803 179.903 159.926 178.132 160.164 176.328C160.394 174.584 160.799 172.796 160.924 171.054Z" fill="#F7FCF8"/>
<path d="M200.393 170.868C201.797 170.943 203.724 171.364 205.157 171.604C207.21 171.926 209.265 172.232 211.323 172.523L220.732 173.86C227.018 174.767 228.373 174.327 225.655 181.068C224.94 182.844 224.423 184.707 223.563 186.484C222.725 188.214 222.905 188.863 220.925 189.707C219.75 190.11 216.444 189.44 215.078 189.241L205.294 187.794C204.347 187.659 203.264 187.307 202.314 187.396C202.025 187.423 201.822 187.448 201.54 187.366C201.046 187.222 200.464 187.119 200.029 186.837C199.365 186.407 199.167 185.772 199.011 185.028C198.51 182.629 196.907 173.315 198.453 171.436C198.892 170.903 199.757 170.897 200.393 170.868Z" fill="#F7FCF8"/>
<path d="M204.153 172.369C204.454 172.402 204.694 172.444 204.996 172.507C209.258 173.393 213.34 175.781 215.926 179.324C216.216 179.706 216.233 180.36 216.532 180.718C217.003 181.235 216.966 182.37 216.22 182.613C215.894 182.718 215.835 182.927 215.537 182.938C215.007 182.642 214.951 182.524 214.318 182.508C213.738 182.493 212.725 180.72 212.316 180.218L211.292 179.182C210.666 180.847 209.378 182.65 207.583 183.189C205.936 183.684 204.363 182.543 203.998 180.905C203.545 178.877 204.348 177.448 205.356 175.793C203.629 175.078 202.696 175.889 202.55 173.054C202.925 172.616 203.603 172.503 204.153 172.369Z" fill="#05210B"/>
<path d="M168.072 166.966C171.839 167.774 175.895 168.14 179.695 168.776C180.428 168.898 182.036 169.331 182.623 169.047C183.095 169.07 182.982 169.284 183.395 169.368C185.247 169.744 188.56 169.419 190.019 170.645C190.135 171.123 190.268 171.495 190.428 171.957C189.677 175.257 187.363 180.402 186.103 183.745C185.352 184.601 184.623 184.905 183.481 184.742C178.254 183.994 173.012 183.296 167.79 182.519C166.252 182.213 165.284 181.781 165.018 180.042C164.601 177.326 164.568 174.35 164.686 171.601C164.739 170.363 164.873 168.875 165.517 167.814C165.903 167.178 167.349 167.079 168.072 166.966Z" fill="#F7FCF8"/>
<path d="M185.35 170.676C186.388 170.741 188.594 171.566 187.013 172.824C186.423 173.292 184.574 173.613 183.869 173.341C183.963 173.737 184.187 173.963 184.173 174.367C184.143 175.296 184.194 176.209 184.162 177.147C183.95 177.171 184.034 177.127 183.898 177.261C183.516 178.661 183.021 179.451 181.814 180.316C178.999 182.336 176.571 178.31 177.321 175.792C177.311 175.704 177.257 175.524 177.233 175.431C176.201 175.585 174.712 177.595 173.595 177.923C172.519 178.238 172.644 177.521 171.767 177.138C171.706 176.146 173.071 174.958 173.795 174.355C177.194 171.521 180.93 170.284 185.35 170.676Z" fill="#05210B"/>
<path d="M236.571 176.086C239.2 177.105 240.426 178.106 241.818 180.63C243.552 183.775 243.493 186.783 242.192 190.1C240.53 194.344 236.465 196.52 232.55 198.317C232.279 198.442 232.081 198.484 231.82 198.375C231.577 197.288 232.136 195.129 232.207 193.965C232.37 191.303 232.672 186.645 230.486 184.695C230.008 184.629 229.334 184.517 228.867 184.5C227.994 184.916 227.702 185.13 227.018 185.867L226.851 185.711C227.324 184.494 227.792 183.296 228.278 182.061C229.032 180.143 229.151 178.078 231.309 177.161C233.138 176.384 234.685 176.367 236.571 176.086Z" fill="#F7FCF8"/>
<path d="M190.446 209.916C191.549 210.022 192.651 210.185 193.75 210.335C194.163 210.77 194.497 211.068 194.462 211.701C194.359 213.498 190.656 213.155 189.597 213.091C188.272 212.949 184.912 212.736 184.913 210.899C184.913 208.665 188.872 209.763 190.446 209.916Z" fill="#F7FCF8"/>
<path d="M315.183 232.826C317.355 228.691 328.013 209.741 331.023 205.628C335.025 205.878 342.457 211.063 345.829 213.01C350.66 215.795 361.735 222.463 363.836 227.317C366.946 234.508 356.815 249.368 353.302 255.035C349.1 261.69 344.737 268.239 340.212 274.677C338.876 276.608 337.242 279.294 335.617 280.941C335.193 281.372 334.35 281.284 333.755 281.241C332.426 280.525 330.993 279.273 329.794 278.333C321.386 271.742 312.871 265.272 304.358 258.817C302.728 257.638 302.261 256.668 303.248 254.799C307.135 247.426 311.163 240.13 315.183 232.826Z" fill="#D0F4D8"/>
<path d="M304.116 256.754L332.298 207.891C335.423 210.134 339.277 212.155 342.58 214.215C348.075 217.639 353.36 220.982 358.531 224.89C356.651 224.364 352.665 222.582 351.143 223.687C350.552 225.536 351.644 227.413 352.403 229.222C353.395 231.858 354.56 235.03 355.224 237.744C355.752 239.893 355.884 241.734 356.494 243.988C350.396 255.156 341.409 268.205 334.261 278.729C331.724 276.477 325.888 272.15 323.114 270.125C317.586 266.087 309.973 260.145 304.116 256.754Z" fill="#F7FCF8"/>
<path d="M315.15 251.179C315.675 249.422 317.111 248.086 318.902 247.682C320.693 247.279 322.559 247.873 323.789 249.235C325.017 250.599 325.416 252.518 324.832 254.257C323.95 256.886 321.121 258.323 318.477 257.483C315.833 256.643 314.353 253.838 315.15 251.179Z" fill="#05210B"/>
<path d="M329.936 261.035C332.281 257.811 333.82 259.309 335.992 256.907C337.208 255.561 336.147 252.195 336.994 250.188C338.285 247.131 341.671 247.731 343.226 245.612C343.95 244.627 343.586 240.758 344.558 239.344L345.045 239.377C345.853 240.699 345.784 242.662 345.815 244.206C344.817 248.005 344.115 247.845 340.711 249.247C337.454 250.587 339.271 254.527 338.234 257.216C337.184 259.942 334.914 259.716 332.631 260.852C331.014 261.658 331.683 263.716 330.834 266.111L330.229 266.063C329.462 264.153 329.687 263.003 329.936 261.035Z" fill="#D0F4D8"/>
<path d="M352.873 224.959C354.271 225.082 358.815 227.102 360.299 227.726C360.58 232.13 359.582 234.855 358.258 238.983L357.971 239.568C357.483 239.163 357.043 236.781 356.832 236.001C355.829 232.303 354.269 228.544 352.873 224.959Z" fill="#F7FCF8"/>
<path d="M251.521 252.259C254.202 247.887 257.727 242.666 260.885 238.629C261.331 238.059 262.195 237.783 262.884 237.63C263.91 238.037 263.553 237.778 264.186 238.858C264.465 241.212 261.72 246.015 260.56 248.25L260.969 248.097C285.817 238.765 297.661 218.812 295.194 192.345C294.92 189.411 292.869 181.533 293.576 179.968C294.635 179.508 294.118 179.526 295.179 179.841C296.034 180.728 296.321 182.112 296.714 183.34C302.344 204.981 297.88 226.728 280.373 241.683C274.373 246.809 268.884 249.372 261.701 252.516C264.233 253.232 266.773 253.946 269.288 254.716C270.312 255.029 271.142 256.538 271.214 257.598C269.157 260.824 256.285 255.795 253.181 254.722C252.13 254.358 251.821 253.256 251.521 252.259Z" fill="#D0F4D8"/>
<path d="M229.706 286.561C230.852 285.694 235.06 285.433 237.501 285.035C244.989 283.814 252.309 281.358 259.054 277.889C261.346 276.711 272.875 269.006 273.563 268.931L274.483 269.689C274.342 269.856 274.11 270.132 273.933 270.291C262.498 280.685 247.504 287.009 232.034 287.649C230.678 287.706 230.379 287.312 229.706 286.561Z" fill="#05210B"/>
<path d="M310.421 139.737C310.681 139.445 310.889 139.344 311.216 139.117C312.896 139.505 314.435 144.378 315.099 146.175C319.56 158.135 320.709 171.08 318.424 183.64C317.765 184.099 318.124 183.968 317.299 184.007C316.81 183.029 317.289 178.534 317.383 177.197C318.329 163.915 315.31 151.97 310.421 139.737Z" fill="#05210B"/>
<path d="M322.117 152.196L322.8 151.644L323.432 151.792C326.319 155.406 327.135 170.28 326.577 175.359L326.18 175.914L325.615 175.967C324.744 174.772 325.088 170.707 324.98 168.988C324.633 163.288 323.513 157.711 322.117 152.196Z" fill="#05210B"/>
<path d="M242.313 292.097C243.333 290.942 247.633 290.19 249.449 289.64C251.68 288.984 253.874 288.213 256.024 287.332C258.115 286.465 262.638 283.803 264.571 284.173C262.28 287.604 245.961 294.266 242.313 292.097Z" fill="#05210B"/>
<path d="M43.545 132.649C43.8036 132.51 44.538 132.159 44.8069 132.231C48.9588 133.349 71.2003 137.871 73.3077 139.841C73.6404 142.454 56.9751 190.847 54.9226 197.334L54.6698 197.999C54.2988 198.279 53.792 198.662 53.2469 198.504C48.8797 197.242 28.2794 192.375 26.0276 190.235C24.8239 187.178 41.2044 139.134 43.545 132.649Z" fill="#D0F4D8"/>
<path d="M45.5088 135.498C45.8582 135.47 68.2367 141.311 70.2169 141.786C69.5657 143.346 68.7739 146.037 68.2226 147.711L64.4736 159.236L53.0091 195.167C52.6071 195.343 30.4715 189.262 28.2056 188.752L45.5088 135.498Z" fill="#F7FCF8"/>
<path d="M37.1762 175.99C38.7235 172.041 43.1754 170.089 47.1282 171.627C51.0809 173.165 53.0435 177.612 51.5154 181.568C49.9822 185.539 45.5165 187.51 41.5498 185.966C37.5833 184.424 35.6234 179.953 37.1762 175.99Z" fill="#D0F4D8"/>
<path d="M49.4367 145.941C49.8928 145.167 49.6246 145.383 50.4022 145.041L50.801 145.279C51.1592 146.548 46.2698 163.13 45.5658 165.639C45.3358 166.109 45.2025 166.191 44.8354 166.56L44.4232 166.516C43.8273 165.052 48.6422 148.444 49.4367 145.941Z" fill="#05210B"/>
<path d="M55.2618 154.935C55.4907 154.532 55.6553 154.495 56.0606 154.258L56.4374 154.543C56.8007 156.387 53.8904 165.734 53.2296 168.071C52.8651 168.392 52.9634 168.288 52.4588 168.455L52.0891 168.163C51.798 166.349 54.5781 157.167 55.2618 154.935Z" fill="#05210B"/>
<path d="M330.674 69.0113C331.821 68.5372 332.802 67.9794 333.998 68.0816C334.228 68.2022 334.509 68.3486 334.84 68.521C337.842 74.5699 342.806 91.4246 346.31 96.3314C350.321 97.9547 354.931 96.4512 357.489 98.0654C357.858 99.1622 357.835 98.6946 357.553 99.837C356.986 100.573 356.298 101.098 355.404 101.366C349.599 103.107 343.809 104.882 338.075 106.843C325.199 111.265 312.518 116.227 300.06 121.72C297.907 122.691 289.979 126.958 288.216 126.141C287.193 124.437 284.173 116.443 283.618 114.493C282.346 110.016 276.202 96.4069 276.871 92.2862C278.727 89.8164 323.642 71.7177 330.674 69.0113Z" fill="#D0F4D8"/>
<path d="M330.779 72.1251C331.114 71.9553 332.696 71.4573 333.144 71.3059C335.202 77.478 337.513 83.6172 339.873 89.6799C341.774 94.5736 342.968 98.453 348.149 100.492C330.347 106.052 312.901 112.7 295.914 120.396L289.898 123.098C286.479 113.722 282.027 103.214 279.01 93.8317C295.278 86.2629 313.963 78.6728 330.779 72.1251Z" fill="#F7FCF8"/>
<path d="M304.95 88.9283C309.621 87.0883 310.093 94.7538 311.575 97.6469C312.371 99.1966 314.026 102.876 313.943 104.476C312.809 107.004 308.937 107.91 306.501 108.907C303.403 110.174 300.379 111.343 297.343 112.762C292.594 114.734 291.75 106.789 290.106 103.767C289.236 102.169 288.188 98.2685 288.431 96.482C290.342 94.568 301.717 90.2724 304.95 88.9283Z" fill="#D0F4D8"/>
<path d="M326.76 81.1299C327.867 81.0604 329.518 80.8419 330.195 81.827C329.325 82.5642 327.38 82.3687 327.104 82.684C326.071 83.8627 326.387 84.2411 324.565 84.6776L324.341 84.6018C320.84 83.4605 321.766 85.6266 319.896 86.5685C318.672 86.6993 318.277 86.4273 317.136 85.9675C316.577 86.7585 316.481 86.9314 315.762 87.5568L315.361 87.4709L315.374 86.7939C316.766 84.7049 317.661 84.9308 319.83 85.4984C320.06 85.1503 320.297 84.8096 320.545 84.476C322.974 81.224 323.999 85.1035 326.76 81.1299Z" fill="#05210B"/>
<path d="M326.236 87.8853C327.414 87.4337 328.826 86.6586 329.986 87.2436L329.96 87.6583C328.073 89.0017 323.753 90.2633 321.458 91.442L321.203 91.5749C320.169 92.1745 318.479 93.1608 317.394 92.4222L317.66 92.7729L317.369 92.4359C319.067 90.5167 323.304 89.5847 325.876 88.0959L326.236 87.8853Z" fill="#05210B"/>
<path d="M327.34 94.2757L327.931 94.2777L328.085 94.8541C327.091 96.2332 323.069 97.8023 321.346 98.5771L320.663 98.3924L320.469 97.9418C320.976 96.8577 325.985 94.8833 327.34 94.2757Z" fill="#05210B"/>
<path d="M115.255 128.911C120.611 115.579 134.547 104.639 147.645 99.6174C144.811 98.8167 140.852 97.8343 138.386 96.4803C137.752 95.6764 137.766 95.5885 137.516 94.5683C138.185 92.7931 141.038 92.9529 142.483 93.3898C145.566 94.3228 156.119 95.578 157.698 98.4483C157.15 101.677 154.07 105.44 152.329 108.322C151.025 110.482 148.97 114.339 146.367 114.629C144.867 113.9 144.604 113.041 145.152 111.516C146.089 108.906 147.528 106.317 148.787 103.837C144.578 105.376 142.274 106.424 138.445 108.682C121.06 119.719 112.711 136.558 113.951 157.385C114.162 160.928 116.823 169.44 115.563 171.481L114.796 171.455C111.914 169.235 110.558 157.348 110.43 153.395C110.156 144.9 111.904 136.688 115.255 128.911Z" fill="#D0F4D8"/>
<path d="M145.121 75.5621C153.382 65.5162 176.335 58.998 188.991 59.8213C191.155 59.9626 193.781 59.5016 195.482 61.1207C195.27 61.5285 194.706 62.2188 194.397 62.2316C191.372 62.3521 187.318 62.1577 184.411 62.2615C181.655 62.3709 178.909 62.6522 176.188 63.1064C168.2 64.5286 160.53 67.3716 153.544 71.497C151.918 72.4577 147.407 75.6114 146.125 76.0788L145.121 75.5621Z" fill="#05210B"/>
<path d="M82.7653 153.816C83.3646 152.662 83.0726 152.767 83.9966 152.412C84.4144 153.348 82.3148 163.12 82.0086 165.655C81.2389 172.084 81.073 178.571 81.5132 185.031C82.2969 196.115 84.7208 204.208 89.3074 214.183C89.5843 214.745 89.4978 214.54 89.5499 215.199L89.0966 215.519C88.2853 215.249 88.1297 215.277 87.633 214.353C78.9405 198.185 77.1554 170.916 82.7653 153.816Z" fill="#05210B"/>
<path d="M86.5342 178.38L87.1705 177.725L87.774 177.751C88.1859 178.468 88.5989 185.927 88.7262 187.328C89.8006 199.155 93.7659 208.893 99.7343 219.044C99.6126 219.658 99.7189 219.36 99.2184 219.879C97.1729 219.358 95.1601 215.088 94.1565 213.207C88.4564 202.521 85.8187 190.469 86.5342 178.38Z" fill="#05210B"/>
<path d="M168.388 55.5766C172.781 51.0148 205.549 51.2562 209.06 56.1879C207.936 57.3393 204.243 56.0282 202.362 55.6784C194.055 54.1664 185.568 53.9237 177.189 54.9621C174.854 55.2638 172.855 55.696 170.561 56.2053C169.472 56.4454 169.129 56.0967 168.388 55.5766Z" fill="#05210B"/>
<path d="M132.68 244.708C135.035 243.082 136.159 245.568 138.569 244.926C139.859 244.583 141.148 242.647 142.873 242.805C143.663 244.113 142.596 245.818 143.288 247.299C144.243 249.345 145.585 250.007 146.93 251.99C145.376 252.768 143.957 252.168 142.264 251.799C139.488 251.193 138.597 253.968 136.587 254.008C136.189 252.797 136.507 250.828 136.179 248.907L136.116 248.546C135.168 247.361 133.779 246.038 132.68 244.708Z" fill="#05210B"/>
<path d="M137.457 247.064L140.192 246.627C141.348 247.139 141.493 248.168 142.055 249.511C140.612 249.586 139.783 250.225 138.61 249.81C138.009 248.82 137.828 248.147 137.457 247.064Z" fill="#F7FCF8"/>
<path d="M254.437 61.2831C254.965 61.0027 255.058 61.0306 255.662 60.8858C257.662 61.5733 262.688 65.8077 263.695 67.7807C262.904 68.4139 263.339 68.2452 262.357 68.3375C260.185 67.4997 255.569 63.2883 254.437 61.2831Z" fill="#05210B"/>
<path d="M249.02 75.9011C250.504 74.2251 257.961 75.4195 259.41 77.018L258.679 77.7044C256.399 78.3578 250.653 77.7276 249.02 75.9011Z" fill="#05210B"/>
<path d="M268.238 54.1123C269.182 53.5455 268.697 53.6409 269.724 53.7224C271.295 55.0713 271.822 59.6279 272.068 61.6917C271.694 62.1753 271.819 61.9787 271.124 62.2695L270.514 61.9649C269.283 60.1646 268.675 56.3529 268.238 54.1123Z" fill="#05210B"/>
</g>
<defs>
<clipPath id="clip0_1_1190">
<rect width="390" height="289" fill="white"/>
</clipPath>
</defs>
</svg>
