<svg width="390" height="289" viewBox="0 0 390 289" fill="none" xmlns="http://www.w3.org/2000/svg">
<rect width="390" height="289" fill="#F7FBFF"/>
<path d="M133.795 205.513C132.728 204.842 131.596 204.186 130.614 203.405C127.726 201.072 125.717 197.827 124.917 194.201C124.191 190.923 124.72 186.926 126.575 184.09C126.931 183.547 127.023 183.448 127.575 183.103L127.618 182.938C127.093 182.489 126.676 182.452 126.073 182.127C125.467 181.799 124.872 181.298 124.315 180.955C120.946 178.875 118.214 173.129 118.044 169.231C117.887 165.639 118.172 160.327 118.556 156.664C118.659 155.681 119.141 154.011 119.328 152.931C119.497 151.956 119.886 150.612 120.233 149.643C120.153 149.529 120.073 149.416 119.993 149.303C120.127 149.152 120.457 149.05 120.416 149.129C121.084 147.848 121.488 146.089 122.128 144.846C127.093 135.203 134.656 126.227 144.117 120.763C145.65 119.877 150.021 118.023 151.699 117.571L151.867 117.768C152.111 117.704 152.101 117.704 152.295 117.567C153.165 116.953 154.801 116.737 155.841 116.534C165.999 114.555 176.648 115.307 186.704 117.538C187.587 117.734 188.594 118.054 189.481 118.143C189.381 117.216 188.605 115.93 188.431 114.877C186.218 101.469 197.841 96.5018 208.773 95.247C231.383 92.6516 245.271 110.904 247.389 131.516C247.662 134.169 248.283 137.008 248.501 139.773C249.306 150.237 250.847 160.632 253.109 170.88C253.97 174.935 255.398 178.845 256.366 182.802C257.557 187.672 258.223 192.962 259.141 197.902C260.725 207.529 259.778 218.373 255.275 227.136C254.383 228.876 253.265 231.34 252.138 232.805C247.626 238.676 240.216 241.247 232.993 240.612C227.777 240.153 222.526 238.139 218.525 234.681C214.07 230.852 211.082 225.595 210.07 219.808C210.045 219.666 210.079 219.41 210.084 219.258C209.876 219.529 209.928 219.568 209.804 219.796C206.348 226.116 201.366 231.826 195.372 235.854C194.569 236.392 193.392 237.167 192.504 237.475C192.349 237.37 192.337 237.354 192.146 237.315C192.009 237.557 192.128 237.75 191.993 237.812C190.359 238.552 188.575 239.464 186.799 239.773C186.261 239.867 186.374 239.918 185.956 240.208C184.862 240.599 183.31 240.944 182.181 240.818C182.063 241.052 182.092 240.967 182.053 241.221C177.668 241.435 174.808 241.735 170.409 240.738C154.826 237.206 142.764 221.905 139.19 206.697C138.086 206.555 136.18 206.231 135.298 205.577L133.795 205.513Z" fill="#002A4F"/>
<path d="M135.556 203.834C132.054 202.092 129.382 199.038 128.119 195.336C126.839 191.514 127.406 185.26 131.873 183.841C133.33 183.378 135.083 183.377 136.566 183.667C136.758 184.169 136.643 188.151 136.72 189.007C136.985 191.982 137.002 194.872 137.422 197.854C137.631 199.336 137.788 200.564 138.101 202.021C138.251 202.725 139.199 206.325 139.19 206.697C138.086 206.554 136.18 206.231 135.298 205.577C135.481 205.097 135.545 204.347 135.556 203.834Z" fill="#F7FBFF"/>
<path d="M173.45 142.206L173.54 142.287C173.542 142.626 172.84 144.374 172.687 144.945C170.863 151.76 174.188 160.536 178.945 165.482C179.448 165.306 179.907 165.091 180.393 164.874C180.316 164.677 180.245 164.478 180.179 164.277C179.811 163.163 179.7 161.806 179.484 160.643C178.406 154.82 179.27 148.603 181.964 143.275C182.187 145.517 182.327 147.934 182.658 150.159C182.913 151.96 183.522 153.753 183.882 155.517C184.613 159.094 186.125 161.983 188.069 165.057C191.704 170.807 197.312 175.241 203.721 177.502C205.3 178.06 206.805 178.488 208.456 178.776C208.801 178.881 208.94 179.503 209.097 179.789C209.64 180.832 211.224 179.938 212.048 179.65C217.216 177.85 221.783 180.08 224.155 184.909C225.502 187.652 225.526 190.278 224.592 193.185C222.739 198.952 217.066 201.982 212.005 204.52C211.393 205.846 210.786 208.899 210.2 210.446C209.795 211.963 208.916 213.3 208.334 214.707C208.202 215.741 207.753 216.197 207.284 217.061C204.585 222.03 201.316 226.749 196.883 230.33C196.528 230.618 196.254 231.177 195.906 231.42C194.001 232.731 192.035 233.952 190.017 235.08C189.009 235.557 183.742 237.968 182.963 237.775C182.232 237.593 179.984 238.159 179.063 238.243C175.374 238.579 170.697 238.162 167.221 236.799C164.866 235.876 162.582 234.86 160.439 233.503C152.734 228.627 147.278 220.699 143.731 212.448C141.585 207.457 140.071 201.503 139.525 196.093C139.222 193.096 139.21 190.158 139.257 187.153C139.302 184.32 139.395 181.49 139.833 178.685C140.575 174.072 141.844 169.559 143.615 165.234C147.75 154.984 153.981 146.766 164.322 142.339C160.423 145.745 158.202 152.919 159.24 157.925C159.421 158.8 159.558 160.675 160.481 161.042C160.584 161.002 160.687 160.963 160.789 160.923C161.214 159.992 161.686 157.974 162.02 157.089C163.229 153.889 164.679 150.825 166.504 147.964C168.632 144.627 170.402 144.144 173.45 142.206Z" fill="#F7FBFF"/>
<path d="M171.686 182.918C172.013 182.88 172.36 182.833 172.592 183.108C173.78 184.521 174.439 187.644 174.626 189.355C175.139 194.059 173.816 198.664 171.462 202.689C170.67 204.045 169.408 205.398 168.419 206.614C168.997 208.029 171.15 210.622 170.767 211.936C170.464 212.219 170.59 212.133 170.084 212.17L169.766 211.947C168.938 211.972 166.409 206.794 166.009 205.875C166.561 204.995 167.274 204.447 167.974 203.702C169.612 201.958 170.507 200.216 171.291 198C173.295 192.334 172.964 189.066 170.518 183.829C170.956 183.383 171.171 183.255 171.686 182.918Z" fill="#002A4F"/>
<path d="M187.507 184.172C187.598 184.185 187.689 184.198 187.781 184.21C190.849 184.517 193.906 185.177 196.97 185.514C197.629 185.586 198.421 184.549 199.159 184.845L199.24 185.112C198.55 188.003 192.041 186.831 189.792 186.517C190.257 187.876 190.457 188.724 190.226 190.17C189.914 191.305 189.262 192.38 188.058 192.721C187.387 192.908 186.668 192.818 186.063 192.472C183.771 191.17 184.204 188.348 185.272 186.384C183.684 187.136 182.447 188.839 181.488 188.985C181.003 188.708 181.343 188.182 181.589 187.782C183.032 185.432 184.97 184.827 187.507 184.172Z" fill="#002A4F"/>
<path d="M159.757 184.82C161.722 184.664 167.24 187.7 165.986 189.559C165.14 189.711 163.856 187.468 162.436 187.2C162.334 187.551 162.958 189.054 162.78 190.108C162.263 193.149 159.191 194.651 157.251 191.685C156.596 190.014 156.73 188.667 157.547 187.094C155.399 187.448 151.966 187.93 149.867 187.323C149.149 187.114 148.119 186.214 148.442 185.354L148.702 185.28C149.099 185.397 149.164 185.534 149.43 185.853L149.521 185.965C152.647 186.371 156.385 184.869 159.757 184.82Z" fill="#002A4F"/>
<path d="M181.037 217.048C184.439 217.413 179.993 223.051 175.196 222.78C173.298 222.659 171.521 221.805 170.239 220.4C169.872 219.947 168.164 217.6 169.769 217.261C171.013 216.999 172.67 219.205 174.078 219.725C177.152 220.86 178.403 218.219 181.037 217.048Z" fill="#002A4F"/>
<path d="M155.329 173.334C155.755 173.288 157.516 173.397 157.811 173.503C158.791 173.854 158.401 174.865 158.366 175.606C158.371 175.483 158.683 176.018 158.74 176.16C157.813 176.888 154.427 177.364 153.096 177.608C150.91 178.033 151.364 178.084 149.563 177.106C149.516 176.318 149.503 176.175 149.276 175.407C151.758 173.718 152.386 173.746 155.329 173.334Z" fill="#002A4F"/>
<path d="M190.211 172.88C191.935 173.134 195.095 172.965 196.417 174.462C196.778 174.873 196.425 176.301 196.325 176.901C195.721 176.955 194.859 176.948 194.23 176.958C192.994 176.858 188.865 175.947 188.196 174.962C188.284 174.112 188.498 174.579 188.396 173.346C188.582 173.077 189.758 172.964 190.211 172.88Z" fill="#002A4F"/>
<path d="M198.916 120.718C200.192 120.891 200.769 121.56 199.997 122.811C199.405 123.771 198.78 123.952 197.745 124.153C194.977 123.688 196.403 121.161 198.916 120.718Z" fill="#F7FBFF"/>
<path d="M203.222 124.589L203.378 124.587C205.629 124.545 206.734 126.401 204.232 127.646C202.943 127.954 201.344 127.773 201.763 125.837C201.904 125.19 202.654 124.864 203.222 124.589Z" fill="#F7FBFF"/>
<path d="M193.424 118.178C194.079 118.195 194.907 118.357 195.178 118.998C195.767 120.396 194.627 121.13 193.696 121.621C190.998 121.594 191.36 119.157 193.424 118.178Z" fill="#F7FBFF"/>
<path d="M207.87 130.086C209.762 130.307 210 132.115 207.999 132.961C207.584 132.963 206.811 132.614 206.647 132.23C206.148 131.062 207.088 130.509 207.87 130.086Z" fill="#F7FBFF"/>
<path d="M66.2551 135.909C64.6877 132.475 65.1061 126.992 70.3833 130.057C71.0416 130.44 71.9802 131.906 72.4342 132.572C74.9752 131.346 77.3086 129.178 79.8699 130.814C80.4399 131.832 82.9366 135.99 83.1152 136.737C84.3605 138.802 85.5182 140.9 86.7036 142.997C92.3533 152.99 97.84 163.104 103.146 173.279C103.642 174.231 103.146 175.637 102.109 176.037C99.353 177.604 96.5781 179.124 93.8071 180.659L77.3916 189.701L66.1303 195.814C64.5412 196.674 58.9295 199.861 58.397 199.51C55.8908 197.855 48.7735 183.712 47.428 181.155C43.7795 174.222 40.5905 168.413 37.4224 161.995C36.3242 160.237 34.9769 157.214 34.1135 155.315C34.5931 152.42 36.8643 151.791 39.2391 150.587C36.5374 144.034 41.0445 140.919 45.4208 147.027C47.5198 146.11 50.5204 144.394 52.6474 143.255L66.2551 135.909Z" fill="#F7FBFF"/>
<path d="M66.2551 135.909C64.6877 132.475 65.1061 126.992 70.3833 130.057C71.0416 130.44 71.9802 131.906 72.4342 132.572C74.9752 131.346 77.3086 129.178 79.8699 130.814C80.4399 131.832 82.9366 135.99 83.1152 136.737C83.2248 137.274 83.4602 138.158 83.0892 138.557C81.812 139.93 78.8985 140.921 77.1513 141.874L51.6076 155.782C48.0852 157.732 44.2449 159.721 40.8466 161.877C40.195 162.291 40.1532 162.461 39.9349 163.075L39.8371 163.082C39.7026 162.961 37.7652 162.133 37.4224 161.995C36.3242 160.237 34.9769 157.214 34.1135 155.315C34.5931 152.42 36.8643 151.791 39.2391 150.587C36.5374 144.034 41.0445 140.919 45.4208 147.027C47.5198 146.11 50.5204 144.394 52.6474 143.255L66.2551 135.909Z" fill="#E89D01"/>
<path d="M66.2552 135.909C64.6878 132.475 65.1062 126.992 70.3834 130.057C71.0417 130.44 71.9803 131.906 72.4343 132.572C73.3646 134.425 73.8817 135.342 73.1744 137.425L72.2353 137.136C71.0867 137.07 70.989 137.269 70.2905 138.167C71.0352 138.527 71.1605 138.442 71.5651 139.075C71.3161 139.978 70.298 139.956 69.493 139.915C67.5583 138.926 67.139 137.781 66.2552 135.909Z" fill="#002A4F"/>
<path d="M68.0791 134.828C68.9286 134.416 69.7707 133.988 70.6051 133.547L72.2353 137.136C71.0867 137.07 70.9891 137.269 70.2905 138.167C69.2117 137.071 68.7671 136.194 68.0791 134.828Z" fill="#E89D01"/>
<path d="M68.0792 134.828C67.7197 133.834 67.0155 132.035 68.312 131.59C69.4227 131.831 69.9075 132.658 70.6052 133.547C69.7708 133.989 68.9287 134.416 68.0792 134.828Z" fill="#F7FBFF"/>
<path d="M39.2391 150.587C36.5374 144.034 41.0446 140.919 45.4209 147.027C46.4859 148.9 46.6618 149.515 47.0567 151.645C46.807 152.582 46.5062 153.327 45.5464 153.603L45.1412 153.376C44.7271 152.768 44.8556 152.148 44.8836 151.374C44.4461 150.027 44.1656 149.49 43.4961 148.224C42.8444 148.551 41.7334 149.066 41.1389 149.416C40.7142 150.511 40.374 150.35 39.2391 150.587Z" fill="#002A4F"/>
<path d="M41.1391 149.416C40.6613 148.523 40.3308 147.746 40.5384 146.715C40.9356 146.179 40.6805 146.346 41.3282 146.196C42.4995 146.491 42.8213 147.222 43.4963 148.223C42.8446 148.551 41.7336 149.065 41.1391 149.416Z" fill="#F7FBFF"/>
<path d="M70.2906 138.167C70.9891 137.269 71.0868 137.07 72.2354 137.135L73.1745 137.425C74.8865 139.104 71.9735 142.374 69.4931 139.915C70.2981 139.955 71.3162 139.978 71.5652 139.074C71.1606 138.441 71.0353 138.527 70.2906 138.167Z" fill="#F7FBFF"/>
<path d="M47.0567 151.645C49.262 157.488 39.2882 154.122 44.8837 151.374C44.8557 152.148 44.7272 152.768 45.1413 153.376L45.5465 153.603C46.5063 153.327 46.8071 152.582 47.0567 151.645Z" fill="#F7FBFF"/>
<path d="M39.935 163.074C40.1532 162.461 40.1951 162.291 40.8467 161.877C44.245 159.72 48.0853 157.731 51.6077 155.782L77.1514 141.874C78.8986 140.921 81.8121 139.929 83.0893 138.557C83.4603 138.158 83.2249 137.273 83.1153 136.736C84.3606 138.802 85.5183 140.9 86.7037 142.996C92.3534 152.989 97.8401 163.103 103.146 173.278C103.642 174.231 103.146 175.637 102.109 176.037C99.3531 177.604 96.5782 179.123 93.8072 180.659L77.3917 189.701L66.1304 195.814C64.5413 196.674 58.9296 199.861 58.3971 199.51C55.8909 197.855 48.7736 183.712 47.4281 181.155C43.7796 174.222 40.5906 168.413 37.4225 161.995C37.7653 162.133 39.7027 162.961 39.8372 163.082C40.1383 164.623 43.2013 169.737 44.1282 171.448C46.1409 175.224 48.1762 178.988 50.2339 182.739C53.2348 188.187 55.6592 192.224 57.7625 198.064C59.3944 196.468 70.7338 190.394 73.2704 188.999L100.812 173.874L90.2919 154.174C87.9111 149.724 85.1036 144.699 82.9373 140.179C80.2165 141.857 77.0541 143.514 74.2341 145.066C69.0283 147.945 63.8049 150.793 58.5642 153.608L47.7373 159.466C46.3851 160.194 41.1566 163.237 39.935 163.074Z" fill="#002A4F"/>
<path d="M53.7633 163.888C55.5196 163.528 56.7901 166.573 56.7278 167.908C56.7007 168.489 54.1854 169.683 53.4956 170.044C51.9489 170.462 50.6735 167.538 50.521 166.323C50.8866 165.258 52.6858 164.497 53.7633 163.888Z" fill="#002A4F"/>
<path d="M53.9074 165.559C54.3522 165.858 54.7003 166.754 54.9918 167.31L53.2495 168.317C52.7376 167.965 52.4006 167.133 52.0912 166.543L53.9074 165.559Z" fill="#F7FBFF"/>
<path d="M75.6376 163.299C76.1741 163.172 75.8974 163.171 76.4848 163.42C77.3039 164.415 78.3559 166.15 78.3523 167.477C77.8845 168.241 75.7824 169.184 74.877 169.652L74.2833 169.639C73.3519 168.982 71.8641 166.481 72.2313 165.277C72.8834 164.678 74.7707 163.759 75.6376 163.299Z" fill="#E89D01"/>
<path d="M71.4751 177.005C71.6857 176.946 72.3173 176.712 72.4365 176.831C76.3101 180.688 74.7625 181.321 71.7012 182.85C71.1551 183.063 71.103 183.117 70.5491 183.025C69.9295 182.57 69.5306 181.937 69.1216 181.298C67.4069 178.619 69.5399 178.104 71.4751 177.005Z" fill="#002A4F"/>
<path d="M71.7177 178.632L71.8198 178.624C72.2812 178.909 72.5853 179.714 72.8864 180.275L71.2339 181.238C70.7065 180.995 70.3463 180.121 69.9856 179.515L71.7177 178.632Z" fill="#F7FBFF"/>
<path d="M58.706 172.631C58.9001 172.626 59.2307 172.726 59.436 172.776C60.2343 173.482 61.7043 175.755 61.3891 176.824C61.1881 177.505 58.7012 178.603 58.0394 178.939C56.6017 179.219 55.3296 176.264 55.2251 175.057C55.6203 174.019 57.6201 173.208 58.706 172.631Z" fill="#002A4F"/>
<path d="M58.4111 174.551L58.6776 174.519C59.0204 174.889 59.5664 175.716 59.488 176.233L58.054 177.174L57.963 177.192C57.5528 177.023 57.0058 175.876 56.7428 175.415L58.4111 174.551Z" fill="#F7FBFF"/>
<path d="M67.0962 167.957C67.3323 167.911 67.5231 167.953 67.7746 167.975C68.692 168.539 70.26 171.12 69.9072 172.264C69.2434 172.931 67.5836 173.685 66.684 174.146C66.2897 174.278 66.3097 174.242 65.8815 174.259C64.8037 173.658 63.9689 171.389 63.4329 170.206C64.3425 169.512 66.062 168.566 67.0962 167.957Z" fill="#002A4F"/>
<path d="M66.9762 169.865C67.184 169.831 67.1328 169.863 67.3847 169.96C67.7106 170.688 67.9813 170.949 67.8816 171.632C67.42 171.915 66.9689 172.166 66.4968 172.429L66.2787 172.385C65.9195 171.686 65.5101 171.296 65.5261 170.669C65.9982 170.288 66.4293 170.122 66.9762 169.865Z" fill="#F7FBFF"/>
<path d="M79.1845 150.083C80.6115 149.628 82.2646 153.203 81.96 154.23C81.7871 154.812 79.4179 155.878 78.7533 156.213C78.2715 156.264 77.8478 156.346 77.5167 155.937C76.7175 154.948 75.7432 153.728 75.786 152.407C76.1491 151.461 78.2152 150.589 79.1845 150.083Z" fill="#002A4F"/>
<path d="M78.8051 152.035L79.1875 151.881C80.6515 152.95 79.7652 153.71 78.6844 154.325L78.4796 154.435C77.8068 153.985 77.6303 153.615 77.5858 152.857C77.9167 152.266 78.0743 152.35 78.8051 152.035Z" fill="#F7FBFF"/>
<path d="M79.9724 172.314C80.4473 172.14 80.4479 172.168 80.9287 172.239C81.656 172.764 82.0497 173.445 82.511 174.193C84.1245 176.809 81.8899 177.304 79.9556 178.293C79.5266 178.497 79.4951 178.457 79.0313 178.411C77.9248 177.715 76.6674 175.477 76.9997 174.14C77.5097 173.586 79.2294 172.724 79.9724 172.314Z" fill="#002A4F"/>
<path d="M80.2092 173.975C80.6082 174.174 81.0474 175.193 81.3184 175.684L79.4601 176.76L78.3502 174.91L80.2092 173.975Z" fill="#F7FBFF"/>
<path d="M63.0156 181.684C63.5142 181.498 63.519 181.458 64.0608 181.545C64.8636 182.149 66.5062 184.557 66.1184 185.636C65.8838 186.289 63.6675 187.295 62.9541 187.671C62.3969 187.895 62.6901 187.845 62.0343 187.737C61.3139 187.186 59.7394 184.727 60.0344 183.751C60.2347 183.089 62.3278 182.066 63.0156 181.684Z" fill="#002A4F"/>
<path d="M63.2543 183.31L63.5545 183.407L64.3723 185.001L62.7476 185.955C62.1735 185.626 61.8912 184.869 61.5077 184.206C62.0883 183.926 62.6801 183.608 63.2543 183.31Z" fill="#F7FBFF"/>
<path d="M88.7228 167.584C88.8842 167.575 89.202 167.653 89.3603 167.684C90.0211 168.215 91.8185 170.868 91.3908 171.776C91.0351 172.531 88.889 173.424 88.0443 173.836C86.6045 174.297 85.3935 171.207 85.248 170.108C85.5938 169.022 87.6048 168.199 88.7228 167.584Z" fill="#002A4F"/>
<path d="M88.4008 169.513C88.9298 169.564 88.7395 169.513 89.2014 169.956C89.6761 171.274 89.0141 171.47 88.0563 172.024L87.9867 172.069L87.7027 171.975C87.2327 171.262 87.1573 171.376 87.1099 170.575C87.4313 169.904 87.6646 169.938 88.4008 169.513Z" fill="#F7FBFF"/>
<path d="M83.7541 158.881C84.4096 158.71 84.1006 158.693 84.7155 158.891C85.6216 159.756 86.6385 161.555 86.6761 162.867C86.3227 163.794 84.3755 164.556 83.4291 165.022C83.0943 165.146 82.9705 165.097 82.6126 165.06C81.7304 164.456 80.1557 161.766 80.7269 160.756C80.9737 160.32 83.2229 159.169 83.7541 158.881Z" fill="#002A4F"/>
<path d="M83.9048 160.578C84.1812 160.78 84.7758 161.962 84.9892 162.345C84.3777 162.645 83.7316 163.061 83.1432 163.417L82.0648 161.565L83.9048 160.578Z" fill="#F7FBFF"/>
<path d="M71.1098 154.495C72.2822 154.724 73.5123 157.341 73.6508 158.464C73.204 159.548 71.2591 160.328 70.1312 160.923C68.6798 160.631 67.535 158.3 67.4722 156.934C67.7963 155.957 70.1072 155.007 71.1098 154.495Z" fill="#002A4F"/>
<path d="M70.5331 156.453L70.8347 156.376C71.431 156.718 71.6422 157.304 71.5937 157.959C71.2478 158.576 71.1212 158.497 70.4235 158.865C70.3221 158.965 70.2591 158.948 70.0799 158.996C69.4382 158.363 69.3408 158.18 69.3038 157.388C69.6524 156.77 69.8301 156.824 70.5331 156.453Z" fill="#F7FBFF"/>
<path d="M62.5063 159.171C63.8881 158.937 65.3589 162.263 65.1433 163.313C65.0103 163.96 62.5474 165.06 61.8738 165.406C61.6599 165.461 61.4588 165.454 61.2312 165.466C60.4619 164.984 58.7295 162.296 59.1277 161.374C59.4287 160.677 61.7282 159.593 62.5063 159.171Z" fill="#002A4F"/>
<path d="M62.1161 161.124L62.5039 161.038C63.1318 161.561 63.1913 161.811 63.1837 162.546C62.7863 163.221 62.6239 163.164 61.8882 163.587C61.7963 163.643 61.7217 163.591 61.5562 163.557C61.026 162.853 60.8742 162.882 60.7952 162.082C61.1505 161.446 61.3703 161.495 62.1161 161.124Z" fill="#F7FBFF"/>
<path d="M113.872 115.884C114.529 115.844 114.377 115.753 114.82 116.052L114.792 116.408C114.168 117.168 112.611 117.909 111.698 118.323C105.422 121.169 100.161 124.973 94.8527 129.344C94.1668 129.529 93.9415 129.637 93.5564 128.996C93.6655 127.97 95.4318 126.293 96.1973 125.634C101.292 121.247 107.435 117.829 113.872 115.884Z" fill="#002A4F"/>
<path d="M89.6896 92.2233C91.2123 91.7287 92.3403 92.8019 91.5483 94.0481C88.4927 98.8559 85.7178 103.773 82.8516 108.69C82.2878 109.153 82.541 109.071 81.8697 109.135C80.0437 107.511 88.126 94.344 89.6896 92.2233Z" fill="#002A4F"/>
<path d="M101.739 97.7013C102.415 97.4903 102.906 97.5284 103.546 97.814C104.006 98.6792 103.408 99.7768 102.761 100.358C99.1848 103.571 95.5071 107.893 91.8222 110.854C91.2452 111.259 91.0702 111.345 90.4448 111.137C89.3709 109.222 100.059 99.2355 101.739 97.7013Z" fill="#002A4F"/>
<path d="M41.4647 188.02C41.8156 188.024 41.8515 188.086 42.1719 188.251C42.5668 189.412 41.7341 190.797 41.3788 191.999C40.7758 194.053 40.2897 196.139 39.9228 198.248C39.357 201.535 39.174 205.01 39.2144 208.346C39.2363 210.155 39.4996 212.194 39.4156 213.966L39.4054 214.155L39.0447 214.199C38.5297 213.887 38.3559 213.644 38.2282 212.962C36.7816 205.235 37.5427 194.78 41.4647 188.02Z" fill="#002A4F"/>
<path d="M79.4772 223.06C80.0311 222.971 80.4191 222.913 80.7487 223.404L80.6251 223.834C79.4164 225.311 68.7738 230.933 66.4404 231.919C65.7492 231.821 65.5519 231.802 65.0666 231.341C64.7855 230.324 65.4332 229.669 66.2783 229.194C70.315 226.926 75.1996 224.645 79.4772 223.06Z" fill="#002A4F"/>
<path d="M85.462 232.403C85.9028 232.619 85.8699 232.607 86.1473 233.017C86.2703 234.447 78.0095 243.586 76.7097 245.448C76.5877 245.622 75.6368 245.734 75.3677 245.772C74.9866 245.47 74.1722 244.799 74.5351 244.253C76.8429 240.787 82.1109 234.617 85.462 232.403Z" fill="#002A4F"/>
<path d="M332.591 151.732C336.103 150.949 339.781 151.61 342.802 153.567C345.942 155.584 348.129 158.791 348.86 162.451C350.7 171.405 344.708 179.261 340.326 186.493C337.913 190.476 335.135 194.357 332.623 198.286C333.798 199.15 335.515 200.335 336.57 201.273C336.173 201.764 335.774 202.31 335.32 202.736C333.884 201.977 332.709 201.081 331.399 200.134C329.273 203.121 327.911 205.204 324.803 207.249C313.883 214.427 299.414 205.131 301.244 192.242C301.748 188.685 303.131 186.292 304.97 183.315C303.461 182.322 302.438 181.652 301.044 180.474C301.106 180.312 301.312 179.98 301.532 179.644L302.1 178.794C303.716 179.72 304.72 180.339 306.262 181.423C312.072 172.384 321.824 154.1 332.591 151.732Z" fill="#002A4F"/>
<path d="M301.896 213.16C299.931 211.689 298.189 209.944 296.721 207.978C293.187 203.223 291.745 197.232 292.729 191.389C292.936 190.098 293.811 186.562 294.485 185.468C295.731 183.435 298.807 176.746 301.488 177.245C302.102 177.933 301.91 177.74 302.1 178.795C301.869 179.143 301.167 180.151 301.044 180.475C299.746 182.486 298.49 184.344 297.489 186.568C290.53 202.043 305.273 217.815 321.18 214.388C327.33 213.063 331.698 208.711 334.927 203.437C335.065 203.208 335.197 202.974 335.32 202.736C335.774 202.31 336.173 201.764 336.57 201.273C337.278 200.998 337.318 200.953 338.04 201.082C340.246 203.131 333.433 211.173 331.702 212.686C327.172 216.712 321.198 218.723 315.153 218.254C312.433 218.051 307.317 216.882 305.248 215.07L305.039 214.744C303.948 214.291 302.638 213.346 301.896 213.16Z" fill="#E89D01"/>
<path d="M336.308 154.107C337.886 154.251 339.412 154.748 340.772 155.563C354.597 163.722 340.05 181.289 334.77 189.931C327.883 185.471 319.084 181.023 312.847 176.414C312.833 175.689 317.576 168.31 318.542 167.427C323.777 161.157 326.496 153.875 336.308 154.107Z" fill="#F7FBFF"/>
<path d="M311.665 177.843C316.376 180.95 328.466 187.72 333.248 192.073C332.565 194.365 325.713 203.423 323.376 204.928C322.086 205.704 320.374 206.38 318.899 206.666C315.593 207.327 312.16 206.623 309.381 204.714C304.999 201.728 302.914 196.591 303.953 191.388C304.527 188.51 306.227 186.256 307.765 183.841C309.03 181.819 310.329 179.819 311.665 177.843Z" fill="#F7FBFF"/>
<path d="M273.073 106.343C288.695 109.635 306.833 122.829 314.727 136.717C315.214 137.573 316.086 138.873 315.591 139.801C315.062 139.768 315.23 139.781 314.734 139.365C307.55 127.78 295.354 117.95 283.06 112.287C281.089 111.396 279.087 110.572 277.061 109.819C275.743 109.335 271.561 108.19 271.292 106.963L271.524 106.604C272.123 106.241 272.332 106.318 273.073 106.343Z" fill="#002A4F"/>
<path d="M301.896 213.16C302.638 213.346 303.948 214.291 305.039 214.744L305.248 215.071C303.027 218.941 299.563 224.032 297.055 227.871C299.1 229.132 304.603 231.786 304.285 234.32C303.853 235.08 302.894 235.931 302.004 235.395C296.409 232.027 290.94 228.394 285.378 224.958C284.533 224.619 283.761 223.19 284.23 222.334C285.605 219.826 291.907 224.679 293.578 225.736C296.318 221.523 299.091 217.331 301.896 213.16Z" fill="#002A4F"/>
<path d="M310.703 244.398C311.417 244.787 311.319 244.801 311.442 245.492C306.102 263.248 279.898 267.705 264.067 265.4C263.662 265.037 263.765 265.117 263.465 264.644L263.59 264.22C264.714 263.578 271.941 263.595 273.817 263.495C284.49 262.918 296.926 260.268 304.656 252.311C306.022 250.902 307.259 249.377 308.36 247.756C309.132 246.607 309.74 245.408 310.703 244.398Z" fill="#002A4F"/>
<path d="M296.369 150.582C298.377 151.835 302.265 160.072 301.918 162.291C301.389 162.957 301.689 162.768 300.731 162.915C299.355 161.251 294.377 153.424 294.829 151.619C295.298 150.929 295.552 150.914 296.369 150.582Z" fill="#002A4F"/>
<path d="M371.855 173.508C369.549 174.042 360.975 170.967 359.652 169.152C359.555 168.307 359.476 168.653 360.05 167.872C362.199 168.075 371.254 170.09 372.211 171.686C372.367 172.505 372.198 172.695 371.855 173.508Z" fill="#E89D01"/>
<path d="M288.684 160.986C290.414 161.379 296.964 165.105 297.247 166.929C296.892 167.645 297.091 167.402 296.278 167.807C294.139 167.009 287.44 164.849 287.419 162.29C287.734 161.535 287.968 161.471 288.684 160.986Z" fill="#002A4F"/>
<path d="M369.932 160.717C368.432 161.663 361.165 163.66 359.675 162.57C359.42 161.812 359.451 162.125 359.74 161.264C361.817 160.316 368.081 157.106 369.905 158.9C370.216 159.657 370.096 159.868 369.932 160.717Z" fill="#E89D01"/>
</svg>
