<svg width="177" height="167" viewBox="0 0 177 167" fill="none" xmlns="http://www.w3.org/2000/svg">
<path d="M90.7893 5.89348C91.9802 5.94131 96.216 6.93231 96.5778 8.11899C96.5529 8.19528 96.528 8.27157 96.5031 8.34786C95.6031 8.78965 95.0379 8.95575 94.2639 9.59579L94.1415 9.6985C97.2927 8.91071 100.404 8.97361 102.89 11.2715C104.917 13.1459 105.798 14.3465 108.637 14.9911C109.321 15.1464 110.016 15.3827 110.737 15.4044C110.857 15.2756 110.959 15.1474 111.062 15.0045C112.721 14.4364 115.412 18.9169 116.159 19.9578C116.156 19.7427 116.162 19.5274 116.175 19.3126C116.211 18.8138 116.358 17.6207 116.738 17.2957C117.318 17.2592 117.793 18.134 118.018 18.5931C119.116 20.824 121.245 21.7607 123.076 23.2276C125.368 25.0642 126.868 27.8513 127.48 30.6957C127.682 31.6364 127.723 32.5588 127.991 33.4831C128.469 33.0322 128.315 31.3102 128.715 30.7208C129.246 30.7747 129.655 31.2714 129.868 31.7369C131.014 34.2473 131.047 36.4648 130.19 39.0551C131.687 39.5177 132.78 40.0522 133.9 41.1873C134.478 41.7734 136.074 44.0906 135.277 44.6751C135.059 44.6379 133.618 43.6887 133.248 43.4764C134.241 45.294 134.826 46.3497 135.211 48.447C135.781 51.5517 134.832 53.9396 134.525 56.9369C134.409 58.0709 135.056 60.9816 134.398 61.9183C134.069 61.9761 134.094 61.8977 133.717 61.6761L133.611 61.7083C133.325 62.8772 133.163 64.1271 132.824 65.2666C132.346 66.8781 131.742 68.5295 131.177 70.1148C129.857 73.9201 128.36 77.6618 126.692 81.3277C134.659 83.0079 130.476 93.3581 127.737 97.8024C124.995 102.253 119.757 108.927 113.924 105.294C111.755 110.018 108.552 115.126 104.495 118.508C99.7972 122.424 94.1924 125.655 88.4334 127.69C86.8647 128.244 84.8436 129.123 83.1906 129.254C79.2679 130.609 74.0841 130.781 69.9876 130.232C58.2172 128.657 51.5173 121.194 47.2615 110.637C43.369 100.979 42.8419 94.0789 44.7097 84.0318C42.0644 80.21 42.0776 66.5662 46.2295 63.2749C47.1024 62.5829 48.0737 62.5301 49.1338 62.7195C49.1789 62.3688 49.3841 61.1133 49.3279 60.7656C48.9838 58.6405 47.5221 56.3485 49.0146 54.2798C49.4778 53.6376 50.398 53.5773 51.154 53.5244C51.6129 51.2631 51.9395 48.9962 52.4474 46.7234C52.9463 44.4909 53.4475 42.3899 54.0598 40.1842C54.3832 39.0196 54.19 37.842 54.7362 36.5291C55.438 34.8419 56.0687 33.8295 57.249 32.4583C56.9448 31.2996 56.7538 30.293 56.7792 29.0891C56.8396 26.681 57.8645 24.3979 59.6237 22.7521C60.0477 22.3569 60.5814 21.8746 61.1753 21.8915C61.4742 22.1122 61.396 22.2627 61.4757 22.7629C61.7785 23.169 62.2186 23.3992 62.6522 23.6798C61.5259 18.8644 63.2423 14.0108 68.0305 11.9075C68.5183 11.6932 69.0601 11.5068 69.5886 11.6436C69.8309 11.9242 69.675 12.0897 69.4279 12.5587C68.4461 14.4226 68.367 15.2837 68.5481 17.349C69.2105 14.9962 69.6829 13.4944 71.2131 11.5002C73.2219 8.88242 76.0897 6.98768 79.4014 6.58291C80.3507 6.46686 82.2898 6.36838 83.062 6.95595C83.2161 7.3703 83.043 7.46323 82.5796 7.80502C81.0236 8.95276 80.3877 10.3025 79.8262 12.1264C80.6438 10.9465 81.2087 10.0587 82.28 9.06229C84.5855 6.92201 87.6454 5.7826 90.7893 5.89348Z" fill="black"/>
<path d="M53.4875 53.5713C53.5955 53.135 53.7431 52.696 53.8699 52.2816C55.046 48.4367 56.9034 45.1597 59.3723 42.0069C59.6802 41.6136 60.0387 40.317 60.2951 39.7811C60.6611 38.9416 61.1182 38.0857 61.5922 37.3075C66.0661 29.964 74.2647 26.1697 82.6979 26.0708C83.4266 26.0623 86.2037 26.4123 86.682 26.1679C86.478 25.9238 86.376 25.8174 86.2227 25.5311C87.1813 25.5362 92.1499 28.8776 92.7775 27.6672C92.7569 27.2121 92.473 26.8701 92.2231 26.4668C95.0684 28.4857 96.6781 29.2815 100.031 29.8569C100.998 30.0229 104.013 31.5369 104.95 32.0619C106.745 33.0759 108.455 34.2332 110.063 35.5225C113.336 38.1454 114.115 39.4733 118.172 41.0428C117.375 45.6957 120.084 46.9904 120.99 51.2407C121.536 53.8015 120.381 56.016 120.294 58.3898C120.242 59.7926 121.37 62.2346 121.696 63.7921C122.648 68.3401 121.81 72.5133 121.089 76.9987C120.299 76.1168 117.311 72.337 116.596 72.1282C116.312 72.4366 115.9 73.4444 115.683 73.9042C116.068 74.473 116.971 75.4253 117.462 75.9706L120.656 79.5079L120.42 79.7326C119.665 81.5822 119.36 84.0673 118.638 85.955C116.98 90.301 115.267 94.6411 112.748 98.5713C112.046 99.6672 111.557 100.873 110.77 101.955L110.672 101.918L110.708 101.403C110.436 101.658 110.087 102.233 109.853 102.558C109.069 103.642 107.39 106.1 106.178 106.593C106.024 106.332 106.041 106.315 105.795 106.149C104.826 106.195 104.213 107.698 102.995 107.788C101.996 107.861 102.621 107.398 102.008 106.942C101.054 106.885 100.464 107.576 99.5905 107.904C99.198 108.051 98.8426 108.106 98.4336 108.174C98.5966 107.542 98.8023 107.145 98.291 106.649C97.1491 106.411 95.3478 109.165 93.8178 109.436C89.71 110.161 92.1379 104.25 92.3864 102.14C92.5179 101.056 92.4194 99.9572 92.0969 98.9153C91.1242 95.8744 87.2552 94.1492 84.7577 92.6335C82.3318 91.1608 80.2889 89.0034 77.6845 87.8223C76.488 87.2808 75.3005 87.7996 74.0812 87.5215C72.8181 87.1504 72.127 86.2111 70.6519 86.3282C68.4558 86.5036 66.3703 87.4226 64.2169 87.8174C62.5989 88.1136 60.9466 88.1822 59.3588 88.7252C57.1131 89.5104 55.3007 91.2717 54.677 93.6539C54.3532 94.8907 54.0384 98.7505 52.4089 99.3495C51.0743 99.4717 51.4444 97.7177 50.4659 97.18C49.9002 96.8695 50.4602 93.7669 49.3736 93.6978C48.991 93.9071 48.8819 94.1963 48.6573 94.5799C48.4516 94.0459 48.1531 92.9743 47.8495 92.5701L47.3761 92.5448C47.1587 92.3902 47.1619 91.9728 47.0439 91.5725C46.5873 91.2555 47.044 91.5997 46.4813 91.6049C44.5834 87.8026 48.723 74.1111 49.7231 69.6763C50.6563 72.6123 53.2996 74.1087 56.0803 74.9843C60.6039 76.4071 65.9209 77.9176 70.3875 75.7598C70.1728 76.1136 69.7255 76.7732 70.1234 77.1225C71.7376 76.8383 76.3576 68.8462 76.9669 67.0725C77.4444 64.9152 77.3176 63.4533 80.1801 63.8785C81.8277 64.1234 83.4167 64.5416 84.5235 65.9892C83.903 69.9455 83.6407 76.684 85.9726 80.1335C88.2596 83.5181 94.8351 85.2293 98.7694 86.034C106.165 87.5482 108.723 84.5889 111.759 78.1955C112.178 77.5508 112.83 75.1505 113.294 74.7001C114.376 73.6498 115.949 73.7758 116.274 71.7438C116.591 69.7594 114.055 68.8209 112.579 68.096C105.405 64.5712 97.0728 61.5638 88.9712 61.9938C87.5894 62.0677 86.6662 62.6395 85.6461 63.4481C85.0603 63.2631 83.9028 62.7084 83.2549 62.463C81.3392 61.7375 79.9587 61.6696 77.9745 61.6225C77.0218 59.992 76.1261 59.0148 74.4301 58.1621C67.9703 54.9145 60.5811 53.7801 53.4875 53.5713Z" fill="white"/>
<path d="M95.7211 54.9588C99.422 55.2459 105.475 58.0688 108.271 60.6337C109.156 61.4459 112.288 65.3537 110.978 66.4423C110.364 66.4775 108.474 65.0763 107.643 64.6308C105.182 63.2129 102.389 62.1413 99.6425 61.4114C97.4265 60.8224 95.1119 60.4342 92.9005 59.8039C92.7382 59.7578 92.4146 59.3507 92.2667 59.2289C91.8638 58.897 92.074 59.2357 91.5688 59.2899C89.8502 58.0218 91.4887 54.7013 93.8154 54.7557L93.9237 54.8699L93.6913 55.3021C94.0648 55.337 94.9274 54.9967 95.7211 54.9588Z" fill="black"/>
<path d="M69.042 49.2095C69.0762 49.2118 69.1104 49.2141 69.1446 49.2164L69.3151 49.2316C70.4476 49.3216 72.2732 49.8077 73.3895 50.201C73.5549 50.2592 74.3357 50.9948 74.6064 51.1793L74.8723 50.9831C75.2307 50.9943 75.1472 51.0322 75.4159 51.2869C76.4566 52.469 76.3834 55.5173 74.3444 55.5264C73.7585 55.5289 72.9785 55.3756 72.4116 55.239C70.1284 54.6889 67.8558 53.9426 65.5434 53.5197C64.0647 53.2697 62.4465 53.1314 60.9391 53.1048C60.0921 53.0899 58.868 53.4657 58.0269 53.2706C57.7823 52.9649 57.8659 53.1359 57.7977 52.7249C58.0127 51.9916 58.6413 51.3952 59.2332 50.9404C62.1461 48.7017 65.5926 48.771 69.042 49.2095Z" fill="black"/>
<path d="M69.2635 80.1095C69.9238 80.4071 70.4586 81.783 70.9803 82.4058C71.4265 82.9368 71.8772 83.5031 72.3339 84.0389C72.7759 84.5577 73.3497 84.9491 72.6477 85.512C72.0957 85.5923 72.3241 85.6083 71.7666 85.4018C71.1831 84.9218 70.5255 84.1807 69.8876 83.6176C69.0563 83.6851 68.446 83.6972 67.8383 82.9704C67.4908 82.5549 67.8657 81.7767 68.3151 81.55C69.1434 81.1322 68.5919 80.8501 69.2635 80.1095Z" fill="black"/>
<path d="M79.513 84.0652L79.6847 84.0867C80.8477 84.2342 82.9556 84.916 82.6823 86.4354C81.999 87.3564 81.038 86.5828 80.3372 86.1226C78.7413 85.4557 78.0559 86.1993 76.7324 85.5084C76.5931 85.4356 76.6241 85.3589 76.6052 85.1862C77.2124 84.2131 78.483 84.1068 79.513 84.0652Z" fill="black"/>
<path d="M72.4006 93.0473C73.2738 93.239 73.75 94.066 74.7141 94.4756C76.6636 95.3056 78.5262 96.4063 80.4469 97.3395C82.3654 98.2723 84.2292 99.1282 86.1822 99.9839C87.1504 100.408 87.7609 100.906 88.0794 101.966C88.796 104.357 87.9895 107.093 86.9941 109.288C86.8306 109.664 86.4892 109.903 86.2655 110.236C85.8376 110.874 85.3814 112.649 84.6014 112.919C84.4993 112.774 84.4467 112.684 84.3561 112.533C83.3777 112.702 82.3701 115.14 81.0526 114.946C80.8756 114.726 80.8296 114.674 80.6202 114.486C79.9959 114.403 79.2357 115.287 78.6422 115.512C78.3399 115.626 78.1086 115.67 77.7948 115.733C76.6264 114.598 76.4833 114.453 75.0793 115.357C73.8589 114.727 73.4079 114.052 72.4287 113.118C70.9953 107.954 77.3803 110.276 76.5436 105.839C76.4811 105.508 76.043 105.297 75.7309 105.17C75.0094 104.985 74.1691 104.857 73.4189 104.721C71.2612 104.328 69.1119 103.866 67.0731 103.037C65.6015 102.438 64.3217 102.042 64.0838 104.114C63.9031 105.688 64.9458 106.661 65.6389 107.907C65.7214 108.056 65.8363 108.912 65.8674 109.133C64.984 111.06 63.7722 111.901 61.5951 111.818C61.2721 110.206 60.9072 110.462 59.4958 110.86C58.3869 109.548 58.5893 108.167 57.7695 107.705C57.6398 107.71 57.4846 107.725 57.3535 107.713C56.2083 107.602 57.1389 103.493 56.4609 102.771L56.0901 102.805C55.6794 101.443 57.0726 97.1116 57.8828 95.8321C59.4838 93.3034 60.6468 94.1453 62.9294 93.8583C65.9789 93.4745 69.4963 93.7405 72.4006 93.0473Z" fill="white"/>
<path d="M61.0546 94.292C61.7262 94.4699 62.711 95.1824 63.656 95.3951C65.2418 95.7525 66.8108 95.9301 68.3897 96.2958C69.4237 96.4497 70.776 97.2112 71.7619 97.3562C75.7466 97.9429 79.4722 99.4009 83.4299 100.042C84.2443 100.174 85.045 100.054 85.8343 100.238C86.0848 100.295 86.1596 100.492 86.2333 100.684C86.1006 101.103 86.21 100.912 85.8243 101.231C84.8422 101.488 83.822 101.559 82.8143 101.444C80.5062 101.203 78.4264 100.509 76.1921 100.031C73.2067 99.3927 70.3852 98.8027 67.4811 97.8338C65.9938 97.3384 61.2192 96.738 60.6987 95.0397C60.7183 94.6418 60.7992 94.5952 61.0546 94.292Z" fill="black"/>
<path d="M94.0448 63.7188C98.9573 64.3361 107.086 66.6053 111.008 69.585C113.989 71.8495 108.984 81.2252 106.852 83.1862C105.444 84.481 104.315 84.9338 102.383 84.9121C102.08 84.9164 101.491 84.8975 101.172 84.8605C97.078 84.3849 90.2007 82.7976 87.3989 79.6627C86.4714 78.5605 85.6297 75.8362 85.8939 74.4954C86.2919 72.4649 86.8187 71.4433 85.9416 69.4418C85.81 69.1421 85.8806 68.2985 85.9115 67.9007C86.3053 62.7279 90.1872 63.2873 94.0448 63.7188Z" fill="white"/>
<path d="M95.4703 66.5496C98.2618 66.6507 101.457 68.5135 103.156 70.6887C103.69 71.3722 104.983 73.2085 104.574 74.0737C104.5 74.1374 104.014 74.4429 103.931 74.3262C103.134 73.1971 99.6186 68.6976 98.1192 69.0767C98.3261 70.7933 97.9139 72.679 96.226 73.5106C95.5721 73.8362 94.8137 73.8826 94.1241 73.6396C93.381 73.3844 92.7814 72.8248 92.4766 72.101C91.9585 70.8769 92.2647 69.8202 92.754 68.6935C92.0783 69.1086 91.0198 70.109 90.2702 69.8938C89.8869 69.3438 90.5193 68.5626 90.9269 68.1798C92.2601 66.9259 93.691 66.5488 95.4703 66.5496Z" fill="black"/>
<path d="M59.0721 55.5402C63.8203 55.9327 70.435 57.6472 74.5716 60.0903C78.5058 62.4139 73.7837 69.2682 72.1006 71.8854C70.801 73.9061 69.1485 74.9969 66.6993 75.3606C66.2836 75.3906 65.8663 75.4026 65.4494 75.3938C61.9451 75.3122 54.5905 73.7524 52.0821 71.131C50.1222 69.0816 50.5347 63.5781 50.9611 60.9928C51.2101 59.4822 51.5406 57.159 52.8088 56.1006C54.3542 54.9159 57.2502 55.384 59.0721 55.5402Z" fill="white"/>
<path d="M63.751 59.108C67.0458 59.4139 70.1661 60.9328 71.6651 64.0789C71.8722 64.5137 72.1369 65.2493 71.9535 65.7036C71.6645 65.8067 71.3214 65.709 71.1454 65.4859C69.574 63.4953 68.7476 62.3117 66.245 61.4018C66.4633 62.6437 66.446 63.09 66.0695 64.2409C65.6053 65.0705 65.1786 65.7558 64.266 66.1634C63.6312 66.4507 62.9039 66.453 62.2672 66.1699C60.2885 65.284 60.4176 63.0181 61.1595 61.3263C60.3874 61.8391 58.8537 63.5184 58.1255 63.0191C57.914 62.3343 58.3922 61.6272 58.8499 61.1423C60.2186 59.6927 61.8015 59.2027 63.751 59.108Z" fill="black"/>
<path d="M126.28 83.0503C131.771 83.3552 129.282 91.3023 127.805 94.1685C125.792 98.0747 122.832 103.002 118.491 104.52C116.812 104.903 115.872 104.832 114.693 103.468C115.656 101.1 116.433 98.4211 117.445 96.1228C119.642 91.131 119.48 83.6058 126.28 83.0503Z" fill="white"/>
<path d="M126.91 86.6945C127.465 86.8703 127.661 87.0529 127.75 87.6204C127.444 88.3771 126.436 88.3512 125.501 88.7861C123.789 89.5814 122.05 92.9632 121.172 93.528C119.832 93.3519 120.365 92.1835 120.848 91.4416C122.26 89.2709 124.193 87.0411 126.91 86.6945Z" fill="black"/>
<path d="M47.9617 64.2665C48.3312 64.2788 48.7152 64.3524 48.9971 64.5985C49.2451 65.2324 48.6778 67.5806 48.4735 68.3345C47.3366 72.5291 46.3609 76.7699 45.2958 80.9783L45.1898 80.9654L45.0957 80.6475C44.7539 79.0494 44.4462 76.7174 44.5136 75.105C44.6351 72.1974 44.7957 65.3763 47.9617 64.2665Z" fill="white"/>
<path d="M120.656 79.5077C121.43 80.3122 122.007 80.8683 122.648 81.8032C121.706 81.1184 121.157 80.3083 120.42 79.7324L120.656 79.5077Z" fill="white"/>
<path d="M13.4556 112.291C14.4083 111.322 21.5288 104.876 22.2364 104.749C22.4805 104.706 22.719 104.738 22.9031 104.917C23.1563 105.163 23.1922 105.521 23.2309 105.851C22.4831 106.687 15.2448 113.149 14.5597 113.448C13.6671 113.408 13.5957 113.114 13.4556 112.291Z" fill="#E89D01"/>
<path d="M158.948 30.6836C159.648 30.7669 160.016 30.928 160.055 31.6888C159.635 32.5818 154.277 38.8302 153.355 39.7567C153.039 39.7609 152.724 39.7632 152.469 39.5359C152.252 39.3426 152.195 39.1232 152.216 38.8403C152.267 38.1686 158.003 31.4613 158.948 30.6836Z" fill="#E89D01"/>
<path d="M9.60935 100.478C9.68285 100.322 9.88746 99.888 9.99829 99.8506C11.147 99.4633 19.132 97.5028 19.8671 97.6874C20.2248 97.9006 20.2664 98.1134 20.437 98.4983C20.3478 98.7103 20.1957 99.1088 19.9514 99.176C16.9562 99.9995 13.8846 100.651 10.847 101.315C10.0781 101.483 9.88757 101.081 9.60935 100.478Z" fill="#E89D01"/>
<path d="M168.544 41.6099C168.969 41.7404 169.037 41.7798 169.31 42.0926C169.372 42.352 169.428 42.4933 169.286 42.7454C168.768 43.6639 162.738 45.887 161.373 46.4522C160.963 46.3177 160.774 46.1604 160.584 45.7921C160.582 45.5972 160.552 45.4766 160.642 45.2975C161.105 44.3717 167.292 41.9851 168.544 41.6099Z" fill="#E89D01"/>
<path d="M15.1304 26.7454C15.311 26.7465 15.4994 26.7442 15.6748 26.7888C16.1715 26.9145 16.5016 27.2861 16.7012 27.7427C16.9819 28.3829 17.0337 29.1468 17.1551 29.8333C17.4897 31.7178 18.0202 33.569 19.0945 35.1754C21.3552 38.5547 26.5192 39.0702 27.6386 41.0637C27.8928 41.5171 27.8764 42.0786 27.7175 42.5631C27.2592 43.9582 25.3345 44.4409 24.1589 45.0881C23.496 45.4529 22.843 45.8973 22.234 46.3469C19.2932 48.5185 17.1501 51.4832 15.7009 54.8162C15.3267 55.6773 15.158 56.6709 14.7028 57.4853C14.4417 57.953 14.1457 58.1772 13.6741 58.4171C12.9498 58.4081 12.3761 58.2103 12.076 57.4836C11.6864 56.5404 11.6304 55.452 11.351 54.4642C10.8768 52.7889 10.2519 51.1907 9.42442 49.6584C8.40595 47.7567 7.06528 46.0475 5.46169 44.6053C4.91842 44.1256 4.29507 43.6641 3.69369 43.2516C2.90134 42.7084 1.79491 42.3736 1.33216 41.4599C1.11129 41.0232 1.09068 40.6361 1.23913 40.1823C1.35592 39.8235 1.72708 39.3586 2.05957 39.2065C3.74492 38.4352 5.35283 38.291 7.10173 37.4627C10.2682 35.9638 11.989 33.5984 13.1515 30.352C13.4267 29.5839 13.6169 28.8515 13.8764 28.0895C14.136 27.3276 14.4263 27.063 15.1304 26.7454Z" fill="#005BAB"/>
<path d="M15.2888 27.9979C15.4938 28.0785 15.6195 28.1326 15.6699 28.3622C15.7747 28.84 15.8412 29.3302 15.9227 29.8134C16.0516 30.5814 16.2146 31.3432 16.4118 32.0964C17.8649 37.4432 21.1343 38.8927 25.7625 40.9298C26.384 41.2036 26.9752 42.0394 26.2417 42.5886C25.3804 43.2722 24.1562 43.5962 23.2474 44.1787C19.3116 46.7012 16.237 50.1206 14.5169 54.5084C14.2202 55.2661 13.8916 56.598 13.4725 57.1614L13.3025 57.0948C12.9847 56.7565 12.9758 56.2967 12.9 55.889C11.7793 49.8692 8.23722 44.1388 2.73157 41.2305C2.5542 41.1366 2.43611 40.8899 2.37579 40.6945C2.43291 40.3807 2.64527 40.2847 2.96635 40.177C5.16109 39.4454 7.37893 38.9733 9.34154 37.6428C11.7413 36.0157 13.3757 33.5123 14.3089 30.7944C14.6087 29.9229 14.8011 28.7722 15.2888 27.9979Z" fill="white"/>
<path opacity="0.5" d="M23.4943 51.4437C24.1295 51.7062 24.0871 52.7106 24.2755 53.3685C24.6554 54.6938 25.424 54.7142 26.4843 55.336C26.6743 55.4475 26.7688 55.499 26.828 55.7104C26.0967 56.2727 24.8684 56.0308 24.1715 57.2062C23.7449 57.9268 23.6761 58.6639 23.3066 59.2283C23.2429 59.2202 22.9938 59.1682 22.9766 59.1387C22.5967 58.4847 22.6544 57.4576 22.1976 56.7387C21.7007 55.9574 20.4001 55.7558 19.9347 55.1993L19.9802 55.0692C20.7667 54.5627 21.6476 54.746 22.3458 53.9718C23.0836 53.1535 23.0364 52.3436 23.4943 51.4437Z" fill="#005BAB"/>
<path opacity="0.5" d="M4.22078 54.6995C4.60627 54.6015 5.01395 54.7193 5.28776 55.0064C5.56234 55.2935 5.66081 55.7066 5.54568 56.0861C5.42975 56.4664 5.11869 56.7547 4.73093 56.8411C4.14344 56.9722 3.56032 56.6068 3.42062 56.0218C3.28098 55.436 3.6375 54.8477 4.22078 54.6995Z" fill="#005BAB"/>
<path opacity="0.5" d="M2.78753 31.648C3.05014 31.5901 3.32266 31.6806 3.49879 31.8838C3.67416 32.087 3.72474 32.3703 3.62973 32.6216C3.53473 32.8729 3.30913 33.0518 3.04264 33.0877C2.65411 33.14 2.29298 32.8765 2.22485 32.4904C2.15595 32.1042 2.40448 31.7326 2.78753 31.648Z" fill="#005BAB"/>
<path opacity="0.5" d="M21.7586 23.0451C21.9477 23.0106 22.1404 23.0817 22.262 23.2308C22.3836 23.38 22.4143 23.5834 22.3426 23.7619C22.2708 23.9403 22.107 24.0654 21.9164 24.0885C21.6332 24.1226 21.374 23.9255 21.331 23.6434C21.2888 23.3613 21.4781 23.0963 21.7586 23.0451Z" fill="#005BAB"/>
<path opacity="0.3" d="M159.741 129.225C160.313 129.716 160.577 130.304 160.682 131.046C160.823 132.038 160.439 132.629 159.843 133.369C157.986 135.677 156.095 137.96 154.216 140.251C151.139 144.042 148.04 147.814 144.918 151.568L140.76 156.607C140.124 157.381 139.426 158.31 138.743 159.012C137.966 159.81 136.203 159.883 135.315 159.204C133.803 158.048 132.384 156.804 130.907 155.614L118.927 145.796C117.827 144.771 117.66 143.155 118.606 141.973C120.1 140.105 121.631 138.271 123.149 136.423L131.936 125.714L137.308 119.143C137.899 118.424 139.329 116.6 139.926 116.037C140.332 115.657 140.849 115.418 141.401 115.354C143.03 115.165 143.951 116.252 145.108 117.212C146.098 118.037 147.093 118.857 148.091 119.672L159.741 129.225Z" fill="#7237AE"/>
<path d="M158.997 130.511C159.371 130.938 159.38 131.751 159.032 132.189C157.995 133.493 156.879 134.748 155.824 136.038C153.264 139.212 150.681 142.366 148.076 145.502L141.075 153.994C140.015 155.283 138.993 156.609 137.895 157.864C137.244 158.608 136.487 158.292 135.823 157.763C134.039 156.342 132.294 154.871 130.53 153.425L119.733 144.598C119.271 144.049 119.252 143.429 119.696 142.859C120.367 141.999 121.073 141.164 121.769 140.322L125.909 135.286L139.173 119.092C139.658 118.5 141.181 116.424 141.767 116.714C143.686 117.666 147.163 120.779 148.701 122.046L158.997 130.511Z" fill="white"/>
<path d="M139.045 133.917C140.688 135.535 136.807 135.533 135.997 135.687C135.477 135.786 133.171 136.058 132.823 135.82C132.443 135.211 132.49 134.309 132.456 133.565C132.43 133.317 132.31 132.352 132.456 132.201C133.923 130.696 133.91 134.038 133.964 134.55C135.608 134.304 137.393 134.062 139.045 133.917Z" fill="#7237AE"/>
<path d="M133.344 141.116C133.574 141.441 133.64 141.705 133.495 142.089C133.109 142.539 127.519 143.283 126.977 142.999C126.565 142.412 126.588 141.368 126.534 140.616C126.474 140.033 126.372 139.253 126.983 138.916C128.032 139.03 127.979 140.88 128.025 141.684C129.091 141.536 132.483 140.982 133.344 141.116Z" fill="#7237AE"/>
<path d="M145.09 126.954C145.25 127.275 145.315 127.361 145.281 127.722C145.219 127.846 145.083 128.086 144.96 128.115C143.875 128.371 139.515 129.044 138.709 128.755C138.333 128.206 138.332 127.078 138.276 126.37C138.273 126.333 138.27 126.296 138.267 126.258L138.256 126.083C138.214 125.45 138.299 125.03 138.879 124.677C139.809 124.691 139.721 126.778 139.773 127.484C140.877 127.32 144.162 126.777 145.09 126.954Z" fill="#7237AE"/>
<path d="M151.559 135.239C152.154 135.838 151.536 136.895 150.413 136.086C149.799 135.642 149.181 135.135 148.592 134.644L145.478 132.06C145.231 131.806 145.177 131.661 145.215 131.309C145.941 130.047 147.514 131.86 148.267 132.486L151.559 135.239Z" fill="#7237AE"/>
<path d="M139.855 149.324L140.065 149.547C140.213 150.02 140.138 150.356 139.668 150.574C138.9 150.63 134.847 147.027 133.922 146.258C133.439 145.837 133.383 145.348 134.022 145.045C134.608 145.05 135 145.278 135.447 145.646C136.921 146.864 138.388 148.097 139.855 149.324Z" fill="#7237AE"/>
<path d="M145.516 142.066C145.8 142.307 145.806 142.29 145.961 142.618C145.982 143.34 145.411 143.673 144.827 143.277C144.225 142.869 143.644 142.353 143.079 141.886L139.97 139.312C139.86 139.222 139.435 138.819 139.437 138.71C139.485 136.886 141.411 138.619 141.981 139.093C143.163 140.077 144.343 141.071 145.516 142.066Z" fill="#7237AE"/>
<path d="M160.467 94.5453C160.361 93.6977 161.478 91.453 161.999 90.0776C163.596 85.8577 164.508 81.3579 164.727 76.8529C164.802 75.3221 164.261 67.0939 164.427 66.7175L165.092 66.4691C165.136 66.5912 165.208 66.7927 165.238 66.9311C167.191 75.9106 165.989 85.5127 161.719 93.67C161.345 94.3853 161.054 94.4222 160.467 94.5453Z" fill="#05210B"/>
<path d="M65.5239 154.119C66.313 153.792 68.7737 154.272 70.238 154.409C74.7307 154.828 79.3109 154.511 83.7123 153.526C85.208 153.191 92.997 150.485 93.404 150.545L93.8199 151.119C93.714 151.194 93.5389 151.318 93.4134 151.383C85.2753 155.651 75.699 157.043 66.7005 155.094C65.9115 154.923 65.7985 154.652 65.5239 154.119Z" fill="#05210B"/>
<path d="M167.066 89.6991C166.775 88.8301 167.666 86.3919 167.923 85.2936C168.248 83.9494 168.503 82.5903 168.689 81.221C168.864 79.8863 168.838 76.7658 169.603 75.8801C170.69 78.0801 169.268 88.4651 167.066 89.6991Z" fill="#05210B"/>
<path d="M71.949 159.194C72.7094 158.682 75.2967 158.893 76.4238 158.849C77.8061 158.806 79.1842 158.691 80.5537 158.506C81.8869 158.321 84.8884 157.467 85.9455 157.969C84.1131 159.601 73.7236 160.989 71.949 159.194Z" fill="#05210B"/>
</svg>
