<svg width="42" height="46" viewBox="0 0 42 46" fill="none" xmlns="http://www.w3.org/2000/svg">
<path d="M29.9972 3.14535C33.5711 2.84345 36.6731 3.80707 39.4849 6.02209C40.5603 6.86921 42.3034 7.98607 41 9.3794C39.7459 9.62486 38.7978 7.78377 37.8665 7.09514C33.0264 3.52403 26.3516 4.45385 22.8745 9.46866C20.7673 12.5077 19.0434 16.1606 17.3331 19.4692C13.697 26.5775 10.1213 33.7167 6.60645 40.8852L9.50124 41.5136C12.7403 42.1191 15.9972 42.7491 19.2102 43.4694C19.678 43.5728 20.0636 44.2077 19.9829 44.7098C19.7911 44.8476 19.7824 44.869 19.5436 44.9608C19.1787 45.1036 18.1021 45.1036 17.7716 45.0347C15.7619 44.6196 5.98017 42.9099 4.75092 42.2487C4.60653 42.0501 4.43081 41.8926 4.41095 41.6367C4.30365 40.2519 19.8035 10.3685 21.6118 7.99264C23.7002 5.24864 26.6388 3.66186 29.9972 3.14535Z" fill="#1C0E2C" stroke="#1C0E2C"/>
<path d="M10.8698 0.519137C13.115 0.388533 15.3484 0.928665 17.2857 2.0708C18.317 2.66705 20.7301 4.20558 21.0062 5.4921C21.1357 6.09573 20.81 6.44522 20.238 6.56598C19.1131 6.16531 17.8924 4.67616 16.8015 3.98556C14.1976 2.3371 12.3903 2.12954 9.50028 2.65261C5.83007 3.66512 4.35569 5.36445 1.77987 8.00984C1.19313 8.19919 0.8658 8.34292 0.504341 7.80179C0.445438 7.12958 0.998374 6.28787 1.40692 5.78858C3.88118 2.76467 7.05572 1.03138 10.8698 0.519137Z" fill="#1C0E2C" stroke="#1C0E2C"/>
<path d="M11.0357 9.53654C12.6614 9.28194 14.1888 10.3846 14.4589 12.0078C14.7289 13.631 13.6409 15.1687 12.0203 15.454C10.3778 15.7432 8.81471 14.6373 8.54116 12.9923C8.26743 11.3472 9.38813 9.79465 11.0357 9.53654Z" fill="#1C0E2C"/>
<path d="M27.8338 12.5756C29.4513 12.207 31.061 13.2218 31.4258 14.8401C31.7909 16.4585 30.7728 18.0658 29.1535 18.4273C27.5392 18.7876 25.9379 17.7734 25.5741 16.1598C25.2103 14.5464 26.2211 12.943 27.8338 12.5756Z" fill="#1C0E2C"/>
</svg>
