<svg width="390" height="289" viewBox="0 0 390 289" fill="none" xmlns="http://www.w3.org/2000/svg">
<path d="M315.94 65.6574C320.256 65.9599 324.433 68.3916 324.979 73.0123C325.397 72.7382 325.876 72.4509 326.328 72.2355C328.463 71.2253 330.911 71.1071 333.133 71.9074C336.571 73.1242 339.095 76.8678 337.805 80.5C340.087 79.8722 341.848 79.8404 344.036 80.974C346.005 81.9924 347.48 83.7601 348.13 85.8785C348.798 88.0737 348.579 90.2487 347.519 92.2678C353.894 93.1137 356.728 98.7063 353.885 104.557C353.523 105.3 352.803 106.027 352.23 106.614C357.3 108.67 359.781 115.019 356.956 119.83C356.196 121.123 355.394 121.741 354.206 122.625C358.795 126.944 357.381 133.932 351.164 135.318C353.265 139.872 350.702 145.443 345.59 146.327C344.651 148.569 343.578 150.144 341.828 151.857C339.023 154.657 335.226 156.235 331.264 156.248C330.824 157.416 329.789 159.153 329.11 160.22C325.459 165.937 320.417 170.634 314.455 173.872C307.687 177.588 298.682 179.034 291.225 176.862C290.508 176.728 289.696 176.451 289.006 176.217C276.666 172.029 268.262 160.307 265.929 147.782C265.784 147.004 265.73 146.121 265.565 145.368L265.53 145.209C262.947 144.126 260.723 142.335 259.114 140.044C256.192 135.933 255.962 132.553 256.788 127.823C253.805 126.546 251.655 124.259 251.902 120.771C252.044 118.778 252.875 117.291 254.4 116.006C253.025 114.93 252.199 114.087 251.631 112.385C251.007 110.458 251.172 108.362 252.091 106.558C253.271 104.235 255.03 103.129 257.417 102.341C256.835 101.615 256.472 100.801 256.36 99.8814C255.649 94.0326 260.125 89.8554 265.63 89.5314C263.575 83.6992 267.698 77.0026 273.906 76.4341C275.457 76.2921 276.572 76.5166 278.064 76.9078C277.167 71.1318 281.793 66.8867 287.491 67.8322C289.214 68.1181 290.678 68.912 292.067 69.9448C292.112 69.7094 292.168 69.4762 292.235 69.2462C292.796 67.3326 294.099 65.7233 295.855 64.7776C300.726 62.0973 305.711 64.5492 308.183 69.17C310.397 66.7965 312.687 65.7271 315.94 65.6574ZM300.252 92.8245C300.519 93.9205 300.729 94.9448 300.518 96.0652C299.582 101.047 295.212 103.399 290.819 100.552L290.675 100.457C292.567 106.795 287.165 113.254 280.876 109.627C280.76 109.56 280.644 109.491 280.53 109.42C280.344 110.008 280.143 110.737 279.939 111.301C284.219 111.756 288.134 112.352 292.232 113.76C293.128 114.068 295.223 114.609 294.896 115.841C294.659 116.874 294.13 118.514 292.689 117.971C288.601 116.223 284.32 115.214 279.907 114.743C278.341 114.576 277.453 114.983 276.155 114.906C276.682 118.774 275.361 122.391 270.713 120.585C271.319 123.723 271.022 127.225 267.894 128.933C267.905 130.456 267.764 131.997 267.744 133.52C267.613 143.294 269.276 152.746 274.861 160.948C283.454 173.566 296.378 177.785 310.47 171.897C316.984 168.846 322.502 164.013 326.383 157.957C327.543 156.158 328.199 154.763 329.195 152.97C330.695 152.981 332.218 152.948 333.67 152.512C339.047 150.893 343.052 145.677 343.081 140.034C343.087 138.745 342.774 137.317 342.127 136.199C340.225 138.423 338.859 139.988 335.566 139.647C335.442 141.951 334.872 144.428 333.098 146.049C332.865 146.262 332.683 146.411 332.366 146.429C332.205 146.231 332.794 140.258 332.869 139.569C332.892 139.379 332.916 139.188 332.944 138.998C331.126 137.394 330.108 135.926 331.217 133.471C326.194 131.812 325.749 127.402 327.134 122.915C324.199 123.796 323.027 123.37 320.932 121.179C317.477 120.6 314.711 120.114 311.168 120.1C309.421 120.093 307.375 120.295 305.716 120.251C305.186 119.664 304.558 118.76 304.623 117.93C304.65 117.575 304.798 117.268 305.073 117.04C306.547 115.813 314.187 116.547 316.28 116.827C317.682 117.015 319.069 117.244 320.443 117.582C320.182 114.4 320.783 112.756 322.517 110.194C321.048 110.947 319.344 111.098 317.765 110.614C316.178 110.098 314.864 108.971 314.111 107.481C312.723 104.698 313.409 101.198 315.522 98.968C312.132 99.7029 309.58 98.8312 308.837 95.1398C308.69 94.3839 308.657 93.6108 308.738 92.8453C308.774 92.4725 308.955 91.6377 308.833 91.392C306.41 94.7816 303.632 94.8479 300.252 92.8245ZM261.392 127.157C260.97 128.062 260.655 128.774 260.437 129.751C259.484 134.024 261.531 138.914 265.131 141.387L265.322 141.4C265.4 140.931 265.305 140.464 265.285 139.988C265.138 136.571 265.328 133.147 265.544 129.743C263.421 129.125 262.809 128.88 261.392 127.157Z" fill="#1C0E2C"/>
<path d="M304.816 126.502C310.582 122.389 319.454 124.768 323.983 129.726C324.199 129.963 324.315 130.346 324.27 130.662C323.924 131.158 322.899 131.528 322.395 131.211C320.603 130.081 319.13 128.77 317.047 128.135C317.382 130.551 316.843 134.214 313.875 134.596C312.987 134.703 312.096 134.433 311.418 133.85C310.478 133.057 310.05 131.861 309.979 130.659C309.905 129.382 310.148 128.105 310.687 126.945L310.744 126.816C307.69 127.071 307.347 127.352 304.518 128.332C304.119 128.098 304.035 128.009 303.903 127.621C304.008 127.062 304.371 126.859 304.816 126.502Z" fill="#1C0E2C"/>
<path d="M304.816 126.502C304.731 127.161 304.661 127.68 304.518 128.332C304.119 128.098 304.034 128.009 303.903 127.621C304.008 127.062 304.37 126.859 304.816 126.502Z" fill="#1C0E2C"/>
<path d="M296.024 121.244C296.309 121.278 296.682 121.307 296.943 121.434C297.206 121.563 297.372 121.749 297.476 122.019C298.85 125.594 293.622 140.816 291.911 144.766C291.937 144.782 291.963 144.798 291.989 144.813L292.12 144.889C293.06 145.444 294.144 145.763 295.146 146.213C296.718 146.918 296.561 148.025 294.903 148.298C292.533 148.516 289.435 147.515 288.476 145.153C288.647 144.054 289.943 140.924 290.388 139.697C291.251 137.246 292.061 134.777 292.816 132.29C293.833 128.98 294.646 125.905 295.166 122.478C295.253 121.905 295.519 121.527 296.024 121.244Z" fill="#1C0E2C"/>
<path d="M284.129 119.94C287.525 120.333 290.385 121.44 292.199 124.549C292.527 125.11 292.475 125.779 291.818 126.07C291.129 125.986 290.107 124.92 289.548 124.416C289.62 125.059 289.604 125.707 289.501 126.346C288.943 129.941 285.248 131.949 282.985 128.201C282.059 126.261 282.371 124.575 283 122.624C280.612 122.228 278.037 123.162 275.694 123.562C275.211 123.644 273.908 123.726 273.876 123.032C275.044 120.575 281.684 119.905 284.129 119.94Z" fill="#1C0E2C"/>
<path d="M303.534 154.405C305.254 154.665 304.509 156.057 303.785 156.948C300.408 161.103 292.994 162.432 289.343 157.796C288.76 157.093 287.568 155.54 288.478 154.741C289.673 154.455 290.42 155.6 291.319 156.278C294.248 158.489 298.063 157.913 301.005 156.062C301.795 155.564 302.696 154.715 303.534 154.405Z" fill="#1C0E2C"/>
<path d="M207.801 51.1704C209.554 51.5709 209.703 52.919 210.346 54.3695C212.211 58.5777 214.713 61.8316 219.397 62.8964C220.974 63.255 224.783 63.6153 225.806 64.647C225.153 66.1784 219.406 68.5553 217.801 71.3414C216.201 73.8367 215.445 76.5846 215.238 79.5217C215.125 81.1098 215.489 82.2795 214.392 83.5516C213.923 83.6148 213.029 83.4166 212.846 82.9773C210.74 77.9116 208.64 73.3502 202.817 71.9048C201.11 71.481 197.96 71.1904 196.548 70.2996C196.696 69.9236 196.904 69.7405 197.203 69.4789C199.369 67.5814 202.045 66.6506 204.103 64.4589C208.29 60.0002 206.21 53.5118 207.801 51.1704Z" fill="#EADBFA"/>
<path d="M209.576 59.5298C209.886 59.7369 210.806 60.8652 211.178 61.2396C213.76 63.837 215.816 65.3189 219.536 66.1783C215.928 68.6781 213.725 72.0562 212.894 76.2487C209.627 72.347 208.131 70.5677 202.817 69.28C206.994 66.6347 208.325 63.9493 209.576 59.5298Z" fill="#FCFAFF"/>
<path d="M245.524 146.231C247.1 146.084 253.235 146.818 254.184 148.305L254.048 149.077C252.555 149.27 247.45 148.578 245.902 147.727C245.359 147.009 245.512 147.321 245.524 146.231Z" fill="#EADBFA"/>
<path d="M248.502 162.294C249.946 161.451 256.061 158.284 257.23 159.42L257.22 160.142C255.313 161.051 250.69 163.956 248.915 163.541C248.414 162.979 248.567 163.194 248.502 162.294Z" fill="#EADBFA"/>
<path d="M262.3 169.474C262.833 169.211 262.556 169.247 263.162 169.378L263.391 169.78C263.239 171.53 260.696 175.03 259.622 176.555C259.323 176.668 259.137 176.646 258.797 176.669C258.325 176.291 258.503 176.534 258.341 175.854C258.689 174.162 261.239 170.934 262.3 169.474Z" fill="#EADBFA"/>
<path d="M133.392 233.257C132.223 232.191 128.632 227.163 129.091 225.459L129.753 225.04C130.901 226.013 133.829 230.252 134.244 231.969C134.078 232.854 134.206 232.531 133.392 233.257Z" fill="#EADBFA"/>
<path d="M143.257 220.234C141.66 219.735 135.2 217.35 135.253 215.721L135.793 215.242C137.749 216.039 143.01 217.498 143.899 219.089C143.822 219.838 143.877 219.58 143.257 220.234Z" fill="#EADBFA"/>
<path d="M139.266 205.2C138.712 204.984 138.926 205.164 138.615 204.628L138.757 204.187C140.153 203.121 144.452 202.642 146.303 202.409C146.588 202.553 146.697 202.705 146.943 202.941C146.982 203.545 147.042 203.249 146.648 203.828C145.163 204.71 141.06 205.001 139.266 205.2Z" fill="#EADBFA"/>
<path d="M166.423 174.596C167.624 174.408 168.591 174.333 169.379 175.118L169.198 175.409C167.674 176.173 164.855 176.284 162.982 176.438C162.614 176.47 162.246 176.499 161.877 176.524C160.769 176.597 160.689 176.603 159.975 176.163L160.003 175.826C161.232 175.039 164.714 174.795 166.423 174.596Z" fill="#EADBFA"/>
<path d="M163.086 159.843C163.781 159.913 163.454 159.812 164.069 160.23L164.155 160.8C163.422 162.344 159.278 165.062 157.696 166.096C157.363 166.141 157.385 166.09 157.018 165.983L156.84 165.474C157.32 163.951 161.573 160.969 163.086 159.843Z" fill="#EADBFA"/>
<path d="M159.975 187.011C161.873 187.01 166.667 188.258 168.128 189.2C168.488 189.433 168.281 189.844 168.216 190.146C166.399 190.145 161.927 188.775 160.388 187.965C159.898 187.707 160.013 187.45 159.975 187.011Z" fill="#EADBFA"/>
<path d="M67.0177 108.245C64.1987 108.409 60.152 110.394 57.9601 112.192C56.0563 111.872 54.5702 111.713 52.663 111.944C45.8658 112.767 39.9857 117.731 38.5142 124.488C38.1463 126.177 38.0631 127.492 38.0117 129.203C36.9541 129.327 36.0475 129.476 35.0199 129.743C30.4552 130.931 25.7377 134.373 25.6983 139.518C25.6917 140.407 25.8314 141.382 26.505 142.043C26.9742 142.503 28.2324 143.129 28.508 142.113C28.6384 141.572 28.5871 140.915 28.6647 140.359C29.1871 137.273 31.0383 134.61 33.803 133.116C34.9499 132.496 35.9079 132.192 37.1856 131.904C37.1171 131.973 36.9947 132.089 36.9333 132.164C33.2355 136.786 33.131 143.962 36.7254 148.683C41.0793 154.402 48.855 155.515 55.1184 152.395C51.9818 156.171 45.1054 158.464 40.677 155.817C40.1091 155.477 38.9278 154.191 38.4941 154.06L38.3547 154.176C37.3165 157.311 41.4569 159.703 44.0108 160.21C47.6927 160.94 51.134 160.062 54.4935 158.609C48.4487 164.658 47.2203 179.436 52.0238 186.519C48.7254 192.575 50.7948 199.501 55.8021 203.901C59.2485 206.992 63.7795 208.589 68.4022 208.344C70.3423 211.31 72.6884 213.99 75.3708 216.306C80.729 220.943 87.365 224.299 94.4758 225.098C96.6303 225.34 98.6133 225.238 100.763 225.084C101.425 225.044 102.396 224.776 103.068 224.654C109.78 223.43 115.632 219.154 119.684 213.774C126.173 205.162 128.276 194.085 127.842 183.498C127.713 180.349 127.269 177.282 126.833 174.163C131.588 174.11 133.548 177.105 133.748 181.612C133.886 184.689 132.615 187.961 130.733 190.344C130.034 191.23 129.236 191.986 128.453 192.811C128.344 193.23 128.15 194.277 128.369 194.641C128.467 194.676 128.61 194.724 128.713 194.694C130.511 194.176 132.133 192.609 133.197 191.253C135.88 187.865 137.219 183.919 136.687 179.595C136.02 174.176 132.439 170.643 126.811 171.368C126.865 170.446 126.973 168.929 126.919 168.039C126.486 160.91 123.408 152.873 118.166 147.908C116.1 145.951 113.713 144.374 111.133 143.214C110.247 142.815 109.045 142.493 108.239 142.092C105.639 140.797 103.496 139.513 100.515 139.607C103.579 138.235 106.831 135.539 106.268 131.708C106.15 130.903 105.236 129.155 104.203 129.407C104.113 129.59 104.142 129.769 104.195 129.982C104.434 130.951 103.736 132.47 103.107 133.275C100.636 136.435 96.1281 137.609 92.3015 137.9C90.4321 138.042 88.7053 137.96 86.832 138.228C89.9555 136.142 92.4343 133.551 93.4073 129.797C94.2018 126.613 93.708 123.245 92.0331 120.423C90.36 117.619 87.5113 115.698 84.3674 114.918C80.6232 109.447 73.369 107.274 67.0177 108.245ZM107.768 154.726C109.555 156.755 116.413 165.286 118.954 160.409C125.127 173.522 127.104 188.732 122.158 202.523C115.615 220.768 98.6614 227.604 82.0015 216.714C78.3018 214.346 73.3085 209.413 71.331 205.384C67.6095 206.135 63.0378 204.662 59.866 202.68C55.1871 199.756 51.5858 192.793 55.0614 187.635C56.0716 186.11 57.6523 185.054 59.4481 184.706C61.0987 184.396 62.6494 184.691 64.158 185.385C66.5034 186.464 66.7109 188.187 68.7099 185.316C71.2812 181.625 72.2588 176.164 71.4344 171.762C72.2607 172.574 73.1946 173.2 74.3993 173.15C77.6949 173.013 78.1564 168.893 78.0217 166.427C77.9582 165.158 77.7522 163.9 77.4059 162.678C83.5456 167.374 91.4174 166.745 87.1483 157.383C88.874 159.069 92.6434 161.779 95.1744 161.712C95.8305 161.695 96.4313 161.465 96.8816 160.978C97.2815 160.545 97.4241 159.985 97.3891 159.406C97.2432 156.989 94.2032 154.043 94.1439 153.596C96.2146 154.545 97.5966 155.395 99.4251 156.707C101.549 158.232 104.735 162.174 107.568 161.362C110.046 160.651 108.705 156.759 107.996 155.204C107.922 155.043 107.846 154.884 107.768 154.726ZM60.0353 151.186C59.5821 151.633 59.1048 152.125 58.6209 152.53C61.6634 146.989 65.6426 143.667 72.0611 142.724C72.999 142.684 73.9454 142.615 74.8674 142.82C69.6667 144.012 63.9058 147.555 60.0353 151.186ZM37.9436 133.703C38.1147 139.872 39.8304 145.577 45.2156 149.136L47.3877 149.998C46.601 149.892 45.9912 149.802 45.2299 149.558C41.8368 148.755 38.8495 145.187 37.79 142.016C36.9635 139.542 36.7985 136.088 37.9436 133.703ZM58.7479 164.512C57.8575 162.705 57.5653 161.023 58.2089 159.073C58.5304 158.099 59.6044 156.677 60.5923 156.321C59.4032 158.188 58.8473 161.132 58.9099 163.323C58.9185 163.6 59.0136 164.552 58.8779 164.636L58.7479 164.512ZM71.2869 110.863C70.7043 110.949 70.1032 110.964 69.4947 111.056C67.6183 111.358 65.8086 111.986 64.1479 112.91C60.0894 115.206 57.3984 119.043 56.1471 123.482C56.1142 122.504 56.0986 121.922 56.2481 120.936C56.7695 117.646 58.5927 114.705 61.3067 112.774C64.147 110.764 67.6548 109.93 71.0959 110.449C72.0289 110.564 72.8551 110.681 73.7561 110.971C72.9479 110.941 72.089 110.925 71.2869 110.863ZM86.4506 118.238C86.9149 118.704 87.3382 119.184 87.7769 119.675C89.5106 121.809 90.1253 124.423 89.8596 127.132C89.5656 130.054 88.116 132.736 85.8334 134.583C84.7259 135.474 83.748 135.923 82.4372 136.449C88.1485 132.065 89.5228 126.669 87.341 119.823C87.3734 119.866 86.5164 118.348 86.4506 118.238ZM52.552 114.801C53.6702 114.729 54.4993 114.683 55.6121 114.831C48.2093 116.692 44.0664 123.487 44.3654 130.906L44.5112 132.821C44.0673 131.842 43.741 131.037 43.4227 130.007C41.3277 123.217 45.1108 115.653 52.552 114.801Z" fill="#1C0E2C"/>
<path d="M87.6149 180.373C85.6728 180.535 83.1298 181.401 81.606 182.649C80.6386 183.465 79.6833 184.567 79.5373 185.869C79.4688 186.541 79.8013 187.253 80.582 187.167C81.641 187.049 82.366 185.986 83.0048 185.22C83.3546 187.035 83.9671 189.553 85.9608 190.175C87.9428 190.794 89.3165 189.258 89.7896 187.526C90.0422 185.736 89.6395 184.146 88.587 182.68C90.9478 182.56 92.8976 182.776 95.0261 183.897C95.7389 184.272 96.3123 185.062 97.1187 184.559C97.7085 183.767 96.8015 182.984 96.1881 182.522C93.7561 180.69 90.6101 180.05 87.6149 180.373Z" fill="#1C0E2C"/>
<path d="M113.241 176.012C110.197 176.514 107.214 177.919 106.407 181.328C106.264 181.929 106.162 182.565 106.519 183.096C107.088 183.371 107.44 182.569 107.736 182.129L107.833 182.186C107.78 182.825 108.202 183.733 108.584 184.237C110.547 186.827 113.424 185.791 113.798 182.743C113.804 180.905 113.397 179.834 112.463 178.296C113.663 178.12 114.475 178.03 115.69 178.236C116.168 178.316 116.639 178.439 117.095 178.604C117.778 178.859 119.22 179.745 119.813 179.413C120.766 178.88 121.287 177.933 120.859 176.915C120.287 176.47 119.605 177.378 119.248 177.242C116.861 176.33 115.869 175.882 113.241 176.012Z" fill="#1C0E2C"/>
<path d="M103.163 177.72C102.028 177.911 101.575 178.367 101.452 179.572C100.823 185.743 103.591 191.755 107.347 196.496C106.603 197.184 105.953 197.81 105.092 198.367C104.037 199.05 103.35 199.994 104.737 200.808C107.396 200.686 109.374 198.307 110.251 195.98C109.576 194.866 108.533 193.707 107.834 192.639C105.089 188.437 103.792 183.791 103.746 178.804C103.741 178.263 103.582 178.04 103.163 177.72Z" fill="#1C0E2C"/>
<path d="M86.6897 173.499C84.9246 173.587 82.7693 174.515 81.3578 175.591C80.6078 176.164 79.2399 177.506 80.1117 178.508C80.8437 178.499 82.5399 177.201 83.5856 176.83C85.5715 176.124 87.0802 175.877 89.1778 175.943C90.3575 175.967 91.4633 176.208 92.6287 176.483C93.546 176.699 95.0242 177.355 95.8187 176.549C96.2141 176.147 96.2021 175.084 95.6191 174.772C93.0444 173.397 89.5485 173.078 86.6897 173.499Z" fill="#1C0E2C"/>
<path d="M95.2531 205.498C93.4465 205.776 94.465 207.165 95.2923 207.895C97.3361 209.705 100.018 210.623 102.742 210.445C105.178 210.302 107.452 209.18 109.047 207.335C109.548 206.749 110.41 205.449 109.669 204.782C109.413 204.707 109.13 204.647 108.881 204.787C108.389 205.084 107.931 205.543 107.498 205.927C104.836 208.292 100.775 208.541 97.6752 206.915C96.9038 206.511 96.072 205.768 95.2531 205.498Z" fill="#1C0E2C"/>
<path d="M113.303 169.144C113.076 169.147 112.796 169.225 112.56 169.26C110.045 169.622 107.383 170.839 105.871 172.945C105.523 173.431 105.283 174.083 105.397 174.7C106.22 175.838 108.229 173.659 109.004 173.202C109.475 172.924 109.823 172.716 110.327 172.473C112.529 171.295 115.625 171.13 117.98 171.604C118.47 171.703 119.274 171.818 119.499 171.268C119.234 169.453 114.762 169.038 113.303 169.144Z" fill="#1C0E2C"/>
<path d="M52.5521 114.801C45.1109 115.653 41.3278 123.217 43.4228 130.007C43.7412 131.037 44.0674 131.841 44.5114 132.821L44.3655 130.906C44.0666 123.487 48.2094 116.692 55.6122 114.831C54.4995 114.683 53.6703 114.729 52.5521 114.801Z" fill="#1C0E2C"/>
<path d="M73.756 110.971C72.8549 110.681 72.0288 110.564 71.0957 110.448L71.0948 110.659L71.304 110.785L71.2868 110.863C72.0889 110.925 72.9478 110.941 73.756 110.971Z" fill="#1C0E2C"/>
<path d="M45.2156 149.136C45.1682 149.414 45.1488 149.313 45.2299 149.558C45.9912 149.802 46.601 149.892 47.3877 149.998L45.2156 149.136Z" fill="#1C0E2C"/>
<path d="M86.4503 118.238C86.5162 118.348 87.3732 119.866 87.3408 119.823L87.3814 119.699L87.5614 119.787L87.7766 119.675C87.3379 119.184 86.9147 118.704 86.4503 118.238Z" fill="#1C0E2C"/>
<path d="M228.147 174.684L228.147 174.686C228.841 179.617 229.648 184.573 230.209 189.543C230.415 191.367 230.078 192.879 229.254 194.118C228.437 195.348 227.171 196.262 225.607 196.959L225.571 196.974L225.535 196.984C224.281 197.327 222.45 197.616 221.17 197.801C209.242 199.523 197.302 201.242 185.369 202.936L185.366 202.936L174.756 204.397L174.757 204.398C173.229 204.621 171.583 204.933 170.065 205.124C168.528 205.317 167.016 205.402 165.652 205.165C164.275 204.925 163.031 204.354 162.064 203.229C161.105 202.112 160.46 200.497 160.179 198.248C159.002 188.825 157.666 179.393 156.413 169.969L156.413 169.968L155.191 160.613L155.191 160.612C155.012 159.218 154.682 157.581 154.648 156.032C154.614 154.459 154.876 152.864 155.938 151.501L156.129 151.266C158.004 149.062 160.691 148.707 163.183 148.397C163.145 148.168 163.109 147.94 163.07 147.713C163.003 147.322 162.936 146.933 162.879 146.552C162.766 145.79 162.69 145.033 162.742 144.302C162.794 143.565 162.975 142.848 163.38 142.172C163.785 141.496 164.395 140.89 165.262 140.349L165.339 140.302L165.425 140.283C166.696 140.017 167.721 140.115 168.538 140.531C169.354 140.947 169.891 141.646 170.257 142.443C170.62 143.235 170.829 144.153 170.975 145.06C171.09 145.774 171.174 146.526 171.257 147.209C182.304 145.529 193.367 143.949 204.444 142.467C204.294 141.583 204.101 140.482 204.037 139.408C203.961 138.134 204.054 136.762 204.721 135.771C205.25 134.975 206.088 134.438 207.032 134.286L207.034 134.286L207.035 134.286C207.954 134.134 208.894 134.338 209.666 134.853L209.818 134.96L209.82 134.961C210.809 135.702 211.279 137.021 211.549 138.285C211.776 139.349 211.885 140.506 211.988 141.414C213.271 141.232 214.54 141.044 215.731 140.955C217.079 140.854 218.375 140.875 219.538 141.188C220.715 141.505 221.752 142.121 222.566 143.189C223.372 144.247 223.936 145.715 224.236 147.699C224.657 150.487 225.081 153.396 225.49 156.2L225.49 156.201L228.147 174.684Z" fill="#1C0E2C" stroke="#1C0E2C"/>
<path d="M186.182 147.54C192.423 146.559 199.048 145.75 205.341 144.851C205.557 145.924 205.618 148.079 206.343 148.752C209.277 151.474 213.074 147.65 209.796 144.206C220.576 142.598 221.031 141.839 222.474 152.878C212.634 154.374 202.534 155.582 192.633 157.029L157.738 162.12C156.915 154.72 155.1 151.922 164.05 150.799C164.319 152.149 164.423 153.47 165.35 154.564C166.415 155.823 168.073 156.095 169.302 154.864C169.94 154.219 170.273 153.332 170.215 152.426C170.154 151.309 169.636 150.77 168.872 150.098C174.466 149.142 180.525 148.393 186.182 147.54Z" fill="#EADBFA"/>
<path d="M210.989 166.603C215.222 165.966 219.457 165.351 223.696 164.757C224.095 167.682 224.511 170.605 224.944 173.526C220.711 174.153 216.474 174.752 212.235 175.322C211.786 172.421 211.37 169.514 210.989 166.603Z" fill="#FCFAFF" stroke="#1C0E2C"/>
<path d="M212.492 177.024C216.72 176.395 220.951 175.788 225.184 175.201C225.56 178.053 226.001 180.958 226.41 183.801L213.727 185.632C213.28 182.768 212.868 179.898 212.492 177.024Z" fill="#FCFAFF" stroke="#1C0E2C"/>
<path d="M210.566 175.566L198.318 177.335L197.082 168.602L209.3 166.829L210.566 175.566Z" fill="#FCFAFF" stroke="#1C0E2C"/>
<path d="M198.03 178.596C202.275 177.901 206.926 177.337 211.232 176.706C211.774 179.64 212.181 183.228 212.634 186.249C211.194 186.589 208.999 186.828 207.463 187.045L199.383 188.219C198.914 185.038 198.395 181.785 198.03 178.596Z" fill="#EADBFA"/>
<path d="M204.593 180.767C205.209 180.527 205.907 180.641 206.415 181.064C206.925 181.487 207.162 182.152 207.04 182.802C206.916 183.451 206.451 183.982 205.822 184.19C204.886 184.499 203.873 184.005 203.541 183.077C203.207 182.149 203.675 181.124 204.593 180.767Z" fill="#1C0E2C"/>
<path d="M213.408 186.889L227.08 184.91C227.515 188.121 228.482 190.423 226.899 193.278C224.677 195.471 218.177 195.799 214.768 196.268C214.274 193.148 213.819 190.021 213.408 186.889Z" fill="#FCFAFF"/>
<path d="M209.014 156.555C213.492 155.803 218.238 155.2 222.75 154.542C222.963 156.163 223.976 162.353 223.872 163.51C219.546 164.021 214.685 164.86 210.308 165.473L209.014 156.555Z" fill="#FCFAFF"/>
<path d="M199.604 188.904L212.726 187.019C213.185 190.136 213.627 193.256 214.051 196.378C209.736 197.051 205.258 197.515 200.843 198.193C200.617 196.512 199.465 190.08 199.604 188.904Z" fill="#FCFAFF"/>
<path d="M207.924 157.202L209.073 165.172L204.891 165.746L204.889 165.747L196.837 166.896C196.44 164.254 196.062 161.609 195.696 158.961L200.317 158.259L207.924 157.202Z" fill="#FCFAFF" stroke="#1C0E2C"/>
<path d="M182.903 170.647L184.16 179.388C180.596 179.982 176.745 180.465 173.138 180.964L171.883 172.227L182.903 170.647Z" fill="#FCFAFF" stroke="#1C0E2C"/>
<path d="M184.594 170.404C188.026 169.827 191.972 169.3 195.438 168.836L196.717 177.588C193.221 178.172 189.401 178.651 185.857 179.135C185.406 176.255 185.008 173.305 184.594 170.404Z" fill="#FCFAFF" stroke="#1C0E2C"/>
<path d="M184.418 181.092C184.822 183.828 185.345 187.002 185.621 189.677L174.611 191.256C174.468 190.307 174.201 188.567 173.957 186.856C173.81 185.818 173.672 184.797 173.577 183.981C173.53 183.573 173.493 183.219 173.472 182.942C173.464 182.832 173.459 182.739 173.456 182.664L184.418 181.092Z" fill="#FCFAFF" stroke="#1C0E2C"/>
<path d="M187.184 180.689C190.364 180.174 193.715 179.739 196.944 179.288C197.105 180.371 197.369 182.017 197.607 183.61C197.861 185.31 198.077 186.936 198.124 187.847C198.069 187.868 198.005 187.888 197.927 187.904C197.719 187.946 197.537 187.952 197.248 187.989L197.24 187.99L187.34 189.422L186.105 180.856L187.18 180.69L187.184 180.689Z" fill="#FCFAFF" stroke="#1C0E2C"/>
<path d="M185.899 191.381L187.071 199.638L176.048 201.205C175.629 198.463 175.241 195.715 174.885 192.964L185.899 191.381Z" fill="#FCFAFF" stroke="#1C0E2C"/>
<path d="M170.148 172.475C170.555 175.396 170.984 178.314 171.438 181.229C168.153 181.8 164.376 182.256 161.012 182.724C160.59 179.845 160.227 176.861 159.858 173.959L170.148 172.475Z" fill="#FCFAFF" stroke="#1C0E2C"/>
<path d="M161.267 184.4C164.733 183.882 168.205 183.389 171.68 182.921L172.896 191.485C172.506 191.564 171.981 191.651 171.429 191.733L169.406 192.016L162.364 193.013C162.137 190.391 161.622 187.038 161.267 184.4Z" fill="#FCFAFF" stroke="#1C0E2C"/>
<path d="M198.423 189.571L199.612 197.848C196.015 198.335 192.365 198.895 188.777 199.421C188.367 196.658 187.973 193.892 187.59 191.125L198.423 189.571Z" fill="#FCFAFF" stroke="#1C0E2C"/>
<path d="M181.513 161.004L182.66 168.958L177.052 169.788L171.643 170.547L170.502 162.584C172.45 162.309 174.397 162.02 176.34 161.715L181.513 161.004Z" fill="#FCFAFF" stroke="#1C0E2C"/>
<path d="M183.212 160.76C186.658 160.159 190.542 159.666 194.046 159.202L195.193 167.153C191.794 167.744 187.827 168.227 184.353 168.675L183.212 160.76Z" fill="#FCFAFF" stroke="#1C0E2C"/>
<path d="M162.602 194.733C165.993 194.163 169.694 193.696 173.143 193.207C173.555 195.93 173.919 198.719 174.297 201.462C172.629 201.69 170.729 201.97 169.13 202.247C167.529 202.524 166.391 202.434 165.569 202.12C164.762 201.812 164.214 201.269 163.815 200.536C163.41 199.788 163.163 198.845 162.983 197.757C162.826 196.806 162.724 195.794 162.602 194.733Z" fill="#FCFAFF" stroke="#1C0E2C"/>
<path d="M168.764 162.817C168.907 163.739 169.167 165.392 169.399 167.007C169.54 167.989 169.669 168.951 169.757 169.722C169.8 170.107 169.833 170.44 169.85 170.702C169.853 170.741 169.854 170.777 169.855 170.811C166.495 171.233 162.98 171.778 159.629 172.255C159.306 170.025 158.993 167.792 158.694 165.558L158.693 165.557C158.669 165.374 158.639 165.189 158.615 165.034C158.59 164.87 158.571 164.731 158.564 164.605C158.557 164.463 158.568 164.358 158.591 164.277L168.764 162.817Z" fill="#FCFAFF" stroke="#1C0E2C"/>
<path d="M166.117 142.528C168.639 142.244 168.592 146.245 168.824 148.041L166.787 148.458C167.15 152.159 167.909 150.66 168.567 152.854C168.365 153.25 168.31 153.271 168.003 153.577C166.03 153.738 165.733 149.823 165.502 148.373C165.178 146.345 164.661 144.147 166.117 142.528Z" fill="#FCFAFF"/>
<path d="M207.181 136.577C209.178 137.025 209.276 139.271 209.429 141.051C209.572 142.721 208.716 142.115 207.946 142.875C207.708 143.616 207.908 144.346 208.026 145.14C208.912 145.758 209.198 145.922 209.485 146.945C209.141 147.636 209.044 147.845 208.258 147.705C206.79 146.347 206.455 140.517 206.406 138.439C206.387 137.671 206.706 137.158 207.181 136.577Z" fill="#FCFAFF"/>
<path d="M209.875 177.601C212.488 177.79 217.021 179.518 219.628 180.366C226.001 182.439 232.362 184.545 238.712 186.686L247.15 189.487C252.032 191.06 257.361 192.1 256.618 198.698C256.984 199.215 257.313 199.759 257.601 200.324C259.351 203.725 256.866 209.444 255.734 212.895L252.016 224.186C252.959 225.066 254.098 226.241 254.017 227.675C253.803 230.771 252.557 233.922 251.506 236.83C250.703 239.053 249.578 240.027 247.191 239.985C244.659 246.33 242.26 255.017 240.097 261.417C236.593 271.785 234.008 271.553 223.893 268.288C220.621 267.231 216.797 265.939 213.422 264.824C208.822 263.131 203.228 261.427 198.474 259.818C197.899 261.638 197.304 264.021 196.525 265.746C196.317 266.21 195.985 266.224 195.606 266.285C194.353 265.739 193.531 263.864 192.843 262.637C191.624 263.168 189.435 264.398 188.253 263.686C187.884 262.735 189.651 258.563 190.101 257.149C186.955 256.081 184.849 255.285 183.61 251.747C182.057 247.31 181.176 248.287 182.906 243.253C181.754 242.554 180.725 241.458 180.683 240.037C180.668 239.412 180.902 238.806 181.333 238.351C182.405 237.221 183.687 237.264 185.086 237.272C185.667 235.27 186.587 232.874 187.297 230.877C183.73 228.008 184.637 224.458 189.462 224.828C190.208 222.513 190.99 220.212 191.809 217.923C190.652 216.983 189.585 216.009 189.637 214.376C189.665 213.744 189.939 213.15 190.401 212.719C191.457 211.739 192.698 211.82 193.998 211.914C194.712 209.571 195.481 207.247 196.306 204.941C192.888 202.07 193.477 198.601 198.33 198.786C199.178 196.68 199.857 194.241 200.712 192.018C200.499 191.874 200.295 191.719 200.099 191.555C196.941 188.902 198.582 185.888 202.747 185.989C204.196 181.655 204.585 178.209 209.875 177.601Z" fill="#1C0E2C"/>
<path d="M209.191 179.8C210.85 179.889 212.094 180.292 213.652 180.793C225.826 184.704 237.991 188.796 250.148 192.742C256.504 194.805 254.848 198.606 253.139 203.461C250.959 209.654 249.024 216.018 246.708 222.155C243.055 220.951 235.92 217.693 232.567 219.681C229.306 221.553 227.431 227.676 229.5 230.871C231.429 233.849 238.636 235.497 242.117 236.364C239.528 243.722 237.004 251.105 234.552 258.511C233.99 260.23 233.254 262.547 231.458 263.282C228.596 264.454 223.813 262.235 220.987 261.293L206.878 256.594L193.509 252.268C182.944 248.863 182.432 250.066 186.211 239.626C188.203 240.451 189.671 241.18 191.494 242.361C192.118 242.766 192.576 242.438 193.061 242.043C193.585 240.122 188.471 238.258 186.936 237.697L190.628 227.183C191.382 227.474 192.099 227.746 192.83 228.098C193.905 228.614 195.277 229.745 196.387 230.005C197.118 229.86 196.823 230.029 197.318 229.511C197.704 227.338 193.023 225.859 191.309 225.317C192.255 222.122 193.896 217.499 195.129 214.392C197.54 215.099 199.897 216.978 200.977 217.142C201.65 216.901 201.409 217.047 201.88 216.489C201.974 214.54 197.376 212.934 195.838 212.446C196.674 209.328 198.474 204.533 199.55 201.374C201.132 201.946 202.12 202.372 203.515 203.279C204.485 203.91 205.318 204.579 206.299 203.708C206.931 201.603 201.842 199.956 200.232 199.341C201.227 195.958 202.744 191.911 203.965 188.572C206.566 189.427 208.351 191.006 209.723 191.411C210.415 191.324 210.158 191.406 210.738 190.923C211.328 188.861 206.162 187.114 204.642 186.607C205.567 183.614 205.841 180.904 209.191 179.8Z" fill="#FCFAFF"/>
<path d="M221.047 240.382C221.726 240.853 221.549 240.588 221.798 241.342L221.54 241.708C220.329 241.983 205.357 236.51 203.089 235.716C202.672 235.475 202.608 235.344 202.298 234.977L202.376 234.589C203.789 234.098 218.792 239.502 221.047 240.382Z" fill="#EADBFA"/>
<path d="M213.065 245.05C213.437 245.299 213.452 245.472 213.635 245.902L213.301 246.292C211.417 246.635 202.494 243.388 200.255 242.646C199.982 242.257 200.073 242.362 199.973 241.83L200.312 241.448C202.157 241.18 210.933 244.287 213.065 245.05Z" fill="#EADBFA"/>
<path d="M235.194 221.424C239.366 221.919 245.399 224.911 249.378 225.816C254.31 226.935 249.358 236.951 248.581 237.355C247.877 237.328 247.887 237.138 247.247 236.589C242.507 234.061 235.625 233.602 231.444 230.778C228.512 228.799 230.137 221.605 235.194 221.424Z" fill="#FCFAFF"/>
<path d="M236.647 223.264C238.694 223.17 240.438 224.742 240.555 226.788C240.673 228.836 239.121 230.596 237.077 230.738C235.732 230.832 234.441 230.196 233.695 229.072C232.951 227.947 232.869 226.51 233.48 225.307C234.091 224.105 235.3 223.325 236.647 223.264Z" fill="#1C0E2C"/>
<path d="M236.359 224.683C237.757 224.703 238.945 225.674 239.052 226.884C239.157 228.093 238.146 229.113 236.757 229.194C235.804 229.249 234.866 228.845 234.314 228.144C233.762 227.441 233.684 226.554 234.11 225.832C234.538 225.109 235.401 224.669 236.359 224.683Z" fill="#EADBFA"/>
<path d="M300.25 241.713C299.429 241.999 299.223 241.988 298.623 241.339C298.531 240.923 298.484 240.415 298.794 240.074C308.121 229.824 313.633 215.659 313.337 201.77C313.319 200.937 313.211 199.978 313.213 199.172C313.219 197.352 312.387 194.639 312.689 192.952C313.418 192.647 313.567 192.587 314.307 192.917C314.829 193.61 314.962 194.892 315.089 195.749C317.474 211.871 311.432 230 300.25 241.713Z" fill="#1C0E2C"/>
<path d="M310.086 240.29C309.517 240.536 309.169 240.391 308.725 240.044C308.505 238.765 310.7 236.21 311.472 234.979C314.114 230.761 315.93 226.383 317.68 221.745C318.199 221.446 318.42 221.406 318.912 221.675C320.345 224.656 312.176 237.522 310.086 240.29Z" fill="#1C0E2C"/>
<path d="M104.225 254.931C105.996 255.104 110.421 258.806 112.344 259.825C122.611 265.273 133.932 267.331 146.605 268.077C144.389 266.913 141.344 265.144 139.28 263.807C138.833 263.517 139.004 263.106 139.072 262.74C141.392 261.057 149.631 267.472 151.908 268.293C153.117 268.73 152.602 269.747 151.601 270.354C148.029 271.938 144.465 273.944 140.759 275.403C139.574 275.872 139.248 275.936 138.161 275.685C137.491 275.129 137.612 275.396 137.67 274.726C138.754 273.31 144.281 271.148 146.435 270.187C132.466 269.999 115.992 265.986 106.056 258.743C104.196 257.387 102.594 256.804 104.225 254.931Z" fill="#1C0E2C"/>
<path d="M120.63 109.696C119.818 108.275 118.695 97.7313 119.783 96.2894C120.353 96.0975 120.104 96.0963 120.716 96.3555C121.438 97.1425 121.625 102.816 121.812 104.463C130.054 83.2853 147.09 70.3473 170.338 73.5092C171.509 73.7006 173.002 73.9112 173.037 75.3854C172.255 75.9878 170.102 75.482 169.049 75.3617C167.244 75.1402 165.427 75.035 163.608 75.0463C158.002 75.0794 152.456 76.2059 147.281 78.3636C134.827 83.6795 128.05 94.5372 123.211 106.6C125.085 105.516 127.112 104.159 129.033 103.117C129.371 102.934 129.777 103.189 130.087 103.336C131.054 105.238 123.845 108.399 122.515 109.422C121.931 109.87 121.342 109.864 120.63 109.696Z" fill="#1C0E2C"/>
<path d="M156.839 68.7563C156.837 68.3076 156.876 68.2872 157.045 67.885C159.308 65.8545 173.227 66.8084 176.075 68.4021C175.992 69.1243 175.959 69.3403 175.301 69.6807C173.73 69.6881 169.241 68.6842 166.764 68.5762C164.671 68.4851 157.75 69.1221 156.839 68.7563Z" fill="#1C0E2C"/>
</svg>
