<svg width="31" height="43" viewBox="0 0 31 43" fill="none" xmlns="http://www.w3.org/2000/svg">
<path d="M21.397 6.98462C21.6941 6.98391 22.1833 6.94659 22.5972 7.02466C23.0617 7.11229 23.5349 7.35515 23.7954 7.94067C24.0055 8.41302 23.9759 8.83533 23.8452 9.21021C23.7315 9.53626 23.5158 9.874 23.3901 10.1057V10.1067C23.1707 10.5108 22.9396 10.9157 22.7212 11.3079L22.7202 11.3069L20.2524 15.7551C20.1471 15.9451 19.8315 16.49 19.5181 17.0618C19.4055 17.2672 19.2989 17.4671 19.2095 17.6409C19.4069 17.6407 19.6123 17.6372 19.8208 17.637L22.812 17.634L23.2925 17.6233C23.484 17.6191 23.6943 17.6178 23.8853 17.6262C24.2613 17.6428 24.762 17.6998 25.1187 17.9661H25.1196C25.4894 18.2435 25.7319 18.6582 25.7935 19.1165H25.7944C25.8545 19.5499 25.7757 19.9072 25.5327 20.2708C25.1751 20.8062 24.7529 21.3558 24.3882 21.8508L22.0806 24.9827L22.0815 24.9836C19.7636 28.1453 17.4263 31.4131 15.0728 34.551L15.0737 34.552L13.1812 37.1526L13.1802 37.1536C13.0865 37.2812 12.9982 37.417 12.8872 37.5793C12.7815 37.7339 12.6612 37.9039 12.5259 38.0627C12.2584 38.3768 11.8843 38.7049 11.355 38.7834C10.886 38.8529 10.4279 38.633 10.1265 38.3625C9.83129 38.0976 9.53755 37.6435 9.64893 37.1272C9.83876 36.2473 10.1546 35.3183 10.4048 34.4973L12.3501 28.0959L13.0239 25.8479C13.0696 25.6947 13.1647 25.4038 13.2554 25.0872C13.2661 25.0498 13.2739 25.0125 13.2837 24.9768C13.0827 24.9751 12.8994 24.9779 12.7642 24.9778H12.7632H9.98291C9.65919 24.9778 8.88823 25.0004 8.53174 24.97V24.969C8.37051 24.9555 8.21124 24.9218 8.05811 24.8665H8.05615C7.6838 24.7305 7.37703 24.4237 7.19189 24.0999C7.01032 23.7822 6.88164 23.3291 7.06104 22.8987C7.55243 21.7198 8.12397 20.5466 8.6499 19.4094L11.5718 13.0901L13.1782 9.60181L13.6909 8.48267L13.6919 8.48169C13.8331 8.17511 13.974 7.83556 14.2046 7.57642C14.4652 7.2837 14.8041 7.1187 15.2671 7.01001L15.3091 7.00024L15.3521 6.99829C15.8392 6.96981 16.4783 6.98372 16.9341 6.98364H16.9351L19.6343 6.98462H21.397Z" fill="black" stroke="black"/>
<path d="M19.2539 7.77075C20.0676 7.77216 20.8634 7.77808 21.4668 7.78931C21.7676 7.79491 22.0247 7.80153 22.2139 7.81079C22.3074 7.81537 22.3911 7.82072 22.457 7.82739C22.4892 7.83065 22.5257 7.83572 22.5605 7.84204C22.5777 7.84516 22.602 7.84998 22.6289 7.85767C22.6471 7.86289 22.706 7.88014 22.7695 7.92017C23.222 8.20549 23.1787 8.72541 23.083 8.98267L23.084 8.98364C22.9495 9.34497 22.6894 9.73016 22.5557 9.96313C22.3305 10.3557 22.1238 10.742 21.8955 11.1506C21.0247 12.7094 20.1362 14.2419 19.3037 15.8L18.9502 16.47C18.8274 16.7058 18.6686 16.962 18.5479 17.1711C18.4505 17.3397 18.3675 17.4941 18.3047 17.6409L18.249 17.7854C18.2032 17.9198 18.1951 18.0492 18.2188 18.1497L18.2461 18.219C18.284 18.2868 18.3567 18.3489 18.4814 18.3899C18.6181 18.4348 18.8027 18.4517 19.042 18.4504C19.1586 18.4498 19.2775 18.4457 19.4033 18.4407C19.5253 18.4358 19.6561 18.4309 19.7812 18.4309L22.6201 18.428C23.1037 18.4273 23.6095 18.4204 24.1113 18.4358C24.4669 18.4468 24.774 18.6404 24.9248 18.9407C25.0771 19.2442 25.0458 19.6107 24.8271 19.9026C24.4638 20.3873 24.1044 20.8754 23.7432 21.3655L21.4297 24.5081L21.4287 24.5071L14.7324 33.6506L14.7334 33.6516C14.6381 33.7829 14.4164 34.0943 14.1299 34.4954C13.8448 34.8944 13.4982 35.379 13.1553 35.8518C12.8128 36.324 12.472 36.7876 12.2002 37.1438C12.0648 37.3213 11.9432 37.4766 11.8457 37.594C11.7973 37.6523 11.7506 37.706 11.709 37.7502C11.6951 37.765 11.671 37.7899 11.6406 37.8176L11.5322 37.9006C11.2906 38.047 11.0266 37.9957 10.8779 37.926V37.925C10.6647 37.8254 10.5134 37.6494 10.4648 37.4192C10.4268 37.239 10.4649 37.0688 10.4814 36.9934C10.5698 36.5907 10.7185 36.1719 10.8223 35.8352L11.4033 33.9397L13.3682 27.4456L13.9014 25.6633L14.0693 25.1204C14.1192 24.953 14.1605 24.7949 14.1855 24.6331C14.2024 24.5238 14.1899 24.4466 14.1592 24.3831C14.1157 24.2937 14.0251 24.22 13.9473 24.1985V24.1975C13.8277 24.1648 13.6623 24.1533 13.4502 24.1545C13.3472 24.1552 13.2425 24.1585 13.1328 24.1624C13.0261 24.1661 12.9124 24.1701 12.8047 24.1702C12.5178 24.1705 11.5192 24.186 10.5156 24.1897C10.0227 24.1915 9.53683 24.19 9.16113 24.1829C8.97404 24.1793 8.80867 24.1738 8.68164 24.1663C8.61901 24.1625 8.55923 24.1578 8.50781 24.1516C8.48232 24.1485 8.45259 24.1449 8.42285 24.1389C8.40128 24.1346 8.34478 24.1228 8.28418 24.095L8.28516 24.094C8.06133 23.9914 7.88348 23.7852 7.82031 23.5403C7.75646 23.2926 7.81763 23.0893 7.87988 22.9475C8.33788 21.9042 8.85644 20.8608 9.32715 19.8499L12.0879 13.8811L13.7314 10.3176C14.0245 9.67596 14.3269 8.98209 14.6533 8.33032C14.8363 7.96487 15.2176 7.85025 15.3711 7.80688L15.4336 7.78931L15.498 7.78833C15.9155 7.78022 17.6278 7.76794 19.2539 7.77075Z" fill="white" stroke="black"/>
<path d="M17.7532 42.5953C17.9861 42.0439 19.4502 41.0732 20.2481 40.421C22.6959 38.42 24.8255 36.0089 26.5366 33.3519C27.1185 32.4493 29.6733 27.267 29.9058 27.0967L30.396 27.1788C30.38 27.2683 30.3534 27.4161 30.3229 27.5104C28.362 33.6433 24.2689 39.0491 18.8201 42.5031C18.3424 42.806 18.1525 42.7263 17.7532 42.5953Z" fill="#E89D01"/>
<path d="M23.4558 41.9667C23.5833 41.3373 24.9783 40.1699 25.519 39.5935C26.1872 38.8918 26.8183 38.1564 27.4108 37.3907C27.9847 36.6422 29.0621 34.7395 29.8367 34.4701C29.7251 36.1856 25.2241 41.9892 23.4558 41.9667Z" fill="#E89D01"/>
<path d="M11.8481 2.47193C11.5796 2.81684 10.3632 3.22487 9.67709 3.53411C7.57213 4.483 5.6141 5.78134 3.9048 7.33224C3.32371 7.85897 0.54198 11.0318 0.345782 11.108L0.0154902 10.9574C0.0436613 10.8973 0.0903324 10.7981 0.129716 10.7373C2.67222 6.7816 6.58142 3.74193 11.078 2.3353C11.4723 2.21193 11.5911 2.30404 11.8481 2.47193Z" fill="#E89D01"/>
<path d="M7.70653 1.8372C7.49758 2.25713 6.2929 2.81695 5.80251 3.12139C5.19848 3.49009 4.61433 3.88953 4.05161 4.31772C3.50528 4.73724 2.38558 5.8758 1.78829 5.91946C2.19127 4.73039 6.4634 1.48713 7.70653 1.8372Z" fill="#E89D01"/>
</svg>
