<svg width="32" height="32" viewBox="0 0 32 32" fill="none" xmlns="http://www.w3.org/2000/svg">
<rect width="32" height="32" rx="6.9" fill="#FFDEC4"/>
<path d="M15.4634 7.03513C20.5589 6.5936 25.0483 10.3657 25.4909 15.4609C25.9334 20.5563 22.1626 25.0464 17.0671 25.4907C11.9704 25.9351 7.47853 22.1624 7.03536 17.0651C6.59219 11.9678 10.3661 7.47683 15.4634 7.03513Z" fill="#DD5B00"/>
<path d="M18.6567 15.3123L19.3023 15.3144C19.5826 17.833 20.9595 20.1473 22.8543 21.796C22.01 22.7832 21.1425 23.4039 19.9929 23.9765C18.6561 24.5644 17.8227 24.7206 16.3752 24.8075C17.7163 21.5498 17.799 18.7619 17.771 15.3483L18.6567 15.3123Z" fill="#FFDEC4"/>
<path d="M16.8822 15.4325L17.0336 15.4221L17.0993 15.4926C17.3759 18.2726 16.7339 22.2325 15.6713 24.7803C14.4099 24.6751 13.5637 24.4192 12.4196 23.9164C11.9551 23.6812 11.6494 23.4879 11.2092 23.204C11.4141 23.0337 11.6117 22.8556 11.8019 22.669C13.7983 20.689 14.4378 18.5285 14.4342 15.8045C15.2445 15.644 16.061 15.52 16.8822 15.4325Z" fill="#FFDEC4"/>
<path d="M15.087 7.82498C15.1521 7.81361 15.1885 7.82462 15.2572 7.83155C15.5685 8.17009 15.7837 8.75587 15.9533 9.1808C16.6907 11.0268 16.9387 12.802 17.0633 14.7582C16.1448 14.8399 15.2329 14.983 14.3338 15.1863C14.225 14.6221 14.1235 14.2574 13.9393 13.7171C13.1654 11.9344 12.1642 10.9418 10.4961 9.98871C11.9867 8.7394 13.1733 8.17884 15.087 7.82498Z" fill="#FFDEC4"/>
<path d="M9.99757 10.4771C10.3119 10.6312 10.6146 10.8079 10.9027 11.0058C12.4632 12.0621 13.3301 13.4855 13.6815 15.3136C12.4505 15.6162 11.2456 16.0132 10.0754 16.5001C9.20607 16.866 8.51853 17.2332 7.69056 17.6764C7.33858 14.809 8.03281 12.6004 9.99757 10.4771Z" fill="#FFDEC4"/>
<path d="M13.5436 16.0211L13.6901 16.0132C13.8318 16.1718 13.7789 16.5816 13.7613 16.8235C13.5777 19.3664 12.5333 21.15 10.67 22.8023C10.1776 22.4096 9.85666 22.0643 9.45362 21.5877C8.6451 20.564 8.16121 19.5962 7.8457 18.3372C9.78007 17.2278 11.3868 16.5883 13.5436 16.0211Z" fill="#FFDEC4"/>
<path d="M21.5661 9.43506C23.5905 11.0421 24.52 12.8433 24.8446 15.3882C24.3546 15.2698 23.8628 15.159 23.3698 15.056C22.0829 14.823 21.1807 14.7284 19.8816 14.669C19.8749 14.5263 19.8713 14.3834 19.8695 14.2406C19.8512 12.4294 20.2695 10.7489 21.5661 9.43506Z" fill="#FFDEC4"/>
<path d="M19.9778 15.3301C21.7772 15.3573 23.1571 15.6502 24.8787 16.0958C24.8781 17.6843 24.5876 18.7785 23.9176 20.1955C23.7146 20.6041 23.5049 20.8952 23.2477 21.2709C21.3419 19.6004 20.4252 17.8083 19.9778 15.3301Z" fill="#FFDEC4"/>
<path d="M16.0159 7.73864C17.8566 7.66283 19.4366 8.09907 21.008 9.05124C19.9503 10.1872 19.5065 11.3266 19.2882 12.8518C19.191 13.4334 19.1989 14.0653 19.2086 14.6524L17.7636 14.6893C17.5119 12.0142 17.2475 10.1809 16.0159 7.73864Z" fill="#FFDEC4"/>
</svg>
