<svg width="32" height="32" viewBox="0 0 32 32" fill="none" xmlns="http://www.w3.org/2000/svg">
<rect width="32" height="32" rx="6.9" fill="#E6F3FE"/>
<path d="M18.1111 6C18.2609 6.00119 18.4389 5.99111 18.5768 6.0566C19.2898 6.39511 20.6246 11.0831 20.9404 12.046C21.0505 12.0969 21.1595 12.1502 21.2673 12.2058C22.9238 13.0609 23.9919 14.0413 24.5685 15.8283C25.0769 15.6031 26.4502 14.8578 26.9091 15.2104L26.8803 15.3502C26.4742 15.8753 25.4136 16.1919 24.7684 16.4376C24.8588 17.4825 24.9409 18.3436 24.5803 19.3437C25.0919 19.6092 26.6531 20.1626 26.7824 20.6536C26.7142 20.8734 26.7799 20.7987 26.6015 20.9036C26.0752 20.9223 24.9736 20.2971 24.434 20.0334C24.2936 20.3843 24.1423 20.7401 23.9641 21.074C21.5899 25.5222 15.0099 26.6585 10.7807 24.4099C8.94437 23.4336 7.66642 21.859 7.06662 19.8751C6.60478 20.0535 5.34022 20.6742 4.94695 20.5002C4.81349 20.3151 4.83707 20.4134 4.85675 20.1999C5.16901 19.7879 6.36743 19.4296 6.91313 19.228C6.73338 18.1187 6.75057 17.3643 7.0326 16.2773C6.50818 15.9737 4.72578 15.2167 4.84561 14.6012C5.44375 14.3282 7.60135 15.9322 8.26065 16.1975C8.5415 16.3105 9.19547 16.6897 9.29681 16.9887C9.2302 17.211 9.29124 17.1248 9.11748 17.2635C8.69405 17.3109 8.0604 16.8618 7.61735 16.6355C7.46202 17.5269 7.4446 18.0955 7.56941 18.9884C7.89838 18.8483 8.99214 18.292 9.23162 18.7132C9.13923 19.185 8.13454 19.4817 7.71597 19.6387C8.54613 22.3644 10.485 23.914 13.2053 24.5862C15.2669 25.0542 17.4211 24.8983 19.3939 24.1386C21.6668 23.2388 22.8749 21.9507 23.8265 19.7617C23.3963 19.5174 22.4426 19.2653 22.3666 18.7951C22.455 18.5788 22.384 18.654 22.5657 18.5438C23.0102 18.5018 23.5949 18.8853 24.0087 19.106C24.1977 18.2423 24.1828 17.6051 24.1085 16.7318C23.8035 16.847 22.2468 17.7724 22.3836 16.91C22.6634 16.5419 23.4927 16.2706 23.9494 16.0827C23.2384 14.1203 22.1961 13.4208 20.3954 12.5075C19.8066 11.1061 19.0863 7.94069 18.3146 6.71169C17.5793 7.81292 16.5115 11.3051 15.9109 11.9816C15.169 12.2274 14.9578 10.9495 14.7301 10.4314C14.2327 9.29966 13.857 7.99225 13.2221 6.93292L13.1776 6.85955C12.5242 7.88054 11.4381 11.4202 10.9418 12.7372C10.2705 13.2179 9.6873 13.4732 9.03285 14.0817C8.61606 14.4693 8.19161 15.4011 7.82477 15.5394C7.62713 15.4885 7.39399 15.2962 7.48674 15.0912C8.03616 13.8763 9.23791 12.9887 10.3534 12.3354C10.7857 11.242 12.0475 6.84065 12.8886 6.28043C13.0368 6.1817 13.2142 6.13239 13.3882 6.19509C14.0682 6.44015 15.3849 10.2347 15.6975 11.0099C16.1972 9.89389 17.3071 6.63489 18.1111 6Z" fill="#005BAB"/>
<path d="M15.0402 17.1587C16.3961 17.0898 17.2539 17.1378 16.0694 18.5905C16.0501 19.3746 16.0442 20.159 16.0518 20.9433C16.837 20.7405 17.2787 20.1638 17.6601 20.1731C17.8164 20.2476 17.8031 20.2485 17.8919 20.4007C17.9316 20.9679 16.7014 21.4536 16.2491 21.5746C16.1926 21.5837 16.1359 21.5919 16.0791 21.5994C15.3633 21.691 13.6482 21.2733 13.5642 20.4603C13.6553 20.2365 13.5842 20.3218 13.7786 20.1896C14.2328 20.1663 14.4049 20.5317 14.7911 20.7403C14.9836 20.8443 15.1928 20.8986 15.402 20.9586C15.4175 20.1921 15.3981 19.3793 15.3906 18.6089C15.0875 18.2873 14.7376 17.9454 14.7499 17.5018C14.8371 17.2844 14.855 17.2923 15.0402 17.1587Z" fill="#005BAB"/>
<path d="M15.711 15.0455C16.9192 15.8962 17.8704 16.1379 19.2867 15.4569C19.5791 15.3164 19.6962 15.1146 20.0369 15.0209C20.2576 15.0647 20.1707 15.0097 20.3042 15.1945C20.3399 15.4842 20.3614 15.3489 20.2329 15.6149C18.8443 16.7027 17.2096 16.8309 15.711 15.8804C14.3887 16.7447 12.9392 16.6826 11.5826 15.9325C11.3429 15.7999 11.207 15.625 11.1433 15.3638C11.168 15.1579 11.2315 15.1219 11.376 14.9717C11.9394 15.2083 12.4448 15.724 13.2777 15.8267C14.3383 15.9576 14.8925 15.6061 15.711 15.0455Z" fill="#005BAB"/>
</svg>
