<svg width="32" height="32" viewBox="0 0 32 32" fill="none" xmlns="http://www.w3.org/2000/svg">
<rect width="32" height="32" rx="6.9" fill="#EADBFA"/>
<path d="M13.1512 7.01835C14.6922 6.91819 16.9405 7.24062 18.4123 7.68064C18.9412 7.83874 19.9265 8.41908 19.6242 9.09532C19.4766 9.42507 19.0453 9.80533 18.7012 9.90938C16.2075 10.6631 11.2488 10.6138 8.92719 9.61317C8.68306 12.0365 8.65109 20.1121 9.6683 22.0948C10.1566 23.0464 11.1005 23.6383 12.0962 23.9435C13.4895 24.3707 15.1711 24.4607 16.4831 23.7252C17.7764 23.0001 17.9519 21.7904 18.3448 20.5107C18.3983 20.3355 18.4849 20.0874 18.6483 19.985C19.1115 19.694 20.957 19.7747 21.8621 19.2752C22.7398 18.7905 23.1908 17.9749 23.4571 17.045C23.9349 15.3786 24.0058 13.2223 23.1461 11.6701C23.0618 11.5631 22.974 11.4587 22.8828 11.3571C21.7075 10.0696 20.0869 10.8813 19.5841 10.3422C19.5486 10.0986 19.5324 10.2117 19.63 9.98977C19.7521 9.89374 19.8922 9.86759 20.0479 9.86212C21.0756 9.80179 22.3428 9.96756 23.1432 10.6779C25.1247 12.4362 24.687 17.1883 23.1583 19.0787C22.1986 20.2655 20.4386 20.4224 19.0179 20.5211C18.8215 21.5221 18.5157 22.5995 17.8665 23.4092C17.1312 24.3265 15.9843 24.7887 14.8381 24.9097C13.2332 25.0792 11.3237 24.6684 10.0612 23.6245C8.63016 22.441 8.50694 20.5912 8.35116 18.8628C8.21805 17.3843 7.85069 8.98215 8.57669 8.17686C9.56251 7.08385 11.7864 7.08153 13.1512 7.01835Z" fill="#7237AE"/>
<path d="M12.4185 7.71418C13.2485 7.65483 19.2233 7.77143 18.917 8.95373C18.3346 9.58231 16.5658 9.67391 15.7503 9.72495C14.6709 9.75111 9.40462 9.74477 9.03784 8.72029C9.2593 7.96877 11.7977 7.75853 12.4185 7.71418Z" fill="#EADBFA"/>
<path d="M19.4794 11.7088C20.1537 11.6473 21.5388 11.6041 21.9161 12.2893C22.5549 13.4514 22.2543 15.3632 22.0736 16.6232C21.9765 17.2998 21.6754 17.9178 21.1186 18.2868C20.5914 18.5055 19.3265 18.8671 18.7993 18.5519C18.6005 18.4079 18.7441 17.3379 18.7848 17.1589C19.0022 16.2063 19.0928 12.2545 19.4794 11.7088Z" fill="#7237AE"/>
<path d="M19.9241 12.3381C20.1154 12.334 20.306 12.3328 20.4967 12.3345C22.001 12.3571 21.6087 14.0807 21.5953 15.1612C21.5854 15.9565 21.4122 17.1689 20.7809 17.7031C20.2816 17.9248 19.898 17.9615 19.3621 18.0302C19.4806 16.2704 19.7521 14.1372 19.9241 12.3381Z" fill="#EADBFA"/>
</svg>
