<svg width="203" height="109" viewBox="0 0 203 109" fill="none" xmlns="http://www.w3.org/2000/svg">
<path fill-rule="evenodd" clip-rule="evenodd" d="M81.3843 11.0312C83.3516 12.6218 84.0632 12.4962 87.7468 12.2451L122.448 10.1521C123.201 10.1521 122.573 9.39866 122.322 9.31494L116.546 5.17092C115.457 4.33375 113.95 3.32914 111.146 3.58029L77.5751 6.04995C76.3612 6.17553 76.1101 6.80342 76.6124 7.26386L81.3843 11.0312ZM83.4772 19.1099V55.6108C83.4772 57.5781 84.44 58.2897 86.6585 58.1641L124.792 55.9456C127.01 55.82 127.261 54.4806 127.261 52.8899V16.6402C127.261 15.0496 126.634 14.1706 125.294 14.2961L85.4446 16.6402C83.9795 16.7658 83.4772 17.5193 83.4772 19.1099ZM121.108 21.0773C121.359 22.1656 121.108 23.2958 120.02 23.4214L118.178 23.7981V50.7551C116.588 51.5923 115.122 52.0946 113.867 52.0946C111.899 52.0946 111.397 51.4667 109.932 49.625L97.9185 30.7466V48.9971L101.728 49.8342C101.728 49.8342 101.728 52.0528 98.6719 52.0528L90.2165 52.5551C89.9653 52.0528 90.2165 50.8389 91.0536 50.5877L93.2722 49.9598V25.8492L90.2165 25.598C89.9653 24.5097 90.5932 22.919 92.3094 22.7935L101.393 22.1656L113.909 41.2532V24.3841L110.727 24.0074C110.476 22.6679 111.481 21.6633 112.695 21.5377L121.108 21.0773ZM74.7706 2.70125L109.723 0.147867C113.992 -0.228862 115.122 0.0222915 117.801 1.98965L128.936 9.81725C130.778 11.1567 131.406 11.5335 131.406 12.9985V55.9875C131.406 58.6664 130.443 60.2571 127.01 60.5082L86.4492 62.9779C83.8539 63.1035 82.64 62.7267 81.3005 61.0105L73.0544 50.3365C71.5893 48.3692 70.9614 46.9041 70.9614 45.1879V6.97085C70.9614 4.75233 71.966 2.9524 74.7706 2.70125Z" fill="black"/>
<path d="M4.37819 107.645V90.2638H4.68466L17.2063 107.645H21.1467V82.1204H16.7685V99.458H16.462L3.94037 82.1204H0V107.645H4.37819ZM33.5369 108.039C39.3162 108.039 42.8625 104.274 42.8625 97.9695C42.8625 91.7086 39.3162 87.8996 33.5369 87.8996C27.8015 87.8996 24.2114 91.7086 24.2114 97.9695C24.2552 104.274 27.7577 108.039 33.5369 108.039ZM33.5369 104.362C30.4722 104.362 28.7209 102.041 28.7209 97.9695C28.7209 93.9415 30.4722 91.5773 33.5369 91.5773C36.6017 91.5773 38.353 93.9415 38.353 97.9695C38.353 102.041 36.6017 104.362 33.5369 104.362ZM46.8467 83.5652V88.425H43.7819V91.9276H46.8467V102.479C46.8467 106.244 48.5979 107.733 53.0637 107.733C53.8955 107.733 54.7274 107.645 55.3841 107.514V104.099C54.8588 104.143 54.5085 104.186 53.8955 104.186C52.0567 104.186 51.2249 103.355 51.2249 101.428V91.9276H55.3841V88.425H51.2249V83.5652H46.8467ZM58.0111 107.645H62.3893V88.2936H58.0111V107.645ZM60.2002 85.0976C61.645 85.0976 62.8271 83.9155 62.8271 82.4707C62.8271 80.9821 61.645 79.8 60.2002 79.8C58.7554 79.8 57.5732 80.9821 57.5732 82.4707C57.5732 83.9155 58.7554 85.0976 60.2002 85.0976ZM74.3855 108.039C80.1647 108.039 83.711 104.274 83.711 97.9695C83.711 91.7086 80.1647 87.8996 74.3855 87.8996C68.6501 87.8996 65.0599 91.7086 65.0599 97.9695C65.0599 104.274 68.5625 108.039 74.3855 108.039ZM74.3855 104.362C71.3208 104.362 69.5695 102.041 69.5695 97.9695C69.5695 93.9415 71.3208 91.5773 74.3855 91.5773C77.4064 91.5773 79.2015 93.9415 79.2015 97.9695C79.1577 102.041 77.4064 104.362 74.3855 104.362ZM86.2942 107.645H90.6724V96.3933C90.6724 93.5475 92.3361 91.7524 94.9192 91.7524C97.5899 91.7524 98.8158 93.241 98.8158 96.1744V107.645H103.194V95.1236C103.194 90.4827 100.83 87.8996 96.5392 87.8996C93.6495 87.8996 91.7231 89.2131 90.8037 91.4022H90.4972V88.2936H86.2504C86.2942 88.2936 86.2942 107.645 86.2942 107.645Z" fill="black"/>
<path d="M112.812 107.572V81.2704H122.036C124.926 81.2704 127.173 81.9742 128.778 83.3819C130.408 84.7649 131.223 86.6788 131.223 89.1237C131.223 90.729 130.853 92.1243 130.112 93.3097C129.396 94.4951 128.346 95.4088 126.963 96.0509C125.605 96.6683 123.963 96.977 122.036 96.977H115.331V107.572H112.812ZM115.331 94.5321H122.036C124.185 94.5321 125.802 94.0753 126.889 93.1615C128 92.2478 128.556 90.9018 128.556 89.1237C128.556 87.3456 128 85.9997 126.889 85.0859C125.802 84.1722 124.185 83.7153 122.036 83.7153H115.331V94.5321ZM141.496 108.016C139.546 108.016 137.977 107.362 136.792 106.053C135.631 104.719 135.051 102.892 135.051 100.57V87.9383H137.496V99.8294C137.496 101.855 137.879 103.361 138.644 104.349C139.434 105.337 140.595 105.831 142.126 105.831C143.83 105.831 145.164 105.275 146.127 104.164C147.115 103.052 147.609 101.546 147.609 99.6442V87.9383H150.054V107.572H147.757L147.72 102.534L148.09 102.719C147.769 104.398 147.028 105.707 145.868 106.646C144.732 107.559 143.275 108.016 141.496 108.016ZM159.735 107.572C158.623 107.572 157.747 107.3 157.104 106.757C156.462 106.189 156.141 105.312 156.141 104.127V81.2704H158.586V103.941C158.586 104.411 158.71 104.769 158.957 105.016C159.204 105.263 159.574 105.386 160.068 105.386H161.624V107.572H159.735ZM172.439 108.016C170.735 108.016 169.278 107.744 168.068 107.201C166.882 106.633 165.956 105.855 165.289 104.867C164.623 103.88 164.24 102.768 164.141 101.533L166.697 101.348C166.845 102.657 167.389 103.707 168.327 104.497C169.29 105.287 170.661 105.682 172.439 105.682C173.995 105.682 175.205 105.423 176.069 104.904C176.934 104.386 177.366 103.583 177.366 102.497C177.366 101.904 177.23 101.41 176.958 101.015C176.711 100.595 176.193 100.237 175.402 99.9406C174.612 99.6195 173.427 99.3232 171.846 99.0515C169.994 98.7058 168.549 98.2983 167.512 97.8291C166.475 97.3351 165.746 96.7301 165.326 96.0139C164.907 95.273 164.697 94.3963 164.697 93.3838C164.697 91.6304 165.326 90.2103 166.586 89.1237C167.845 88.0371 169.599 87.4938 171.846 87.4938C173.377 87.4938 174.674 87.7778 175.736 88.3458C176.822 88.9138 177.674 89.667 178.292 90.6055C178.909 91.5192 179.317 92.5318 179.514 93.6431L176.958 93.8653C176.81 93.0998 176.526 92.4206 176.106 91.8279C175.686 91.2105 175.118 90.729 174.402 90.3832C173.686 90.0128 172.822 89.8275 171.809 89.8275C170.327 89.8275 169.191 90.1486 168.401 90.7907C167.636 91.4081 167.253 92.2354 167.253 93.2726C167.253 93.9888 167.413 94.5815 167.734 95.0508C168.055 95.4953 168.586 95.8657 169.327 96.1621C170.068 96.4337 171.093 96.6807 172.402 96.903C174.353 97.224 175.872 97.6315 176.958 98.1254C178.07 98.5946 178.848 99.1873 179.292 99.9035C179.737 100.595 179.959 101.447 179.959 102.46C179.959 103.645 179.638 104.657 178.996 105.497C178.354 106.312 177.465 106.942 176.329 107.386C175.217 107.806 173.921 108.016 172.439 108.016ZM191.842 108.016C189.965 108.016 188.372 107.584 187.064 106.72C185.755 105.831 184.742 104.62 184.026 103.089C183.334 101.533 182.989 99.7553 182.989 97.755C182.989 95.7546 183.334 93.9888 184.026 92.4577C184.717 90.9018 185.705 89.6917 186.989 88.8274C188.298 87.9383 189.867 87.4938 191.694 87.4938C193.447 87.4938 194.966 87.9136 196.25 88.7533C197.535 89.5929 198.51 90.7783 199.177 92.3095C199.868 93.8406 200.214 95.6311 200.214 97.6809V98.4588H185.545C185.643 100.78 186.249 102.571 187.36 103.83C188.471 105.065 189.965 105.682 191.842 105.682C193.275 105.682 194.448 105.337 195.361 104.645C196.275 103.954 196.905 103.04 197.251 101.904L199.881 102.089C199.387 103.818 198.436 105.238 197.028 106.349C195.621 107.46 193.892 108.016 191.842 108.016ZM185.545 96.2732H197.547C197.423 94.174 196.843 92.5812 195.806 91.4945C194.769 90.3832 193.398 89.8275 191.694 89.8275C189.99 89.8275 188.595 90.3832 187.508 91.4945C186.421 92.6058 185.767 94.1987 185.545 96.2732Z" fill="black"/>
</svg>
