<svg width="24" height="39" viewBox="0 0 24 39" fill="none" xmlns="http://www.w3.org/2000/svg">
<path d="M10.9881 0.839111C16.216 0.373648 19.1377 4.11187 19.0721 9.02466C18.9924 14.9889 20.5393 23.0885 12.8963 24.5325C5.2567 25.0734 4.63161 19.293 4.76738 13.3967C4.89232 7.9753 4.32724 2.24739 10.9881 0.839111ZM11.6668 2.07349C9.00438 2.45864 6.98866 3.9872 6.42265 6.76587C5.84732 9.59131 6.11661 12.6745 6.07109 15.5442C6.04479 19.9334 7.32003 23.5129 12.4715 23.2512C15.8408 22.7106 17.3551 20.7483 17.6512 17.4543C17.9387 14.2542 18.0014 10.5342 17.6277 7.34692C17.2731 4.3225 14.8308 1.87127 11.6668 2.07349Z" fill="#002A4F"/>
<path d="M10.9881 0.839111L10.9171 0.0422636L10.8694 0.0465097L10.8226 0.0564138L10.9881 0.839111ZM19.0721 9.02466L19.872 9.03535V9.03535L19.0721 9.02466ZM12.8963 24.5325L12.9528 25.3305L12.9991 25.3272L13.0448 25.3186L12.8963 24.5325ZM4.76738 13.3967L3.96759 13.3783L3.96759 13.3783L4.76738 13.3967ZM11.6668 2.07349L11.6158 1.27512L11.5839 1.27715L11.5523 1.28173L11.6668 2.07349ZM6.42265 6.76587L5.63875 6.60619L5.63874 6.60624L6.42265 6.76587ZM6.07109 15.5442L5.27115 15.5315L5.2711 15.5394L6.07109 15.5442ZM12.4715 23.2512L12.5121 24.0502L12.5554 24.048L12.5982 24.0411L12.4715 23.2512ZM17.6512 17.4543L18.448 17.526L18.448 17.5259L17.6512 17.4543ZM17.6277 7.34692L18.4223 7.25378L18.4223 7.25376L17.6277 7.34692ZM10.9881 0.839111L11.059 1.63596C13.4546 1.42267 15.2386 2.16975 16.4273 3.45764C17.6326 4.76346 18.3029 6.71059 18.2721 9.01397L19.0721 9.02466L19.872 9.03535C19.9069 6.42594 19.1492 4.04756 17.603 2.37244C16.0403 0.679394 13.7494 -0.209909 10.9171 0.0422636L10.9881 0.839111ZM19.0721 9.02466L18.2721 9.01397C18.2522 10.5047 18.3344 12.2054 18.3483 13.768C18.3626 15.3746 18.3087 16.9259 18.0354 18.3197C17.7627 19.7104 17.2806 20.8957 16.4745 21.8097C15.6779 22.7129 14.5103 23.4134 12.7478 23.7464L12.8963 24.5325L13.0448 25.3186C15.1038 24.9296 16.6089 24.0762 17.6744 22.8681C18.7302 21.671 19.2995 20.1879 19.6055 18.6276C19.9108 17.0705 19.9628 15.3883 19.9482 13.7538C19.9333 12.0751 19.8521 10.5267 19.872 9.03535L19.0721 9.02466ZM12.8963 24.5325L12.8398 23.7345C11.0271 23.8628 9.70694 23.6105 8.7381 23.1325C7.78004 22.6597 7.10592 21.9372 6.62658 21.0109C5.63792 19.1004 5.49895 16.3779 5.56717 13.4151L4.76738 13.3967L3.96759 13.3783C3.90004 16.3119 4.00573 19.4277 5.20558 21.7462C5.82048 22.9345 6.72658 23.9241 8.03011 24.5673C9.32286 25.2052 10.9457 25.4726 12.9528 25.3305L12.8963 24.5325ZM4.76738 13.3967L5.56717 13.4152C5.63172 10.6143 5.52705 7.99617 6.19105 5.84937C6.51321 4.80776 7.00726 3.92331 7.76704 3.22008C8.52677 2.5169 9.60052 1.95016 11.1536 1.62181L10.9881 0.839111L10.8226 0.0564138C9.04522 0.432198 7.6918 1.10956 6.68021 2.04585C5.66867 2.98211 5.04728 4.13253 4.66249 5.3766C3.91258 7.80119 4.02799 10.7577 3.96759 13.3783L4.76738 13.3967ZM11.6668 2.07349L11.5523 1.28173C10.1028 1.49141 8.78284 2.01933 7.73803 2.91463C6.68669 3.81552 5.95492 5.05402 5.63875 6.60619L6.42265 6.76587L7.20656 6.92555C7.45639 5.69905 8.01549 4.78394 8.77912 4.12959C9.54927 3.46965 10.5684 3.04071 11.7813 2.86524L11.6668 2.07349ZM6.42265 6.76587L5.63874 6.60624C5.04375 9.52821 5.31483 12.7803 5.27119 15.5315L6.07109 15.5442L6.87099 15.5569C6.91838 12.5688 6.65089 9.65442 7.20657 6.92549L6.42265 6.76587ZM6.07109 15.5442L5.2711 15.5394C5.25769 17.7789 5.56854 19.9748 6.66811 21.5917C7.81792 23.2824 9.72213 24.1919 12.5121 24.0502L12.4715 23.2512L12.4309 22.4523C10.0694 22.5722 8.76025 21.8228 7.99115 20.6919C7.17182 19.4871 6.8582 17.6986 6.87108 15.549L6.07109 15.5442ZM12.4715 23.2512L12.5982 24.0411C14.417 23.7493 15.8291 23.0559 16.8195 21.9079C17.8023 20.7688 18.2909 19.2731 18.448 17.526L17.6512 17.4543L16.8544 17.3827C16.7154 18.9296 16.2988 20.062 15.6081 20.8627C14.925 21.6545 13.8952 22.2125 12.3447 22.4613L12.4715 23.2512ZM17.6512 17.4543L18.448 17.5259C18.7387 14.2898 18.8042 10.5118 18.4223 7.25378L17.6277 7.34692L16.8332 7.44007C17.1985 10.5565 17.1387 14.2185 16.8544 17.3828L17.6512 17.4543ZM17.6277 7.34692L18.4223 7.25376C18.0266 3.87901 15.2732 1.04136 11.6158 1.27512L11.6668 2.07349L11.7178 2.87186C14.3884 2.70118 16.5196 4.76598 16.8332 7.44009L17.6277 7.34692Z" fill="#002A4F"/>
<path d="M22.1418 17.6733C22.6491 17.8221 22.9283 18.0339 22.9384 18.5865C22.9841 21.0579 21.9366 23.9244 20.421 25.8084C18.2344 28.5268 15.7607 29.3361 12.4933 29.6777C12.4229 31.6737 12.4766 33.7533 12.5008 35.7567C13.6665 35.8076 18.0277 35.9789 18.6848 36.796C18.742 37.2589 18.7727 37.0395 18.5704 37.4752C18.0664 37.7843 17.5034 37.6594 16.9612 37.5318C12.9725 36.5918 9.39552 37.316 5.46923 37.7972C5.2391 37.8253 5.07707 37.6173 4.96501 37.4352C5.22897 36.0558 9.85468 35.897 11.1739 35.7936L11.1695 30.9507L11.1729 29.7232C6.99437 29.245 3.33994 27.7488 1.65857 23.4996C1.21422 22.3768 0.0477472 18.2548 1.52381 17.7147C2.43677 18.1993 2.14899 21.112 2.58188 22.2951C4.01321 26.2063 6.85337 28.0144 10.9873 28.3574C15.4888 28.7308 19.8076 26.3026 21.0946 21.7294C21.4269 20.5488 21.5486 19.4186 21.7359 18.2094C21.7746 17.9827 21.9702 17.825 22.1418 17.6733Z" fill="#002A4F" stroke="#002A4F" stroke-width="1.6"/>
</svg>
